<svg xmlns="http://www.w3.org/2000/svg" width="854.039" height="581.331" viewBox="0 0 854.039 581.331"><g fill-rule="evenodd" clip-rule="evenodd"><path d="M0 206.985c.823-1.96 1.774-3.877 2.448-5.887 4.582-13.66 13.536-24.755 21.56-36.341 7.181-10.369 14.557-20.674 22.698-30.287 7.167-8.463 15.502-15.938 23.348-23.824.936-.94 2.198-1.583 3.038-2.589 13.382-16.022 30.731-27.471 46.75-40.435 3.968-3.211 8.515-5.859 13.117-8.105 16.603-8.104 33.074-16.57 50.111-23.661 14.979-6.233 30.389-11.84 46.091-15.816 14.913-3.776 30.408-5.422 45.727-7.377 15.811-2.018 31.293-1.557 46.331 5.616 4.218 2.013 10.89 2.322 15.896-1.489.989-.753 2.164-1.261 3.812-2.2-3.874 6.677-11.431 9.459-17.7 6.339-13.73-6.833-28.354-6.974-42.967-5.617-11.893 1.104-23.595 4.248-35.487 5.376-25.984 2.464-49.513 12.299-72.754 23.095-14.335 6.659-28.442 13.814-42.635 20.779-1.64.806-3.246 1.722-4.749 2.76-23.651 16.325-44.863 35.484-64.923 55.978-.317.324-.469.809-.278 1.728 4.161-3.316 8.281-6.685 12.49-9.938 19.034-14.716 38.104-29.385 57.14-44.098 13.883-10.73 29.629-17.901 46.067-23.516 16.485-5.631 33.087-10.982 49.836-15.759 12.242-3.491 24.804-5.858 37.228-8.708 1.593-.365 3.211-.622 4.662-1.153-16.862 6.374-34.05 12.009-50.511 19.288-27.146 12.005-51.168 28.765-69.236 52.67-9.287 12.288-19.05 24.926-24.817 38.96-5.608 13.645-15.033 24.752-20.655 38.013-6.154 14.513-11.649 29.326-16.833 44.217-1.526 4.385-1.021 9.478-1.448 14.245l1.5.518 3.187-5.702-.109-.1c1.261-.079 2.546-.032 3.777-.266 2.062-.392 4.09-.961 6.133-1.455l.361 1.428c-8.763 15.691-17.527 31.383-26.291 47.074l-.92-.532c6.894-14.038 13.789-28.076 20.683-42.113l-1.458-.964c-5.365 7.129-10.752 14.241-16.084 21.395-2.423 3.251-6.414 6.423-6.745 9.91-.648 6.833.344 13.958 3.493 20.046 9.283-10.391 18.329-20.517 27.375-30.643l1.255.972c-5.229 15.806-15.011 29.319-22.636 43.919 4.134-9.954 8.268-19.908 12.563-30.252-4.149 3.942-8.079 7.651-11.98 11.389-6.865 6.578-7.303 11.887-1.702 20.253.313 6.461.627 12.922.941 19.384l1.898.194c1.626-6.13 3.606-12.192 4.796-18.406 1.776-9.274 8.328-14.36 15.861-20.308-.317 6.123-.572 11.03-.825 15.904 6.523-.68 11.831 1.579 15.338 6.22 9.057-1.804 14.943 3.57 21.19 7.926l.073-.096-17.304-6.07c-3.959 5.549-7.239-.905-10.309-2.314-6.226-2.859-11.341-2.794-15.277 3.038-5.207 7.715-12.299 14.629-11.217 25.816-6.589-7.154-5.497-15.729-7.751-23.24-1.38-4.601-1.924-9.46-3.386-14.028-3.465-10.825-4.977-21.933-6.662-33.141-1.527-10.162-6.185-19.848-9.381-29.77-1.207-3.744-2.184-7.562-3.418-11.877l-2.852-.845c.448-.712.607-1.264.969-1.488 2.098-1.301 4.243-2.525 6.372-3.775.034 2.276-.073 4.565.136 6.826.307 3.327.839 6.634 1.904 9.954 4.454-7.842 8.674-15.284 17.681-19.005-8.027 16.125-14.176 32.374-7.026 49.778 4.854-7.216 10.037-14.879 15.141-22.595.398-.602.476-1.619.313-2.356-2.919-13.24.783-25.621 6.017-37.332 7.254-16.232 15.039-32.293 23.686-47.82 9.852-17.691 20.123-35.254 31.636-51.887 13.163-19.016 31.06-33.208 51.504-44.103 5.268-2.807 10.396-5.876 15.295-9.625-2.869.85-5.794 1.547-8.599 2.573-16.692 6.11-33.98 11.031-49.84 18.844-13.582 6.691-25.742 16.414-38.112 25.375-10.365 7.509-19.53 16.788-30.285 23.618-18.323 11.636-32.251 27.599-46.205 43.617-7.642 8.773-15.209 17.774-21.485 27.526-5.69 8.842-9.562 18.853-14.298 28.316-.557 1.111-1.508 2.026-2.277 3.032l-.001-5.001zm86.193 93.355l1.732.666c3.298-6.782 6.596-13.565 9.894-20.349l-1.511-.739c-5.42 5.779-10.332 11.811-10.115 20.422zm-19.701-85.919c-8.933 8.48-9.91 13.1-4.412 20.207 1.437-6.578 2.898-13.27 4.412-20.207zm527.549 14.578l-6.148 9.814-1-.269c1.769-11.204 4.171-22.353 5.17-33.625 1.907-21.518 4.597-43.145 4.088-64.658-.789-33.369-13-63.837-28.412-93.137-6.248-11.878-14.761-21.225-26.023-28.258-.538-.336-1.179-.507-2.988-1.263.84 2.159 1.146 3.455 1.799 4.541 4.945 8.222 9.975 16.394 14.946 24.599 6.101 10.068 7.42 21.471 9.509 32.74.91 4.91 3.092 9.837 5.73 14.117 4.027 6.534 4.065 6.918-.602 12.837-8.146 10.33-15.367 21.272-20.24 33.636-1.826 4.633-4.75 8.861-6.311 13.562-1.424 4.287-2.434 8.991-2.252 13.457.201 4.978-2.832 6.021-6.17 6.859-14.897 3.74-25.09 13.989-34.312 25.207-5.875 7.146-8.012 15.767-7.265 25.29.881 11.224 2.184 22.63-2.646 33.465-.396.89-.821 1.766-1.848 2.499.635-3.811 1.744-7.615 1.797-11.434.09-6.641.149-13.387-.879-19.915-2.858-18.131 4.98-31.668 17.697-43.192 4.553-4.127 9.316-8.257 14.625-11.245 4.617-2.6 10.14-3.593 15.085-5.236 3.123-26.902 19.446-47.848 33.133-70.815-5.659-6.241-8.702-15.275-10.152-24.704-1.747-11.361-7.049-21.364-10.894-31.926-1.08-2.967-2.215-5.954-3.725-8.713-1.604-2.93-3.697-5.59-5.549-8.387-1.342-2.027-2.641-4.085-3.959-6.129l.586-1.483c2.248.119 4.65-.236 6.72.437 12.545 4.078 20.125 13.592 26.328 24.56 13.763 24.332 21.325 50.648 27.039 77.91 3.903 18.621 4.155 36.697 1.464 55.295-1.682 11.616-1.861 23.451-2.443 35.111 13.239-62.613 10.279-123.01-26.041-178.708 23.347 4.708 37.684 19.351 49.348 37.701 11.403 17.938 21.475 36.306 26.177 57.347 2.167 9.692 5.629 19.131 8.966 28.52 8.504 23.927 10.487 49.031 14.085 73.882 2.195 15.159 3.053 30.249.02 45.227-3.196 15.788-7.421 31.366-11.093 47.061-5.302 22.664-13.688 44.155-24.354 64.799-.805 1.557-1.336 3.255-1.033 5.351 5.272-9.717 10.906-19.258 15.749-29.185 13.335-27.332 20.511-56.331 24.722-86.447 2.598-18.574-1.163-36.445-1.688-54.641-.226-7.821-.348-15.683-1.266-23.437-.838-7.066-2.218-14.146-4.18-20.985-6.05-21.094-13.666-41.812-18.433-63.178-4.234-18.981-13.978-34.101-25.635-48.862-7.388-9.354-15.696-17.614-24.734-25.192-5.536-4.643-11.692-8.542-17.468-12.909-1.371-1.037-2.335-2.613-3.486-3.941l1.038-1.771c11.722 4.95 23.469 9.843 35.151 14.882 4.246 1.831 8.416 3.872 12.49 6.062 22.022 11.833 42.493 25.63 57.58 46.128.461.626.751 1.379.898 2.276-28.137-28.308-61.068-48.991-98.445-62.775 6.008 4.409 12.094 8.717 18.008 13.249 11.35 8.699 19.92 19.924 28.129 31.449 2.601 3.651 4.946 7.495 7.709 11.015 7.546 9.615 10.104 21.026 12.9 32.585 3.944 16.312 8.879 32.389 13.539 48.523 2.657 9.197 6.552 18.146 8.166 27.503 1.658 9.612 1.363 19.582 1.664 29.403.433 14.127.506 28.267.955 42.393 1.158 36.394-9.602 69.883-25.075 102.13-4.658 9.708-10.562 18.818-15.504 28.645 2.438-3.048 4.928-6.056 7.307-9.149 16.432-21.374 33.437-42.341 49.07-64.284 12.882-18.08 41.463-19.929 57.99-12.212 9.909 4.627 19.433 9.711 25.155 19.65 1.016 1.764 1.778 3.673 3.072 6.385-1.597-.532-2.24-.552-2.363-.814-5.955-12.806-17.935-17.634-29.808-22.66-9.858-4.173-20.228-4.369-30.399-2.736-7.967 1.278-14.034 6.959-18.914 13.168-11.722 14.913-22.783 30.351-34.655 45.14-9.16 11.41-18.979 22.31-28.848 33.125-4.053 4.441-9.003 8.065-13.813 12.299 4.01-9.881 7.718-19.852 12.062-29.537 7.426-16.553 15.506-32.812 19.959-50.545 4.535-18.062 9.555-36.009 13.761-54.146 1.525-6.576 1.488-13.547 1.856-20.354 1.104-20.427-1.96-40.497-5.457-60.52-.086-.492-.157-.988-.264-1.477-.782-3.614-1.071-10.095-2.447-10.335-5.488-.958-11.737-1.214-16.93.55-10.938 3.716-18.072 12.616-25.133 21.397-5.097 6.339-10.707 12.274-16.256 18.233-1.301 1.396-3.281 2.159-4.95 3.213 7.536-9.729 14.689-19.788 22.704-29.106 10.312-11.99 21.557-22.841 39.705-17.795.222.062.551-.26 1.095-.537-.359-1.374-.697-2.813-1.112-4.229-3.649-12.45-7.953-24.75-10.836-37.374-5.55-24.297-14.878-46.722-29.227-67.187-10.562-15.066-21.536-29.361-40.074-35.42 3.246 5.872 7.205 11.492 9.612 17.712 5.087 13.147 9.339 26.616 13.981 39.938 3.571 10.249 5.441 20.774 5.219 31.634-.312 15.118-.394 30.25-1.161 45.346-.487 9.596-1.485 19.242-3.272 28.674-1.808 9.555-4.871 18.878-7.386 28.306zm-76.097-175.072l-3.409 3.019-.672-.533c2.531-6.473 4.76-13.086 7.68-19.38 3.029-6.53 4.689-12.567-1.869-17.662-2.928-.196-6.011-.403-10.306-.692-8.325 8.572-5.415 21.188-8.497 32.742-1.235-4.812-3.498-9.627-3.486-14.436.023-9.265.65-18.65 2.311-27.752 1.537-8.425 4.268-9.432 12.365-6.996 3.887 1.169 7.639 2.519 10.888-1.486.556-.684 2.212-.857 3.271-.692 19.836 3.102 39.652 6.322 59.485 9.446 10.656 1.679 21.457 2.665 31.967 4.987 9.834 2.173 19.388 5.639 29.029 8.648 5.23 1.633 10.587 3.069 15.528 5.364 7.766 3.604 15.222 7.873 22.822 11.833 5.164 2.689 10.525 5.051 15.48 8.078 4.711 2.879 9.007 6.435 13.488 9.688.809.587 1.579 1.259 2.462 1.707 20.519 10.417 34.473 28.56 51.098 43.535 16.97 15.286 30.116 33.949 43.358 52.292 14.679 20.333 27.777 41.807 41.529 62.807.691 1.056 1.056 2.326 1.572 3.496l-1.347.927c-3.972-4.03-8.076-7.939-11.885-12.118-5.576-6.12-13.594-8.153-21.247-5.019-11.363 4.652-19.332 12.438-23.709 24.173-6.246 16.746-7.902 33.691-5.932 51.502 1.697 15.33 1.718 30.968-3.153 45.947-1.598 4.915-4.699 9.341-7.824 15.357-.344-5.512-.698-9.552-.832-13.599-.81-24.401-8.253-47.385-14.617-70.655-6.387-23.353-15.954-45.492-24.032-68.19-5.674-15.943-12.674-30.946-20.798-45.567-9.306-16.745-20.473-32.264-32.375-47.255-.494-.622-.935-1.285-1.4-1.93l.885-.861c2.824 2.979 5.778 5.845 8.451 8.953 21.199 24.651 36.526 52.56 46.958 83.35 4.104 12.111 10.394 23.498 14.284 35.664 6.116 19.126 11.013 38.641 16.491 57.973 1.886 6.653 3.971 13.251 5.964 19.874l1.79-.422c-2.005-9.48-3.574-19.08-6.13-28.409-2.808-10.247-6.626-20.214-9.816-30.361-3.028-9.629-5.797-19.339-8.718-29.002-1.004-3.321-1.938-6.683-3.221-9.899-5.853-14.664-11.235-29.557-17.929-43.832-5.251-11.2-12.001-21.719-18.418-32.34-3.601-5.959-7.99-11.435-11.826-17.26-10.24-15.55-22.851-28.913-36.826-41.146-9.237-8.086-17.659-17.146-28.605-23.082-5.11-2.771-10.445-5.142-15.464-8.061-8.864-5.155-17.563-10.593-26.332-15.912l.221-1.597c1.931-.328 3.969-1.229 5.775-.892 13.227 2.472 26.609 4.469 39.528 8.091 8.57 2.403 16.232 7.889 24.704 10.835 11.208 3.899 20.505 10.871 30.452 16.843 4.973 2.985 10.018 5.855 15.108 8.634 1.229.67 2.769.766 5.021 1.346-9.401-8.402-18.59-15.242-29.527-19.8-7.321-3.05-14.068-7.477-21.072-11.287-.729-.396-1.414-.914-2.187-1.181-12.082-4.176-23.929-9.398-36.321-12.222-19.073-4.345-38.499-7.182-57.822-10.382-13.061-2.163-26.19-3.928-39.315-5.673-2.029-.27-4.854-.224-6.189.951-5.354 4.71-10.443 2.887-15.701.249-.686-.344-1.309-.812-2.179-1.359-6.968 9.929-6.188 21.266-7.009 32.241 1.119-4.642 1.643-9.544 3.529-13.85 1.829-4.177 5.059-7.739 9.135-11.647.148 1.366.35 2.729.427 4.101.065 1.166-.013 2.341-.028 3.512 1.246-.05 2.56.135 3.721-.204 1.851-.539 3.6-1.427 5.535-2.228 1.253 2.088 2.428 4.267 3.812 6.303 2.494 3.669 2.611 7.484.82 11.38-2.572 5.595-5.337 11.102-7.877 16.711-.605 1.338-.645 2.932-.945 4.408l-.097-.096zm266.16 276.104c.149-.51.961-2.041.999-3.591.367-15.074 1.812-30.25.586-45.204-1.661-20.266.412-39.578 8.912-57.979 7.771-16.825 23.138-24.21 39.125-19.512.22.064.529-.176 1.328-.47-11.161-15.512-22.328-30.812-33.262-46.276-18.334-25.929-40.473-48.571-61.911-71.807-4.362-4.729-9.385-9.102-14.795-12.554-9.766-6.231-20.113-11.543-30.107-17.425-12.989-7.645-25.815-15.578-40.065-20.776-1.865-.681-3.737-1.363-5.647-1.897-10.244-2.865-20.492-5.72-30.76-8.502-5.428-1.471-10.896-2.786-16.346-4.171l-.502 1.396c7.322 4.447 14.55 9.062 21.998 13.287 5.922 3.357 12.727 5.431 18.065 9.488 12.826 9.747 25.448 19.859 37.322 30.731 7.975 7.301 15.004 15.789 21.591 24.408 6.953 9.1 13.151 18.816 19.188 28.567 8.562 13.833 17.471 27.52 22.214 43.354 1.376 4.593 3.4 8.993 5.145 13.475 5.119 13.158 10.503 26.22 15.281 39.5 3.145 8.74 5.429 17.791 8.085 26.706 2.412 8.101 5.18 16.119 7.102 24.336 1.847 7.895 3.181 15.954 4.068 24.016 1.16 10.536 1.661 21.145 2.386 30.9zm41.388-145.122c-19.267-31.904-40.152-62.54-68.997-86.813 24.437 27.79 49.454 55.118 68.997 86.813zm-385.747-107.458l5.507-3.043.82.686-5.267 9.645 11.132 4.585.213-.955c1.036.979 1.962 2.647 3.126 2.835 16.028 2.577 33.893 26.94 34.785 40.344.232 3.485.52 6.971.904 10.443 1.562 14.094-4.677 25.141-13.584 35.193-3.188 3.597-6.244 7.308-8.834 10.348l17.143 1.102-.098-.111c-1.605.803-3.244 2.34-4.81 2.269-4.497-.203-8.966-1.057-14.407-1.783 2.58-4.212 4.879-8.159 7.373-11.979 2.002-3.062 4.345-5.901 6.356-8.957 16.097-24.452 3.804-58.566-20.392-71.108-4.457-2.31-8.682-3.335-13.915-.33-4.254 2.443-9.85 2.526-14.827 3.751-1.697.417-3.323 1.124-4.981 1.699l-.213 1.709c1.97.637 3.939 1.274 6.701 2.169 1.894 5.385 5.436 10.084 12.569 12.031 4.404 1.202 7.951 10.207 7.162 14.908-.941 5.614-3.628 10.135-7.857 14.076-10.459 9.745-22.345 17.176-35.09 23.531-9.939 4.957-14.301 14.146-17.409 24.424-3.875 12.814-4.181 25.475-.719 38.291.776 2.872 1.647 5.821 3.083 8.396 5.004 8.973 6.631 18.64 7.25 28.755 1.093 17.839 4.42 35.22 12.826 51.319-7.99-9.784-12.268-21.137-14.411-34.488-7.051 8.992-12.248 17.785-15.642 27.53-4.292 12.32-7.202 24.999-7.244 38.104-.015 4.673 1.002 9.412 2.146 13.972.217.866 3.361 1.693 4.95 1.407 9.361-1.686 16.352-6.989 21.549-14.863 2.087-3.161 4.671-6.026 6.491-9.323 1.02-1.847.94-4.301.527-6.783l-18.672 21.621-.77-.599c6.214-8.762 13.039-17.163 18.47-26.385 5.506-9.351 9.635-19.512 15.268-29.154-12.824 22.867-13.364 46.648-5.901 71.936-.922-1.059-1.292-1.42-1.586-1.836-.366-.519-.668-1.082-1.137-1.854-4.991 6.751-9.677 13.402-14.696 19.793-5.242 6.674-10.951 12.98-16.198 19.65-18.122 23.037-30.528 48.688-28.081 78.538 2.522 30.771 12.337 58.786 40.637 76.346 6.989 4.337 14.108 8.464 20.736 12.431-6.831-1.161-13.781-3.709-19.897-8.404-2.493-1.913-4.892-3.985-7.548-5.64-12.709-7.915-20.245-19.697-26.246-33.072-6.879-15.332-9.705-31.096-9.889-47.881-.193-17.558 3.839-33.622 12.236-48.756 4.585-8.264 9.574-16.304 14.507-24.658-6.233-5.547-5.191-12.402-2.274-19.096 2.248-5.157 5.375-9.931 8.109-14.876.87-1.574 1.733-3.151 3.222-5.859-3.398.933-5.655 1.679-7.967 2.16-5.752 1.198-8.42-.79-9.119-6.474-3.084-25.064 2.601-48.248 14.94-70.016.492-.868.872-1.982 1.633-2.488 8.486-5.639 6.014-13.874 5.424-21.78-.735-9.839-2.569-19.274-7.304-28.118-2.001-3.737-2.878-8.075-4.459-12.708-8.304-1.907-15.968-.362-21.86 7.604 14.031 1.802 21.818 11.843 29.074 22.541-3.13-2.825-6.426-5.488-9.354-8.509-5.659-5.836-12.888-8.729-20.316-11.267-.804-.274-2.12.269-2.931.823-2.443 1.672-4.754 3.536-7.195 5.386 3.395 13.998.836 19.932-12.842 27.394 1.397-1.424 2.641-3.053 4.217-4.239 8.491-6.388 9.744-11.181 5.735-20.664-1.126-2.663-1.3-5.729-1.092-8.928l3.099 5.16c3.35-2.95 6.688-5.568 9.646-8.561 6.475-6.552 13.055-12.545 22.338-8.899 1.019-11.337 2.001-22.27 3.02-33.597-4.179 2.617-7.065 6.111-7.916 10.847-2.458 13.676-10.977 20.939-23.796 25.283-8.802 2.982-16.947 8.024-25.18 12.522-4.823 2.635-6.312 7.437-6.408 13.41 4.814-4.741 9.202-9.063 13.59-13.385l1.807 1.228c-4.7 5.982-9.398 11.967-7.424 20.54 1.729-3.962 2.836-7.931 5.071-11.105 1.458-2.073 4.96-4.551 6.824-4.067 2.851.741 5.769 3.7 4.884 7.579-.842 3.692-2.368 7.229-4.241 10.654.934-5.713 5.104-11.354-1.379-16.807-7.052 7.288-9.495 16.647-11.415 26.254l-1.408-.097-1.875-20.315-.943-.265-4.416 13.179-.752-.013c0-6.414-.553-12.893.174-19.223.59-5.14 4.127-9.045 8.837-11.461 8.402-4.31 16.842-8.548 25.306-12.735 4.874-2.411 10.697-3.536 12.882-9.723l-.355 2.611.936.558 5.503-8.916-1.704-1.619-12.354 9.801c.701-5.53 7.623-11.817 13.596-11.538 1.356-3.477 2.228-7.136 4.138-10.134 1.4-2.196 4.157-3.533 6.324-5.235 1.539-1.208 3.104-2.386 4.8-3.687-31.442-10.138-55.386-28.244-71.898-55.345-10.515-17.259-17.259-36.145-15.401-56.897.677-7.563 2.79-14.998 4.261-22.479l-.125-.104c.225 5.742 1.79 11.838.388 17.15-2.711 10.274-2.167 20.488.841 29.934 4.874 15.303 10.085 30.811 20.51 43.572 3.93 4.812 8.226 9.631 13.249 13.183 13.153 9.3 26.634 18.168 40.325 26.66 6.016 3.731 6.429 2.419 10.445-3.178 3.765-5.248 8.6-10.124 13.915-13.78 10.251-7.05 21.245-13.012 31.763-19.688 2.456-1.559 4.588-3.931 6.274-6.344 6.444-9.231 3.114-18.116-8.228-23.396-3.427-1.596-7.523-1.829-11.349-2.469-3.075-.514-4.556.768-3.413 3.983.655 1.842 1.495 3.618 2.319 5.586-6.011.819-7.873-4.781-11.135-8.198l7.422 4.628-3.102-12.158 18.277 6.576c-2.133-3.453-3.642-6.159-5.444-8.654-.55-.762-2.028-.782-2.868-1.421-1.583-1.204-3.01-2.611-4.502-3.934 1.405-1.429 2.591-3.669 4.26-4.119 3.643-.982 7.547-.947 11.312-1.531 2.787-.432 5.524-1.184 8.245-2.466-5.39.567-10.559 1.157-13.043-3.144l-17.563 3.423c5.085-5.923 10.845-10.552 13.752-16.562 3.373-6.969 9.761-9.661 14.729-14.322l7.564-6.545-1.521-1.736-7.981 6.334c-4.763.369-8.252 2.318-10.459 6.908-2.671 5.553-4.996 11.778-11.153 12.49 2.758-4.534 6.038-9.622 8.999-14.889 2.44-4.339 5.822-6.328 10.741-7.699 4.711-1.312 8.842-5.004 12.969-8.006 2.746-1.998 5.036-4.621 8.555-6.449-.396 1.232-.602 2.573-1.225 3.678-2.002 3.543-4.417 6.871-6.194 10.516-2.948 6.048-8.092 9.415-13.65 12.598-2.734 1.566-4.983 3.979-7.452 6.009l.643 1.276c1.669 0 3.339 0 4.998.004-6.468 1.792-10.461 6.714-14.654 11.474 2.019-.347 3.802-1.378 5.684-1.608 1.773-.217 4.127-.207 5.395.775 4.449 3.447 4.312 3.623 9.852 2.399-4.472-2.259-9.136-4.615-13.537-6.839 1.171-.556 3.25-1.204 4.889-2.438 1.092-.827 1.569-2.48 2.325-3.763zm-26.306 268.887c-5.641 7.195-11.64 14.306-16.988 21.877-3.11 4.402-5.194 9.534-7.706 14.355-2.524 4.846-5.375 9.565-7.397 14.614-1.792 4.473.377 8.039 4.352 11.116.3-13.854.446-14.491 3.227-17.15-.545 3.668-1.205 8.11-1.992 13.412 7.218-3.352 5.581-9.454 7.72-14.556l.374 6.146c7.846-4.16 4.898-10.958 4.969-17.172l2.57 8.533c5.076-7.079 9.6-13.211 13.861-19.519.65-.962.091-2.741.091-5.42-5.054 6.235-9.114 11.243-13.174 16.251 1.349-3.83 2.888-7.834 5.672-10.567 6.742-6.617 6.77-14.083 4.421-21.92zm-325.396-122.276c1.666-7.083 2.866-14.314 5.081-21.222 7.936-24.747 20.011-47.73 34.063-69.286 15.597-23.926 33.02-46.63 56.24-64.363 13.035-9.955 25.849-19.986 41.015-26.333 5.46-2.284 11.688-2.673 17.471-4.268 12.666-3.492 25.271-7.204 37.902-10.824.907-.26 1.817-.506 3.102.104-6.286 3.235-12.527 6.561-18.867 9.688-14.142 6.977-27.299 14.954-36.755 28.282-4.492 6.332-11.093 11.125-16.287 17.014-6.045 6.854-11.641 14.106-17.35 21.252-9.65 12.078-15.565 26.048-19.156 40.859-5.426 22.387-13.913 44.314-11.979 67.979 1.057 12.938 2.259 25.88 3.933 38.75 1.986 15.272 5.085 30.413 6.716 45.716 1.733 16.259 7.413 31.344 13.048 46.314 4.95 13.151 12.047 25.51 18.458 38.086 1.675 3.286 4.326 6.074 6.529 9.092l1.039-.658c-1.537-3.398-2.899-6.89-4.643-10.179-5.992-11.303-12.793-22.236-17.968-33.896-3.8-8.561-5.821-17.966-8.121-27.124-2.868-11.419-5.636-22.898-7.64-34.49-1.581-9.144-2.23-18.48-2.783-27.762-1.011-16.953-2.133-33.924-2.312-50.896-.229-21.675 5.481-42.384 11.884-62.905 6.078-19.482 17.272-35.908 30.45-51.097 4.896-5.644 11.202-10.146 15.656-16.075 12.729-16.948 31.379-25.818 48.554-36.682 4.403-2.785 9.696-4.165 15.035-5.35-1.403.835-2.83 1.633-4.205 2.511-13.862 8.849-28.744 16.471-41.297 26.896-14.131 11.736-26.361 25.812-39.056 39.215-16.546 17.468-22.542 40.032-28.946 62.281-1.962 6.816-3.156 13.854-4.512 19.937 4.017-.952 7.54-2.354 11.126-2.545 20.846-1.113 38.007 5.985 51.089 22.775 7.869 10.099 16.521 19.588 24.811 29.359.578.682 1.075 1.431.736 2.921-2.776-2.929-5.569-5.842-8.324-8.79-7.96-8.518-15.982-16.979-23.837-25.593-12.146-13.318-27.532-18.727-45.14-18.693-6.648.013-10.716 4.268-10.969 10.864-1.181 30.859.74 61.485 5.234 92.075 3.562 24.243 9.38 47.779 20.02 69.733 6.782 13.994 15.901 26.856 23.995 40.213.851 1.403 1.862 2.71 2.407 4.316-19.156-12.784-38.481-25.169-48.458-47.218-2.65-5.855-6.298-11.28-9.737-16.746-1.023-1.626-2.779-2.884-4.401-4.021-4.947-3.468-4.985-3.413-4.249-8.747-8.064-5.729-15.969-11.392-21.612-19.591l-.073.096c2.094.818 4.608 1.156 6.2 2.548 4.128 3.608 7.732 7.811 11.799 11.496 1.372 1.244 3.504 1.651 5.289 2.44 1.179.4 1.786 2.36 1.066 3.409-2.252 3.283-.21 4.496 1.983 6.385 3.077 2.649 6.184 5.509 8.402 8.858 4.862 7.341 8.814 15.294 13.819 22.525 4.315 6.232 9.574 11.812 14.416 17.681l1.456-1.032c-.479-1.326-.892-2.682-1.447-3.976-6.419-14.955-13.117-29.799-19.187-44.895-3.029-7.531-5.034-15.488-7.276-23.317-1.001-3.498-1.65-7.131-2.109-10.746-2.323-18.293-4.232-36.645-6.865-54.892-2.53-17.54-4.996-35.224-1.539-52.657 3.739-18.86 9.328-37.362 14.342-55.958 3.588-13.304 11.046-24.509 20-34.771 10.05-11.518 20.94-22.396 30.064-34.6 7.757-10.375 17.657-17.374 28.385-23.785.955-.57 1.792-1.34 3.526-2.658-5.597 1.555-10.09 2.727-14.537 4.055-7.621 2.277-15.482 4.022-22.758 7.125-12.829 5.47-23.233 14.684-34.122 23.249-20.87 16.418-38.425 35.879-53.351 57.55-13.426 19.492-23.494 40.963-32.216 62.99-4.198 10.603-8.249 21.266-12.366 31.9l.109.102zm336.045 354.904c19.967-1.483 38.395-2.425 56.724-4.322 21.867-2.265 40.777-11.364 56.559-26.801 2.969-2.903 6.143-5.595 9.171-8.438 11.146-10.463 19.128-22.563 18.572-38.558-.81-23.29-19.013-44.7-41.794-48.357-6.032-.969-12.651.291-18.771 1.602-12.271 2.626-23.627 7.261-30.202 19.046-1.905 3.415-3.282 7.125-3.909 11.28 2.48-2.888 4.672-6.101 7.488-8.611 22.979-20.489 52.616-21.689 72.975 5.014 9.228 12.104 8.094 29.495-1.18 41.392-3.975 5.097-7.145 10.862-11.4 15.688-9.238 10.471-20.684 17.739-34.279 21.342-22.127 5.864-44.368 10.448-67.475 4.867 1.304-.16 2.604-.392 3.913-.461 1.495-.08 2.998-.054 4.496-.009 20.347.616 40.12-3.055 59.46-8.818 21.066-6.278 35.862-20.548 46.262-39.431 6.85-12.436 1.803-31.195-10.327-40.993-18.969-15.322-40.427-14.754-58.804 1.91-5.115 4.638-9.514 10.065-14.129 15.011-1.291-15.444 9.327-29.187 19.617-33.875 12.357-5.631 25.002-6.833 37.959-6.546 10.959.243 20.338 5.815 27.492 13.539 13.554 14.631 20.789 32.036 13.096 51.708-3.643 9.312-11.041 17.172-16.867 25.6-1.111 1.606-3.023 2.641-4.238 4.194-13.746 17.578-32.847 26.752-53.721 31.25-15.952 3.437-32.51 5.413-49.102 3.222-2.918-.385-5.951.188-8.909-.007-2.514-.167-4.995-.805-8.677-1.438zm22.83-324.906c4.414 4.592 8.96 9.065 13.205 13.81 4.473 5 2.639 10.628.92 16.073-2.139 6.77-1.775 13.205 1.684 20.363 2.574-5.956 4.943-11.441 7.312-16.926l1.26.248c.088.994.372 2.016.232 2.978-1.426 9.871-2.957 19.729-4.343 29.605-.14.998.382 2.137.755 3.152 5.724 15.575 4.744 29.627-8.728 41.229-9.737 8.388-12.207 20.509-16.419 32.558l5.702-1.281c-1.657 6.607-3.303 11.969-6.858 17.742-3.569 5.797-8.29 7.564-13.525 10.879l-2.486-7.004-6.755 2.162c-2.097-4.014 3.916-7.481-.563-12.004-5.863 8.962-12.197 16.979-16.738 25.907-11.786 23.17-19.734 47.539-14.027 73.872 2.032 9.376 6.765 18.337 11.297 26.942 3.287 6.241 8.591 11.385 12.412 17.389 3.7 5.813 9.093 8.523 15.303 10.292 1.569.447 3.161.812 4.743 1.215l-.262 1.438c-2.761-.639-5.739-.816-8.245-1.996-10.315-4.859-17.408-13.441-23.291-22.681-4.875-7.657-9.209-16.005-11.854-24.639-2.579-8.417-3.861-17.604-3.708-26.419.491-28.387 12.538-52.986 27.005-76.595.76-1.24 2.091-2.12 2.943-3.318 1.217-1.711 2.271-3.541 3.334-5.354 2.054-3.502 3.805-7.218 6.175-10.487 2.119-2.922 4.902-5.361 7.952-7.84-1.324 2.282-2.529 4.646-4.003 6.826-1.861 2.752-4.062 5.277-5.873 8.06-.771 1.186-1.402 2.822-1.267 4.17.422 4.186 1.241 8.331 2.123 13.846l4.392-11.225 1.186 12.699 1.947.29c1.34-5.254 2.681-10.507 3.964-15.535v14.602l.834.544c.961-2.154 2.194-4.232 2.833-6.479 1.718-6.05 2.765-12.318 4.842-18.231 3.4-9.681 7.687-19.051 11.074-28.735 3.147-8.997 6.209-18.104 8.218-27.398 2.439-11.292 3.736-22.832 4.705-34.624l-10.009 15.119-1.032-.649c1.923-3.535 3.975-7.01 5.69-10.643.517-1.094.62-2.948.027-3.907-3.245-5.253-3.569-10.956-3.175-16.839l-.082.118c.777-4.302 1.885-8.584 2.156-12.919.095-1.527-1.581-3.478-2.922-4.727-4.725-4.405-8.987-9.016-9.957-15.759l-.103.086zm12.397 108.677c9.076-8.83 12.217-24.836 7.28-36.509"/><path d="M302.748 28.157c-13.429 14.688-26.081 28.946-32.07 47.485-5.507 17.047-10.651 34.013-10.029 52.544.465 13.843-2.402 27.794-3.732 41.702-1.553 16.244.944 32.212 3.678 48.113 1.392 8.095 3.604 16.049 6.233 24.103 1.331-10.343 8.466-16.271 15.487-22.025 7.488-6.139 16.606-9.263 26.067-8.294 11.768 1.203 22.55 5.959 31.9 13.557-13.435-6.188-26.864-12.73-42.251-9.178-15.618 3.607-25.232 13.942-29.767 29.428l-1.695-.062c-1.407-3.25-3.3-6.381-4.124-9.772-2-8.227-3.459-16.583-5.218-24.87-3.211-15.127-3.078-30.453-2.275-45.737 1.001-19.074 1.367-38.314 4.311-57.122 4.52-28.88 14.35-55.762 37.751-75.522 1.385-1.17 2.61-2.527 3.942-3.764.211-.197.592-.206 1.792-.586zm80.203 73.792c1.982-1.033 3.884-2.713 5.963-2.972 4.744-.589 7.617-3.394 7.823-7.545.125-2.533-2.429-5.199-3.78-7.805l-1.254.381-1.745 9.99v-13.324l1.422-.283c2.164 2.401 4.328 4.804 6.849 7.604 3.893-7.79 4.464-15.843 4.779-23.909.233-5.986-.193-12.083 3.956-17.116 1.305-1.584 2.815-2.999 4.232-4.491 9.141-9.62 19.257-18.56 21.779-32.65.35-1.952 1.792-3.709 3.565-5.216-2.324 17.068-3.225 34.583-18.667 47.983 10.374-.877 14.517-7.543 18.943-13.966-.423 13.464-7.917 21.986-18.088 28.768l12.609-15.954-.869-.979c-3.883 2.223-7.973 4.166-11.549 6.804-1.456 1.073-2.249 3.583-2.568 5.564-1.188 7.376-1.943 14.821-3.098 22.203-.454 2.903-1.534 5.708-2.329 8.558l-1.582-.297c2.207-13.602 3.844-27.333 6.916-40.736 1.146-5.001 5.723-9.185 8.582-13.835 2.05-3.336 3.845-6.828 5.114-10.589-7.369 6.676-14.803 13.283-22.03 20.107-.955.901-1.318 2.954-1.186 4.402 1.712 18.72-2.709 35.687-14.57 50.391-2.409 2.987-5.9 5.103-9.57 6.978 2.659-2.972 5.317-5.943 8.435-9.429-3.154.479-5.678.863-8.202 1.248l.12.115zm102.738 86.683c27.078-12.585 45.613-33.259 57.283-60.451 3.068-7.149 7.412-13.994 9.086-21.447 3.033-13.513.966-27.24-2.514-40.474-2.846-10.826-6.974-21.315-10.1-32.322 3.391 6.444 7.435 12.637 10.039 19.384 6.049 15.676 8.861 32.124 7.428 48.877-.549 6.417-3.25 12.853-5.951 18.837-4.23 9.373-8.507 18.903-14.238 27.368-5.246 7.748-12.12 14.51-18.886 21.079-5.793 5.625-12.097 10.907-18.862 15.275-3.719 2.4-8.857 2.601-13.369 3.777l.084.097zm-219.788 47.506c-.9-7.343-2.158-14.662-2.627-22.031-.981-15.43-2.551-30.917-2.059-46.323.83-25.983.828-52.241 9.62-77.246 5.181-14.733 10.126-29.667 20.671-41.788 1.461-1.68 2.841-3.431 4.922-4.607-11.055 12.933-15.711 28.804-21.346 44.154-5.88 16.02-9.528 32.559-10.132 49.668-.616 17.468-1.135 34.939-1.557 52.413-.067 2.792.666 5.595.911 8.403 1.084 12.394 2.125 24.791 3.182 37.187l-1.585.17zm191.925 51.121l-4.275-10.363-2.983 17.792c-1.303-2.201-2.23-3.156-2.445-4.251-.541-2.766-.813-5.589-1.099-8.398-.601-5.9-4.565-8.942-9.554-11.303-7.34 3.873-6.229 12.267-9.475 18.338l-1.555-.038c-.13-8.201-.427-16.406-.226-24.599.033-1.354 2.068-2.914 3.502-3.913 1.812-1.262 3.958-2.045 6.187-3.146-7.959-13.873-14.616-27.521-15.813-42.986l1.625-.594c.544 1.39 1.283 2.735 1.602 4.175 2.736 12.361 6.225 24.438 13.17 35.21.726 1.126 1.992 1.903 3.803 3.577-2.465 1.649-4.919 4.007-7.843 5.053-3.133 1.121-3.649 3.301-3.964 5.812-.423 3.369-.567 6.773-.407 10.314 2.45-4.854 4.537-10.773 10.905-9.84 6.02.883 9.276 5.911 11.509 11.571l-6.642-18.237 1.188-.659c1.344 2.132 2.635 4.301 4.045 6.389 2.177 3.222 4.972 6.153 6.504 9.646 1.41 3.216 1.501 7.01 2.165 10.56l.076-.11zm-67.336-282.176c2.672 6.208 6.315 12.01 7.558 18.287 1.318 6.656 1.806 14.157.065 20.588-2.96 10.938-2.398 21.338.252 31.975.24.964.38 1.957.487 2.945.052.479-.079.979-.871 1.65-1.902-7.309-4.361-14.533-5.479-21.96-.582-3.867.991-8.14 1.957-12.142 2.405-9.968 4.286-19.874-1.292-29.782 0 2.147-.165 4.311.028 6.44.876 9.685-1.899 18.47-6.641 26.706-2.61 4.535-3.137 8.524-1.522 13.994 2.215 7.501 2.319 15.691 2.743 23.618.146 2.739-1.454 5.573-2.583 9.5 0-8.593.331-15.833-.133-23.021-.249-3.853-1.541-7.741-2.95-11.387-1.588-4.106-2.159-7.966.024-11.947.56-1.022 1.063-2.084 1.711-3.048 7.536-11.199 8.327-23.589 6.495-36.453-.234-1.647-.422-3.304-.574-4.961-.018-.21.318-.456.725-1.002zm-65.732 59.495c-4.812 1.222-6.913-2.992-10.01-5.104-2.53-1.726-4.777-3.867-7.161-5.834l.113.095c-.643-2.115-1.272-4.219-1.901-6.322l-2.229.19c-1.493 12.616-3.024 25.228-4.452 37.851-.325 2.873.39 5.735-3.39 7.407-2.645 1.17-2.679 4.045-.521 6.318 10.124 10.665 13.791 24.652 18.993 37.871-3.212-5.868-6.388-11.757-9.648-17.599-3.561-6.38-7.151-12.745-10.826-19.061-1.866-3.207-2.611-5.962.946-8.719 1.182-.916 1.838-3.024 1.998-4.66.712-7.281.786-14.642 1.818-21.869.789-5.525 2.794-10.866 4.009-16.344.713-3.217.924-6.543 1.388-9.816.305-2.15.659-4.294 1.988-6.651-.559 15.165 6.875 25.186 19.021 32.392l-.136-.145zm257.685 163.463c-5.104-2.992-10.209-5.98-15.309-8.978-10.943-6.43-22.244-6.148-32.664.267-13.722 8.449-28.337 15.876-39.019 28.614 2.14-6.402 6.696-10.967 11.847-14.786 7.605-5.637 15.292-11.255 23.428-16.061 12.986-7.672 26.346-8.556 39.376.265 4.502 3.047 8.823 6.361 13.228 9.554l-.887 1.125zm-96.239 39.797c-1.097-8.834-1.491-17.829-3.481-26.458-2.158-9.362-5.622-18.447-8.861-27.529-2.129-5.966-5.293-6.892-11.145-4.715-3.271 1.217-6.838 1.637-9.716 2.289l4.068-27.068c2.581 7.087.909 15.148-.838 24.482 3.802-1.228 7.463-1.744 10.329-3.532 2.572-1.605 4.301-1.385 6.029.436 1.798 1.893 3.826 3.886 4.758 6.231 6.502 16.376 10.484 33.303 10.128 51.055-.032 1.603-.479 3.197-.732 4.795l-.539.014zm-163.413-112.727c10.86 9.26 21.227 18.966 28.568 31.428.331.561.825 1.04 1.301 1.498 9.655 9.309 9.517 21.442 1.534 35.723.942-5.178 2.56-10.667 2.74-16.203.128-3.924-.595-8.717-2.821-11.729-9.548-12.914-19.803-25.306-29.768-37.913-.656-.831-1.042-1.876-1.553-2.82l-.001.016zm15.773-99.766c0-7.439.155-14.885-.146-22.312-.053-1.311-2.204-3.758-3.048-3.62-5.701.933-11.312 2.42-17.224 3.791l.875-3.668 18.682-2.14 3.691-5.385v24.42l1.245.108c.662-11.097 1.323-22.192 1.984-33.289l2.012.291c.598 14.469.69 28.858-8.071 41.804zm-304.337 150.335l4.178 1.729c-1.514-14.767 8.515-25.358 13.083-37.944-1.519 12.336-10.728 22.557-10.004 35.743 4.725-1.014 6.17.978 5.486 3.937-2.812 0-5.193.001-7.574-.001-2.539-.002-5.165.113-5.074-3.589l-.095.125zm483.814-151.657c.688-1.062 1.224-2.271 2.086-3.164 8.385-8.692 12.061-19.315 12.707-31.125.076-1.39-.914-2.838-1.823-5.446 1.566 1.106 3.273 1.647 3.615 2.653 4.185 12.299-4.487 31.336-16.681 36.986l.096.096zm-65.842 272.374c.152 14.674-6.253 28.435-14.811 41.493 5.069-14.199 10.137-28.399 14.811-41.493zm-423.577-121.826c-1.759.355-4.062.706-2.409-2.117 6.945-11.868 14.116-23.604 21.242-35.366.493-.812 1.293-1.439 2.27-2.499-7.241 13.657-14.245 26.869-21.25 40.08l.147-.098zm454.605 56.34c-3.863-4.516-8.359-6.749-14.239-4.931-4.825 1.492-9.642 3.012-14.634 4.002 4.979-6.098 11.951-7.022 19.05-6.871 4.782.101 8.385 2.722 9.823 7.8zm-43.077-31.504l7.887-31.286c2.208 5.165-2.117 26.861-7.887 31.286zm-45.08-105.322c-6.508 6.761-12.445 14.189-22.264 18.276 13.206-14.601 17.524-18.305 22.264-18.276zm37.409 71.087c-1.293 8.644-2.587 17.287-3.852 25.732l-2.397-1.389c.528-1.269 1.188-2.226 1.31-3.247.681-5.684 1.086-11.405 1.923-17.063.229-1.547 1.625-2.922 2.484-4.375l.532.342zm15.192 169.308c3.677-9.085 7.354-18.171 11.296-27.91.935 11.646-5.446 19.627-11.348 27.797l.052.113zm-122.913-299.902l.135.145c-4.082-6.576-8.317-13.067-12.141-19.793-.972-1.71-.633-4.165-.882-6.16 4.529 8.294 8.899 16.274 13.227 24.278.278.514.248 1.201.318 1.812.014.118-.169.26-.261.39l-.396-.672zm52.295 55.758c-1.28 2.591-2.458 5.238-3.864 7.758-2.21 3.964-4.574 7.842-6.796 11.626-2.652-2.047-2.337-2.892 9.001-20.065l1.659.681zm22.419 1.265c6.264-4.146 12.076-8.476 9.354-17.773l2.202.286c.249 2.688 1.237 5.565.601 8.023-1.538 5.939-6.558 8.155-12.157 9.464zm-393.089 81.343h8.206c-2.398 2.566-4.478 4.935-6.766 7.082-.331.312-2.091-.184-2.429-.755-.574-.974-.945-2.41-.667-3.456.362-1.358 1.442-2.525 1.656-2.871zm440.639 51.029c-5.749-5.867-4.953-13.479-4.965-20.876 1.621 6.987 3.242 13.975 4.862 20.962l.103-.086zm-418.546-49.305c1.911.346 3.822.691 5.742 1.024l.104-.138c-5.652 2.091-11.33 5.164-16.972-1.141l2.996-2.374 2.862 4.8c1.587-.663 3.484-1.455 5.397-2.259l-.129.088zm294.316-49.574c-2.994 2.438-6.014.928-8.02-.981-1.089-1.037-.651-4.064-.328-6.104.418-2.644 1.408-5.195 2.152-7.787l1.356.179c-.291 2.185-.141 4.55-.952 6.52-2.645 6.423-1.4 8.341 5.791 8.195l.001-.022zm60.04-53.261c-.072.606.066 1.591-.248 1.766-4.851 2.706-6.35 7.286-6.935 13.523-1.187-9.2.208-11.812 7.304-15.17l-.121-.119zm.285 19.604c-.515-5.938 1.619-9.529 7.34-11.449l-7.34 11.449zm64.502 242.93c.133 6.501-4.717 9.646-9.203 13.037 3.096-4.29 6.191-8.58 9.271-12.897l-.068-.14z"/></g></svg>