<svg xmlns="http://www.w3.org/2000/svg" width="221.941" height="499.466" viewBox="0 0 221.941 499.466"><path fill-rule="evenodd" clip-rule="evenodd" d="M207.185 222.634l-1.146-.661-4.352 5.648-13.594-11.321c-10.76 10.915-21.439 27.06-28.124 41.022 0-1.612-.472-3.413.083-4.805 2.125-5.334 3.463-10.949 7.574-15.492 5.119-5.661 9.575-11.927 14.236-17.994 1.103-1.434 1.883-3.116 2.706-4.508l-1.56-5.42h5.269c3.591-7.711-6.031-9.141-6.759-15.065 2.893-3.222 4.355-6.999 1.818-11.522-.462-.823.315-2.342.689-4.521l7.827 5.033c4.584-6.255 6.365-14.771 13.224-19.525 5.11 2.076 2.424 6.059 2.766 9.2l7.547-4.25c2.069 6.552-1.489 11.03-3.393 16.491l9.844-2.684c.824 5.286-3.625 6.759-5.277 10.146l3.99 2.967c-.812 1.505-1.244 3.582-2.492 4.376-3.686 2.346-5.291 5.556-6.174 9.701-.361 1.703-2.432 4.009-3.982 4.231-1.682.24-3.665-1.629-5.518-2.578l.61-1.348 4.534.8c3.645-1.929 1.486-4.071-.31-6.542l8.967-6.113-.595-1.102-7.487 1.608-.679-1.259 8.939-8.712c-4.515-1.546-5.619 5.781-10.205 3.039 2.557-5.89 4.932-11.358 7.307-16.827l-1.544-.791c-5.55 4.128-8.161 10.34-10.964 16.168 1.326 3.821 4.104 7.28.486 11.32-1.215-2.883-1.618-6.354-3.441-7.439-1.703-1.014-4.912.506-8.303 1.043l-.525-9.3-1.289.08c.008 4.477-4.129 9.818 1.508 13.14 4.264 2.513 6.111 6.737 9.506 9.74.99.876 1.282 2.543 1.895 3.848l-1.09.82-7.098-4.707c-2.098 4.896-.148 7.897 8.94 14.312l4.705-5.559M217.542 217.027"/><path fill-rule="evenodd" clip-rule="evenodd" d="M205.271 168.392c-5.224 2.803-11.91 14.559-11.033 18.982.18.912 1.416 1.615 2.441 2.709 4.359-7.104 8.6-13.31 8.592-21.691zM153.81 126.821c-3.518 8.097-9.221 14.586-15.289 20.812-1.857 1.905-3.816 3.749-5.409 5.862-2.361 3.135-5.399 4.048-9.126 3.749-3.146-.253-6.313-.405-9.466-.338-4.158.09-5.014 1.954-3.901 5.825 1.679 5.84 5.297 8.428 11.233 8.346 1.282-.019 2.557.733 3.864.946 6.62 1.077 9.823 5.022 12.15 11.36 6.191 16.858 13.248 33.403 20.15 49.994.629 1.513 2.617 2.46 4.735 4.348-.282 1.4-.464 3.878-1.312 6.102-.934 2.446-2.678 4.574-3.695 6.997-.855 2.034-1.176 4.294-1.732 6.453l-1.775-.394c.426-2.133.584-4.364 1.332-6.377 1.685-4.54 1.91-8.796.002-13.472-6.848-16.777-13.379-33.684-20.05-50.533-.104-.266-.467-.429-1.382-1.227l-2.562 8.573-1.507-.239c.285-3.104.5-6.216.869-9.31.84-7.055.132-8.135-6.86-9.252-2.729-.437-5.52-.493-9.281-.806.315 4.569.42 8.482.913 12.346.308 2.416.281 4.271-2.916 5.044l-3.999-5.962c-2.983 1.725-5.787 3.346-9.175 5.304v93.18100000000001l-1.028.011c-1.891-35.578-.046-71.224-1.5-107.077-4.888-.674-8.076 3.979-13.782 5.726.656-2.14.94-3.455 1.454-4.673 2.103-4.98 4.275-9.932 6.377-14.788-15.021-12.061-33.303-17.706-45.65-32.465l-7.397 4.335-3.766-5.001c.209-.641.221-1.14.427-1.24 6.383-3.112 5.562-8.53 5.396-14.373-.302-10.62.404-21.268.66-31.904.062-2.597.009-5.197.009-7.827-7.513.462-8.98 2.031-9.056 8.344-.125 10.485-.448 20.968-.543 31.453-.046 5.142.05 10.301.466 15.421.135 1.66 1.206 3.466 2.336 4.788 8.879 10.386 17.868 20.693 29.598 28.062 4.222 2.652 8.631 5.003 12.902 7.578 1.926 1.162 4.22 2.252 3.114 5.678-10.615-4.845-20.047-11.22-28.608-18.642-8.529-7.395-16.281-15.686-24.622-23.826 0-15.901.011-31.508-.031-47.114-.002-.794-.457-1.586-.753-2.551l-3.685-1.119v-11.616l5.032-1.333 2.207-6.477 3.695 4.58c2.499-1.26 5.098-2.57 7.946-4.007l-1.572-5.685c5.039-6.482 10.139-13.044 15.239-19.606l-.982-.957c-.881.288-1.873.405-2.624.893-4.994 3.244-10.235 6.211-14.77 10.015-2.315 1.942-3.334 5.432-5.119 8.535-2.482-1.184-1.969-3.53-1.002-5.522.925-1.906 2.381-3.604 3.823-5.196 1.538-1.698 3.331-3.164 5.22-4.925-3.415-7.499-5.042-15.623-11.619-21.767-2.176 4.298.167 7.524.941 10.908.742 3.244 3.674 6.088 1.584 10.899-6.425-3.146-12.186-8.062-21.143-7.202 5.085 4.454 9.453 8.279 13.707 12.006-.222 3.551-2.431 3.274-4.691 3.089-5.539-.455-7.302-.065-11.582 2.473 3.182 4.121 8.576 1.95 11.575 5.012 2.642 2.752 5.285 5.504 8.458 8.808-1.957.576-4.141 1.463-6.409 1.836-4.194.688-8.439 1.059-12.658 1.602-.985.125-1.985.683-2.905.551-1.052-.15-2.625-.632-2.889-1.361-.364-1.003-.12-2.744.582-3.518 2.091-2.306 4.533-4.294 7.167-6.707l-9.148-5c3.927-6.105 10.153-5.199 15.601-7.817-1.461-1.3-2.812-2.318-3.938-3.543-2.112-2.297-4.254-4.601-6.04-7.143-.599-.853-.664-2.988-.055-3.562.859-.809 2.687-1.199 3.9-.914 5.477 1.284 10.883 2.87 16.955 4.521-1.173-3.403-2.498-6.229-3.058-9.198-.443-2.348-.398-4.997.236-7.29.917-3.313 3.221-3.898 6.208-2.04 3.933 2.447 5.498 6.514 7.134 10.551 1.663 4.102 3.465 8.146 5.355 12.562 3.451-1.869 6.23-3.311 8.943-4.867 1.922-1.103 4.348-2.721 5.666-.312.999 1.823 1.112 5.147.072 6.87-2.561 4.241-5.724 8.228-9.2 11.773-2.662 2.714-3.209 5.641-3.059 9.048.403 9.113.81 18.227 1.185 26.678-1.159 2.035-2.72 3.517-2.74 5.02-.118 8.775.125 17.557.252 26.722h6.303l-4.049 4.983c2.549 2.842 4.777 6.26 7.844 8.56 7.434 5.576 15.194 10.728 22.946 15.862 5.112 3.387 10.438 6.449 16.224 9.997l4.11-7.305 2.043.979c-.76-1.266-1.324-2.721-2.323-3.755-1.61-1.664-3.537-3.019-5.278-4.562-6.35-5.627-11.214-11.632-11.438-21.063-.228-9.59-2.273-19.144-3.628-28.698-1.179-8.316-1.605-8.603-11.743-8.616 2.506 2.664 4.679 4.59 6.361 6.877 1.505 2.047 2.984 4.372 3.551 6.791.847 3.612-2.145 4.773-5.679 5.776l4.569 2.24c-6.433 1.76-12.23-1.248-15.35-7.521-3.323-6.683-1.369-12.528 6.394-18.799l-5.8-10.987c-3.687-.662-3.411-4.028-2.992-8.037 1.057-10.1 4.066-19.522 8.759-28.454.685-1.305 1.463-3.159 2.596-3.523 4.381-1.408 5.808-5.191 7.806-8.597 3.486-5.939 9.255-9.219 15.236-11.623 5.461-2.194 11.458-3.051 17.212-4.52 1.704-.435 3.387-.946 5.136-1.439v-4.313c.612-.241 1.047-.482 1.511-.571.301-.058.68.036.962.181 11.617 5.978 24.274 10.17 34.172 19.1 2.711 2.445 4.359 6.049 6.598 9.044 2.494 3.338 4.453 7.255 9.223 8.776 3.65 14.704.387 29.25-1.943 43.829 6.148 6.019 4.096 17.465-7.969 26.475.498 4.454 1.002 9.229 1.576 13.995.295 2.447.479 4.768-2.665 5.521-.882-11.266-1.93-22.521-2.6-33.801-.632-10.635-.903-21.293-1.211-31.944-.028-.967.836-1.959 1.286-2.939l1.514.321c1.045 8.975-1.109 18.199.745 27.691l5.893-3.796c3.188-13.488 6.161-26.05 3.337-38.969-1.529 4.303-.992 9.19-4.545 13.304-1.284-1.694-2.321-3.062-3.463-4.566l-6.814 5.179-.729-.827c2.248-3.729 4.497-7.457 6.746-11.186l1.39-.327c.378.75.702 1.534 1.146 2.243.483.771 1.076 1.476 1.622 2.209l1.203-.199c0-2.405.199-4.831-.037-7.213-.725-7.309-3.696-10.741-10.59-10.658-4.123.049-8.225 1.896-12.338 2.931-.83.209-1.666.396-3.082.73 1.43-5.07 5.434-5.35 8.729-6.06 3.588-.773 7.356-.714 11.963-1.094-1.512-1.872-2.301-3.403-3.547-4.294-4.322-3.089-8.652-6.229-13.288-8.79-2.278-1.259-5.236-1.286-8.665-2.042l-7.024-7.608-2.929 3.508c-8.015 1.091-15.449 2.103-22.968 3.126.977 5.967 4.055 8.468 8.715 9.589 3.557.855 7.088 1.889 10.536 3.11 6.009 2.13 10.852 5.44 13.034 12.009 1.398 4.208 3.722 8.109 6.087 13.114 2.87-3.381 5.645-6.649 8.701-10.25 3.652 1.738 3.228 5.253 2.836 8.659-.311 2.709-1.214 5.036-5.081 5.145l1.872-7.704c-6.87 3.993-10.817 10.563-18.909 12.267.867-5.94 10.065-8.544 4.269-15.225-9.161 5.631-17.901 11.045-26.697 16.366-1.327.803-2.914 1.177-4.38 1.749l-1-1.162c2.332-4.613 4.664-9.226 6.995-13.839l-.673-1.097c-4.347.669-8.753 1.085-13.025 2.08-4.138.963-8.138 2.521-13.001 4.075 3.634-6.325 30.817-11.344 39.894-8.3-3.204.73-7.02.636-9.436 2.428-2.281 1.691-3.09 5.367-4.546 8.17l1.559 1.242c7.229-5.24 16.544-7.674 21.17-16.143-3.274-8.058-13.971-14.61-21.89-13.932l4.949 8.153-21.411 3.208.03.94 8.05 3.668c-7.388 1.12-13.532-1.335-15.08-5.899 7.419-1.3 14.778-2.59 22.636-3.966-3.66-6.033-6.719-11.077-10.037-16.547-6.99 2.275-12.416 6.808-16.449 13.2-2.126 3.371-3.67 7.716-6.724 9.719-2.838 1.86-4.301 4.1-5.326 6.694-2.719 6.89-4.775 13.991-4.468 21.865 2.577-.886 4.47-1.536 7.592-2.608l-2.651 9.513 5.382 10.295 5.691.978c-.2-2.41-.226-4.044-.487-5.64-.888-5.426-1.943-10.824-2.745-16.262-.22-1.492.224-3.082.362-4.628l1.797-.033c.856 5.068 1.712 10.137 2.774 16.419 1.144-2.092 1.669-3.033 2.177-3.984 3.363-6.311 6.648-12.665 10.131-18.909.973-1.743 2.174-3.877 5.807-2.361-7.108 9.158-13.699 18.276-14.881 29.916l.099-.121c-2.759.662-2.418 2.776-2.175 4.772 1.586 13.041 3.178 26.081 4.825 39.114.312 2.466.479 5.065 1.404 7.318 4.11 10.003 12.063 16.355 20.926 22.001 5.6 3.567 11.549 2.937 17.392 2.379 3.413-.326 7.12-1.815 9.882-3.872 6.85-5.104 12.26-11.628 16.528-19.111 1.049-1.839 1.692-5.223 5.342-3.609zm-50.344 28.05c-2.509 6.192-2.473 24.715-.067 28.966 6.1-8.002.713-17.176 3.277-25.177l-3.21-3.789zm52.305-51.875c6.984-5.192 9.254-11.641 6.117-17.59l-5.07 2.101 1.296 2.875-4.011 5.524c3.621 1.526 2.682 4.153 1.668 7.09zm-87.434-6.992l-6.99-6.581c-3.305 5.596-2.104 10.235 3.671 14.056l3.319-7.475zm31.107 76.405l-2.956-9.607-1.607-.235c-1.664 4.044-3.327 8.089-4.99 12.133l1.023.715c2.455-.867 4.911-1.731 8.53-3.006zm8.091 9.309l5.489 1.745-1.509-9.911-1.822-.115-2.158 8.281zm-100.301-118.068l.38 1.561c2.848-.868 6.424.12 8.383-3.011l-.554-1.512-8.209 2.962zM73.826 179.173c0 9.073-.035 17.497.008 25.92.067 12.972.25 25.942.23 38.913-.004 2.423-.815 4.834-1.113 7.268-1.274 10.4-2.683 20.792-3.567 31.228-.164 1.941 1.534 4.335 2.938 6.06 4.201 5.158 8.664 10.104 13.074 15.09.627.708 1.532 1.17 1.861 1.414 6.509-5.563 12.769-10.916 19.207-16.42 2.724 4.538 5.991 9.98 9.257 15.423l1.668-.067c1.911-5.264 3.732-10.562 5.771-15.775 1.002-2.562 3.353-4.932 3.442-7.447.2-5.595.414-11.572-1.291-16.767-2.847-8.673-2.231-17.406-2.214-26.098.017-8.122 1.452-16.234 2.05-24.366.304-4.131.017-8.304.24-12.444.111-2.059.771-4.088 1.544-5.995 8.242 24.497 15.139 49.159 27.209 72.667 8.807-6.04 14.932-13.7 21.873-20.506 6.972-6.835 9.146-17.049 16.198-23.741l1.51.81c-.439 1.222-.701 2.548-1.347 3.647-8.16 13.906-18.745 25.817-30.39 36.861-1.436 1.362-2.34 3.383-3.924 4.462-1.502 1.023-3.574 1.212-5.633 1.839-10.35-19.527-15.938-40.274-23.177-60.369l-1.325-.102c-.717 4.573-1.856 9.129-2.063 13.726-.425 9.467-.856 18.986-.305 28.427.363 6.226 2.738 12.309 3.611 18.539.437 3.12.094 6.61-.878 9.615-2.527 7.81-1.158 15.472-.016 23.196.138.932.668 1.828.695 2.751.141 4.916-.403 9.928.355 14.737 2.905 18.418 6.141 36.785 9.398 55.146 3.316 18.689 6.764 37.357 10.24 56.019 1.341 7.202 2.894 14.365 4.406 21.535.262 1.238.803 2.418 1.35 4.021l4.642-3.092 1.058.925-6.426 7.82c3.98 1.162 7.379 2.155 11.069 3.233l.562 4.877c2.889 1.154 6.087 2.412 9.268 3.709 2.98 1.216 6.541 1.628 7.832 5.347-5.371 3.424-46.58 9.174-51.935 7.037l2.181-5.794.62.532c6.022-5.149 12.045-10.299 18.067-15.447l-1.305-1.625c-7.297 5.893-14.595 11.784-21.805 17.606-1.492-25.318-6.896-49.431-11.029-73.74-2.873-16.899-5.084-33.914-7.407-50.901-1.083-7.914-1.795-15.882-2.524-23.839-.185-2.015.211-4.083.967-6.137 2.787 24.857 5.107 49.698 9.638 74.268 4.505 24.427 8.734 48.904 13.323 74.703 6.937-5.496 13.015-9.826 18.397-14.895 1.48-1.394 1.46-5.069 1.128-7.565-.876-6.588-2.308-13.101-3.507-19.646-3.898-21.287-7.794-42.574-11.684-63.862-1.346-7.364-2.729-14.724-3.989-22.104-1.822-10.667-3.553-21.35-5.314-32.026-.267-1.62-.49-3.247-.749-4.976l-9.442-2.026c-3.113-5.783-6.257-12.112-11.632-17.049-.693 8.013-1.175 15.815.642 23.942l5.633-1.668c-.646 5.874-3.217 10.281-7.809 13.257-3.37 2.184-4.359 4.979-4.381 8.802-.125 21.643-.869 43.292-.508 64.924.241 14.455 1.778 28.902 3.123 43.317.548 5.874-.753 12.032 2.37 17.639.489.879-.312 2.477-.376 2.877l-17.091 7.999-.771-1.554c3.027-1.791 5.923-3.874 9.112-5.301 4.307-1.927 5.583-4.784 5.189-9.465-1.48-17.584-3.197-35.185-3.651-52.81-.536-20.791.295-41.613.204-62.42-.025-5.778-1.219-11.551-2.05-18.846 3.785-5.356 2.326-13.022 2.155-21.302-4.885 1.852-6.705 9.695-12.452 6.057-1.841 1.827-3.136 3.973-4.963 4.623-1.219.434-3.196-1.263-4.834-2.005l.408-1.125h4.015c2.074-8.697.42-12.234-5.886-15.279-.27 6.702-.497 13.062-.792 19.42-.309 6.654-.799 13.303-.996 19.961-.192 6.491-.222 12.993-.124 19.487.101 6.658.342 13.317.712 19.966.36 6.483.864 12.962 1.482 19.425.635 6.628 1.483 13.234 2.241 19.851.738 6.45 1.448 12.904 2.228 19.35.8 6.613 1.886 13.2 2.446 19.833.523 6.201 3.905 12.057 2.979 18.415l-1.192.278c-.436-.964-1.125-1.892-1.27-2.897-1.94-13.512-4.009-27.01-5.633-40.561-1.942-16.198-4.32-32.41-4.993-48.679-.838-20.267-.144-40.598-.08-60.901.023-7.492.297-14.989.098-22.475-.052-1.948-1.502-3.842-2.215-5.795-.646-1.768-1.779-3.635-1.633-5.369.795-9.448 1.853-18.878 2.976-28.295.29-2.429 1.146-4.788 1.727-7.184.309-1.27.838-2.547.842-3.821.053-16.64.064-33.279-.003-49.919-.014-3.321-.413-6.641-.609-9.962-.132-2.287-.411-4.648 2.834-6.34zm86.195 293.737c-7.823 4.542-17.463 5.759-23.91 13.167 13.064.966 25.168-2.89 37.408-6.736-4.299-2.049-8.596-4.096-13.498-6.431zm-59.258-152.076c4.109-3.463 1.206-7.477 1.166-11.039-.042-3.733-.502-7.462-.779-11.191-3.158 5.879-2.929 16.833-.387 22.23zm44.052 156.537c7.797-1.922 11.74-4.219 14.064-7.966-4.73-2.217-8.053-.413-14.064 7.966zm-20.448-180.478c-3.808 4.514-3.804 8.378.114 12.056 2.081-4.157.963-7.922-.114-12.056zm-16.219 23.639c-7.069 1.688-9.284 3.642-9.077 7.694 4.049-1.021 6.879-3.29 9.077-7.694zM86.086 484.228c4.49-7.054 11.179-9.135 17.654-12.61-.313 7.921 6.405 8.684 10.562 12.399.062 4.854 3.801 7.693 7.835 10.33l-.258 1.327c-1.683.558-3.403 1.688-5.043 1.581-12.367-.809-24.551.95-36.784 2.174-1.972.197-4.027-.434-6.8-.775.894-2.648 1.472-4.362 2.355-6.981l3.349 4.684 35.502-2.579c-1.198-4.689-4.628-6.133-8.171-6.707-8.928-1.449-17.887-1.355-26.767.685-1.849.425-3.738.671-6.668 1.185 1.358-5.282 2.466-9.591 3.733-14.522 3.944 3.339-.399 6.829 1.686 9.812 2.577-.003 5.315-.003 7.815-.003zm12.92-7.755l-8.242 5.797.543 1.104h15.447c-.693-1.004-.894-1.491-1.253-1.783-1.906-1.548-3.851-3.045-6.495-5.118z"/><path fill-rule="evenodd" clip-rule="evenodd" fill="#fff" d="M205.271 168.392c.009 8.381-4.232 14.587-8.592 21.691-1.025-1.094-2.262-1.797-2.441-2.709-.878-4.423 5.809-16.179 11.033-18.982zM79.587 77.95c1.182-11.64 7.773-20.758 14.888-29.916-3.633-1.516-4.834.618-5.807 2.361-3.483 6.244-6.768 12.599-10.131 18.909-.507.951-1.033 1.893-2.177 3.984-1.062-6.282-1.918-11.351-2.774-16.419l-1.797.033c-.139 1.546-.582 3.136-.362 4.628.802 5.438 1.856 10.836 2.745 16.262.261 1.596.288 3.229.487 5.64l-5.691-.978-5.382-10.295 2.651-9.513-7.592 2.608c-.307-7.874 1.749-14.976 4.468-21.865 1.024-2.595 2.488-4.834 5.326-6.694 3.054-2.003 4.598-6.348 6.724-9.719 4.033-6.393 9.458-10.925 16.449-13.2 3.318 5.47 6.377 10.514 10.037 16.547l-22.637 3.967c1.547 4.564 7.692 7.02 15.08 5.899l-8.05-3.668-.03-.94 21.411-3.208-4.949-8.153c7.919-.679 18.615 5.874 21.89 13.932-4.626 8.469-13.941 10.902-21.17 16.143l-1.559-1.242c1.456-2.803 2.265-6.479 4.546-8.17 2.416-1.792 6.231-1.697 9.436-2.428-9.077-3.044-36.26 1.975-39.894 8.3 4.863-1.554 8.863-3.112 13.001-4.075 4.271-.995 8.678-1.411 13.025-2.08l.673 1.097c-2.332 4.613-4.664 9.226-6.995 13.839l1 1.162c1.466-.572 3.053-.946 4.38-1.749 8.796-5.321 17.536-10.735 26.697-16.366 5.796 6.681-3.402 9.284-4.269 15.225 8.091-1.703 12.039-8.273 18.909-12.267l-1.872 7.704c3.867-.108 4.771-2.436 5.081-5.145.392-3.406.816-6.921-2.836-8.659l-8.701 10.25c-2.365-5.005-4.688-8.906-6.087-13.114-2.182-6.568-7.024-9.879-13.034-12.009-3.448-1.222-6.979-2.255-10.536-3.11-4.661-1.121-7.738-3.622-8.715-9.589 7.519-1.023 14.953-2.035 22.968-3.126l2.929-3.508 7.024 7.608c3.429.756 6.386.783 8.665 2.042 4.636 2.561 8.966 5.701 13.288 8.79 1.246.891 2.035 2.422 3.547 4.294-4.606.38-8.375.32-11.963 1.094-3.295.71-7.299.989-8.729 6.06 1.416-.335 2.252-.521 3.082-.73 4.113-1.034 8.215-2.882 12.338-2.931 6.894-.083 9.865 3.35 10.59 10.658.236 2.382.037 4.808.037 7.213l-1.203.199c-.546-.733-1.139-1.438-1.622-2.209-.444-.709-.769-1.493-1.146-2.243l-1.39.327c-2.249 3.729-4.498 7.457-6.746 11.186l.729.827c2.229-1.693 4.457-3.387 6.814-5.179l3.463 4.566c3.553-4.113 3.016-9.001 4.545-13.304 2.824 12.919-.148 25.48-3.337 38.969-1.056.68-3.12 2.011-5.893 3.796-1.854-9.492.3-18.717-.745-27.691l-1.514-.321c-.45.98-1.314 1.973-1.286 2.939.308 10.651.579 21.31 1.211 31.944.67 11.279 1.718 22.535 2.6 33.801l.112-.117c-3.649-1.614-4.293 1.771-5.342 3.609-4.268 7.483-9.678 14.008-16.528 19.111-2.762 2.057-6.469 3.546-9.882 3.872-5.843.558-11.792 1.188-17.392-2.379-8.863-5.646-16.816-11.998-20.926-22.001-.926-2.253-1.093-4.853-1.404-7.318-1.647-13.033-3.239-26.073-4.825-39.114-.243-1.996-.584-4.11 2.175-4.772 2.104 3.438 4.189 1.268 6.195-.076 5.602-3.753 11.311-7.066 18.71-5.009l1.001-3.438c-5.351-1.605-9.912-.004-14.258 2.099-4.03 1.946-7.842 4.343-11.749 6.543zm23.602 44.041l-1.376.877c.62 1.66.812 3.723 1.932 4.911 5.618 5.959 16.661 7.308 23.551 2.756l5.175-6.353-.449-1.135c-9.768 2.527-19.308.866-28.833-1.056zm18.952-52.068l-1.455.085c-.142 1.416-.602 2.886-.375 4.239 1.76 10.499 3.687 20.971 5.476 31.465.376 2.204.393 4.47.583 6.812l-5.663 1.586-.1 1.059c1.556.333 3.105.906 4.67.952 4.724.139 6.257-2.138 4.722-6.57-.812-2.349-1.688-4.718-2.107-7.151-1.663-9.664-3.14-19.358-4.733-29.034-.192-1.172-.672-2.296-1.018-3.443zm9.464 20.297c2.858 1.086 4.159-.317 4.694-2.473.598-2.404 1.048-4.884 1.194-7.353.312-5.228-1.546-6.382-6.727-4.247-1.433 4.809-1.679 9.59.839 14.073zm-34.424 4.325c4.937-4.948 5.191-9.66 1.045-14.744-3.447-.166-4.557 2.4-5.022 5.016-.672 3.782.195 7.233 3.977 9.728zm48.383-31.297c-10.539-1.755-16.826.145-18.067 4.242.276.166.622.537.823.471 4.849-1.606 9.563-3.784 14.954-2.544.567.13 1.518-1.407 2.29-2.169zM103.466 154.871l3.21 3.789c-2.564 8.001 2.822 17.175-3.277 25.177-2.405-4.252-2.441-22.774.067-28.966zM155.771 102.996c1.015-2.937 1.953-5.563-1.668-7.09l4.011-5.524-1.296-2.875 5.07-2.101c3.136 5.949.867 12.397-6.117 17.59zM68.337 96.004l-3.319 7.475c-5.775-3.82-6.976-8.46-3.671-14.056l6.99 6.581zM99.444 172.409l-8.531 3.005-1.023-.715c1.664-4.044 3.327-8.089 4.99-12.133l1.607.235c.921 2.989 1.84 5.977 2.957 9.608zM107.535 181.718l2.159-8.281 1.822.115 1.509 9.911c-2.346-.745-3.621-1.15-5.49-1.745zM7.234 63.65l8.209-2.962.554 1.512c-1.958 3.131-5.535 2.143-8.383 3.011l-.38-1.561zM160.021 472.91l13.498 6.431c-12.24 3.847-24.344 7.702-37.408 6.736 6.447-7.409 16.086-8.625 23.91-13.167zM100.763 320.834c-2.542-5.397-2.771-16.352.387-22.23.277 3.729.736 7.458.779 11.191.04 3.563 2.943 7.577-1.166 11.039zM144.815 477.371c6.011-8.379 9.334-10.183 14.064-7.966-2.323 3.747-6.267 6.044-14.064 7.966zM124.367 296.893c1.077 4.134 2.195 7.899.114 12.056-3.918-3.678-3.922-7.542-.114-12.056zM108.148 320.532c-2.199 4.404-5.029 6.673-9.077 7.694-.206-4.053 2.008-6.007 9.077-7.694zM99.006 476.473c2.644 2.073 4.589 3.57 6.495 5.117.36.292.561.779 1.253 1.783h-15.447l-.543-1.104 8.242-5.796z"/><path fill-rule="evenodd" clip-rule="evenodd" d="M103.189 121.991c9.525 1.922 19.065 3.583 28.833 1.057l.449 1.135-5.175 6.353c-6.89 4.552-17.933 3.203-23.551-2.756-1.12-1.188-1.312-3.251-1.932-4.911l1.376-.878zm7.508 4.533c4.432 4.369 9.903 4.86 14.866 1.124-5.298-.4-9.749-.737-14.866-1.124zM122.141 69.923c.346 1.146.826 2.271 1.019 3.442 1.593 9.676 3.071 19.37 4.733 29.034.418 2.434 1.294 4.803 2.107 7.151 1.535 4.433.002 6.709-4.722 6.57-1.565-.046-3.114-.619-4.67-.952l.1-1.059 5.663-1.586c-.19-2.343-.208-4.608-.583-6.812-1.789-10.494-3.715-20.966-5.476-31.465-.227-1.354.233-2.823.375-4.239l1.454-.084zM131.605 90.22c-2.519-4.483-2.272-9.265-.838-14.072 5.181-2.135 7.039-.98 6.727 4.247-.146 2.469-.597 4.948-1.194 7.353-.535 2.155-1.836 3.558-4.695 2.472zM97.181 94.545c-3.782-2.495-4.649-5.946-3.977-9.729.465-2.615 1.575-5.182 5.022-5.016 4.146 5.085 3.892 9.797-1.045 14.745zM79.587 77.95c3.907-2.199 7.719-4.597 11.747-6.545 4.347-2.103 8.908-3.704 14.258-2.099l-1.001 3.438c-7.4-2.058-13.109 1.256-18.711 5.008-2.006 1.344-4.091 3.515-6.195.076l-.098.122zM145.564 63.248c-.772.763-1.724 2.3-2.29 2.169-5.391-1.24-10.105.938-14.954 2.544-.201.066-.547-.305-.823-.471 1.241-4.098 7.528-5.997 18.067-4.242z"/><path fill-rule="evenodd" clip-rule="evenodd" fill="#fff" d="M110.697 126.524c5.117.387 9.567.724 14.866 1.124-4.963 3.736-10.434 3.245-14.866-1.124z"/></svg>