<svg xmlns="http://www.w3.org/2000/svg" version="1" width="645" height="585"><path d="M297.297 550.868c-13.775-15.436-48.171-45.53-76.435-66.874-83.744-63.242-95.142-72.394-129.144-103.703-62.685-57.72-89.306-115.71-89.214-194.34.045-38.384 2.661-53.172 13.41-75.797 18.237-38.386 45.1-66.909 79.445-84.355 24.325-12.356 36.323-17.845 76.944-18.07 42.493-.235 51.439 4.72 76.435 18.452 30.425 16.714 61.74 52.436 68.213 77.811l3.998 15.672 9.86-21.585c55.716-121.973 233.598-120.148 295.502 3.032 19.638 39.076 21.794 122.513 4.38 169.513-22.715 61.309-65.38 108.051-164.006 179.677-64.681 46.974-137.885 118.046-142.981 128.028-5.915 11.588-.282 1.816-26.408-27.461z" fill="#f00"/></svg>