<svg xmlns="http://www.w3.org/2000/svg" width="157.963" height="512.185" viewBox="0 0 157.963 512.185"><path fill-rule="evenodd" clip-rule="evenodd" d="M138.969 291.347l-1.303-.711-6.854 9.743-2.67-4.384c1.241-2.493 2.365-4.717 3.457-6.955 1.043-2.138 4.021-3.566 2.213-8.02l-7.673 11.4-1.249-.317c.121-1.546-.141-3.257.44-4.604 1.313-3.049 3.149-5.868 4.538-8.889.418-.908.064-2.172.064-3.272l-1.476-.294-5.01 8.697c.062-7.958 3.246-14.494 8.418-20.5 1.196 1.993 1.805 3.943 2.146 5.938.324 1.899-1.028 4.39 1.968 5.356 2.455-5.087.13-12.791-4.703-15.564l-4.814 2.343c-.604-11.21-1.17-21.688-1.735-32.166l1.103-.329c.773.962 1.698 1.839 2.296 2.899 3.514 6.237 6.903 12.544 10.454 18.76.753 1.318 1.998 2.354 3.017 3.521l1.623-1.143-18.026-32.624 5.782-6.419c3.199 7.072 5.736 13.386 8.852 19.4 3.347 6.461 4.557 12.885 4.281 19.823.885-3.438 1.761-6.786 2.354-10.202-8.99-19.14-15.185-38.782-29.349-53.547-7.293-.516-14.112-.821-20.89-1.524-7.125-.74-8.321-2.406-8.246-10.627 17.062-1.735 34.18-3.476 52.363-5.324.024-2.466.384-5.366.021-8.173-1.429-11.066-3.209-22.088-4.603-33.157-.674-5.359-.78-10.79-1.068-15.057 4.206-1.865 7.733-2.697 10.318-4.729 5.345-4.201 7.659-9.795 5.871-16.821-1.463-5.747-4.464-9.23-11.368-8.655 0-2.946.061-5.534-.014-8.119-.127-4.465-.163-8.943-.58-13.385-.241-2.571-1.053-5.109-1.781-7.612-1.913-6.58.069-14.667-7.332-19.165-.142-.086-.018-.609-.018-1.046 2.521-3.234 8.272-3.028 9.884-8.434-4.05-.387-7.456-.713-11.442-1.095 3.142-4.605 8.451-6.474 8.686-12.09h-23.264c-.853-4.964 5.491-8.964 2.377-14.277-3.636 2.024-6.735 4.376-10.229 5.582-11.48 3.964-23.061 7.653-34.686 11.175-9.684 2.934-18.685 6.995-26.304 13.808-.761.681-1.874.969-2.87 1.463l-2.548-7.173c-6.821 5.192-9.806 14.114-6.523 19.034 2.739-3.606.046-9.351 4.707-12.204l1.89 6.979c2.218-1.124 4.424-1.512 5.275-2.797 4.39-6.633 11.002-10.11 17.965-12.922 5.847-2.36 11.99-3.98 17.981-5.988 10.494-3.518 20.971-7.081 32.065-10.831l-5.419 12.942c8.347-.68 15.599-3.354 23.043-.742-2.024 3.604-3.872 6.896-6.052 10.776l6.542 1.415c-4.375 1.912-3.269 5.792-4.196 9.288 6.887 5.218 8.493 12.565 7.852 20.787-1.644-1.325-2.622-3.018-3.867-4.482-1.029-1.21-2.316-2.976-3.59-3.064-5.007-.354-7.033-3.905-9.231-7.49-.848-1.382-1.899-2.639-3.317-4.582-.886 5.302 3.73 13.427 8.395 14.725 3.596 1.001 5.189 3.535 7.59 5.754 3.533 3.269 2.819 7.59 4.167 11.296l1.847-.175v15.409l-3.795 2.658c-1.129-6.845 1.549-13.577-3.162-19.149-.812 1.273-1.223 2.569-1.092 3.809.329 3.108 1.146 6.176 1.335 9.286.566 9.299.485 18.655 1.462 27.905 1.712 16.21 4.059 32.354 6.042 48.537.29 2.361.04 4.789.04 7.596-28.928 3.817-57.181 6.035-85.948 6.61-.458-1.173-1.13-2.332-1.363-3.574-3.286-17.511-6.481-35.039-9.77-52.549-.988-5.259-1.41-10.252 3.663-13.897.39-.28.384-1.111.743-2.268l-4.271 1.067-2.484-4.216 4.5-7.382-5.061 1.325-.957-.707 4.512-10.088-.72-.518-4.215 2.352-1.096-.737 4.654-9.85-7.808 1.713c-.542 7.569-.57 14.912 2.839 22.231-3.884-1.083-4.026-1.049-4.884-4.605-2.884-11.946-3.381-24.062-2.018-36.237.432-3.858 1.467-7.65 2.336-12.025-3.699 1.497-3.732 4.292-4.091 6.831-1.952 13.798-1.814 27.55.956 41.247.247 1.22.033 2.532.033 3.679-6.025 2.114-8.178 4.313-9.677 8.203-3.702 9.604 5.888 21.49 15.726 23.347.966.182 2.105-.553 3.164-.861-1.432-1.338-2.694-1.611-3.913-2.017-7.259-2.416-12.535-8.854-12.874-15.661-.28-5.609 2.596-8.825 8.799-9.445.947 3.996 8.497 2.649 7.777 9.134-4.509-.602-5.469-6.664-11.401-5.236l6.166 6.694c-4.384 2.522-5.075 4.763-2.685 8.436.334.514 1.197.685 2.096 1.164v-4.695c7.358 1.186 8.099 1.958 8.704 8.669.119 1.324.31 2.647.551 3.956 2.772 15.055 5.569 30.104 8.339 45.159 1.049 5.7 1.942 5.929 7.803 4.988 5.992-.961 12.125-1.052 18.813-1.572l.914 10.471c-8.337 4.805-16.456 9.646-24.74 14.186-3.831 2.1-7.229 4.166-9.654 8.183-3.331 5.519-7.638 10.449-11.54 15.621-4.062 5.383-8.488 10.529-12.125 16.184-5.128 7.973-9.708 16.3-14.436 24.524-.624 1.084-.739 2.461-1.09 3.702l1.407.623c8.762-12.321 13.868-27.148 24.771-38.68l7.696 5.444c-7.499 11.489-14.688 22.505-22.184 33.99 10.044 3.727 20.72 4.493 30.496 11.178.651-4.114.918-7.627 1.815-10.971.967-3.603 2.523-7.047 3.875-10.699 6.596 1.315 9.774 5.364 11.907 10.441 1.482 3.526 2.611 7.2 4.033 10.755.361.903 1.24 1.6 2.096 2.656 1.897-5.753-6.716-21.021-14.856-27.499-2.534-10.615-5.017-21.021-7.467-31.288-5.767-.094-5.341 5.745-9.195 7.57l-6.014-4.908c8.509-11.396 16.26-22.378 29.334-28.629 5.948-2.843 10.154-2.65 14.978.965 3.732 2.797 7.475 5.594 11.357 8.176 5.472 3.639 7.284 2.967 9.537-3.07 1.8-4.82 3.664-9.617 5.695-14.937 3.881.199 7.665.286 11.423.643 1.433.137 3.274.48 4.125 1.441 3.515 3.97 7.037 8.004 9.953 12.413 3.032 4.585 2.265 6.592-3.002 10.519l-.993-7.817c-3.694 1.009-2.74 3.297-2.562 5.328 1.455 16.577 2.927 33.153 4.277 49.739.172 2.12-.064 4.355-.559 6.431-1.192 5.01-2.53 9.993-4.032 14.919-1.58 5.181-.843 9.457 4.099 12.238.482 4.557-2.733 4.466-5.494 4.835-21.438 2.861-42.876 5.707-64.317 8.529-.252.033-.554-.306-.78-.439v-13.092l5.274 2.013c-2.491-4.766-6.202-7.604-10.839-9.133l-1.086 1.05 3.424 5.282-4.424 4.718c-1.615-2.299-2.783-4.343-4.327-6.046-1.389-1.53-2.473-4.113-6.552-2.601 3.684 4.129 6.983 7.827 10.346 11.598l4.523-.365c0 10.362.04 20.6-.011 30.837-.052 10.496-.231 20.991-.284 31.487-.051 10.073-.011 20.146-.011 30.22l2.084-.001c1.11-13.154-.309-26.386.083-39.562.405-13.61.476-27.229.698-41.17l11.117-3.805c-.885 4.292-.864 7.529-2.268 9.935-1.121 1.921-3.978 2.829-6.908 4.736 1.485.608 2.509 1.419 3.474 1.353 3.579-.246 5.726-2.478 6.706-5.785.565-1.908.918-3.896 1.183-5.873.443-3.313 2.132-4.817 5.57-5.138 7.443-.692 14.848-1.795 22.276-2.663 1.407-.164 2.851-.023 4.487-.023 0 7.867.139 15.146-.141 22.409-.045 1.176-1.947 2.28-2.992 3.418l-1.675-.785c.589-7.257 1.177-14.515 1.765-21.771l-1.299-.39c-.601 1.477-1.566 2.913-1.731 4.437-.449 4.134-.689 8.303-.773 12.463-.157 7.703-.09 7.694-7.265 10.429-1.816.691-3.919 1.244-2.836 4.791l7.433-2.736c-.54 16.795-.02 33.138-3.404 49.73-9.967 1.489-19.578 2.925-29.125 4.352.543 2.88 1.355 5.288 1.398 7.71.399 22.644.613 45.29 1.006 67.934.104 5.99.681 11.98-4.07 16.906l4.375 3.288v18.046l-2.881 2.6.401 1.329c1.744-.209 3.557-.181 5.22-.664 13.214-3.842 26.731-5.687 40.444-5.653 4.804.012 6.744-3.033 10.378-6.321-12.855-6.729-24.835-13.001-36.111-18.904-2.666-8.755-6.788-80.801-4.983-85.899 4.96-.511 10.215-3.964 15.479 2.142.639-1.96 1.327-3.226 1.435-4.539.599-7.303 1.048-14.618 1.566-21.929.526-7.419 1.074-14.836 1.612-22.254l.839.036 3.499 42.615 1.792-.1c-1.091-17.964-2.181-35.927-3.252-53.581 15.697-5.653 15.697-5.653 15.434-8.938l-9.768 3.488c.85-8.813 1.604-16.643 2.396-24.846l11.744-1.129c0 2.911-.318 5.061.087 7.062.429 2.118.991 4.926 2.497 5.936 2.057 1.378 4.977.929 7.647-1.379l-6.977-1.95c.306-3.406.602-6.704.914-10.186l6.334-.962c3.662 6.703.641 14.071 3.643 21.421 3.644-6.562.444-12.485 1.676-17.99 5.593-.151 8.09-2.255 8.497-7.21l-3.309 1.802c.252-4.443 5.571-6.541 4.485-10.907z"/><path d="M156.565 486.064c-6.759.567-14.124 1.06-20.51-1.557-6.47-2.652-12.626-7.647-13.872-14.999-.732-4.321.309-8.183.195-12.468-.126-4.808-1.003-9.509-2.191-14.161-2.617-10.243-5.782-20.534-7.183-31.034-.637-4.775-3.246-12.565-.057-16.963 3.265-4.503 9.646-4.721 14.946-3.789.662-1.131 1.782-1.984 3.356-2.192-1.027-3.603-2.421-7.177-3.4-10.727-.805-2.914.88-5.042 3.076-5.846l-4.774-21.182c.079 1.149.053 2.354-.016 3.611-.151 2.809.354 5.646.376 8.472.061 7.615.021 15.23.021 23.546-9.686 2.535-19.032 4.981-28.173 7.374.643 4.386 1.396 8.291 1.757 12.233.864 9.446 1.279 18.94 2.368 28.358 1.127 9.749 2.911 19.42 4.232 29.148.303 2.233.71 5.12-.379 6.721-1.73 2.543-1.143 4.559-.567 7.014.945 4.037 1.599 8.142 2.417 12.209.251 1.247.64 2.467 1.045 3.997 6.779-1.064 13.206-2.074 19.633-3.084l.121.708c-3.24 1.164-6.479 2.327-10.615 3.812 1.609 1.201 2.227 1.981 2.575 1.876 11.926-3.62 24.236-4.754 37.016-4.881l-1.397-6.196zM126.152 351.147c-.095-1.369-.346-2.659-.871-3.863l.871 3.863zM121.238 342.811c2.08 1.319 3.32 2.816 4.043 4.474l-2.544-11.286c-4.09.813-5.032 4.571-1.499 6.812z"/><path fill-rule="evenodd" clip-rule="evenodd" d="M112.948 394.883c1.021-1.407 2.352-2.384 3.853-3.051l-6.018.73c.266 2.063.524 4.035.775 5.955.208-1.345.63-2.587 1.39-3.634zM122.184 469.509c-.732-4.321.309-8.183.195-12.468-.126-4.808-1.003-9.509-2.191-14.161-2.199-8.606-4.772-17.249-6.373-26.019 1.437 12.437 2.807 24.881 4.436 37.292.755 5.751 2.251 11.409 3.508 17.088.469 2.12 1.529 3.664 3.065 4.713-1.296-1.899-2.233-4.044-2.64-6.445zM150.454 340.909"/><path fill-rule="evenodd" clip-rule="evenodd" d="M67.01 396.388c-6.124-.538-7.12.044-7.201 4.594-.191 10.633-.268 21.272-.118 31.905.237 16.73.698 33.458 1.085 51.127 4.463-.672 7.739-1.164 11.341-1.705-1.731-29.125-3.414-57.445-5.107-85.921zM19.286 269.166c6.834 3.247 13.85 6.159 22.089 7.389 1.949-5.901 3.816-11.356 5.539-16.857.812-2.593 2.235-5.417 1.833-7.884-.905-5.538-2.736-10.929-4.303-16.348-.229-.793-1.076-1.407-1.674-2.151-7.455 8.305-22.153 30.541-23.484 35.851zM119.203 474.344c-6.27-26.409-5.75-53.387-11.432-79.483-4.952.688-5.458 1.363-5.284 6.792.676 21.143 2.481 42.169 7.135 62.847.802 3.563 1.292 6.698-1.863 9.65 3.726 3.12 7.059 1.651 11.444.194zM61.897 501.547c6.616-.789 12.156-1.521 17.713-2.091 4.556-.467 7.078-2.972 8.094-7.206-8.705-8.373-17.714-9.68-26.766-3.583l.959 12.88zM130.031 481.191c-4.726-.879-9.444-1.81-14.206-2.362-1.878-.218-3.926 1.027-6.231 1.701.562 3.478 1.025 6.338 1.551 9.586 6.195-.755 11.959-1.093 17.52-2.336 1.81-.403 3.156-2.874 4.685-4.542-1.149-.604-2.264-1.286-3.319-2.047zM93.688 191.694c-6.334-2.382-6.329-2.384-8.567-9.408-.251-.788-.627-1.535-.9-2.316-.953-2.727-2.665-3.628-6.076-1.984v15.408c1.988 1.806 4.085 5.863 8.758 5.178 3.47-.509 5.71-3.028 6.785-6.878zM139.272 98.938c1.104 1.675 2.892 3.2 2.645 4.246-.635 2.69-2.17 5.169-3.31 7.652 7.329-1.629 11.674-8.923 9.685-16.477-1.104-4.189-3.353-6.33-6.152-5.856-3.817.646-7.617 5.103-7.437 8.829l5.118-1.444-.549 3.05zM71.856 193.082l-1.062 1.444c6.481 4.729 12.275 10.492 20.771 13.658 2.104-5.062 3.962-9.535 5.819-14.008-2.319 1.366-3.719 3.327-5.401 5.005-3.282 3.277-6.954 3.914-10.302 1.74-1.93-1.253-3.588-2.921-5.391-4.374-1.461-1.176-2.955-2.312-4.434-3.465zM62.755 507.893c9.046-1.433 18.093-2.865 27.697-4.386-12.241-2.641-21.837-1.39-27.697 4.386zM136.353 484.619c-.65.693-1.102 1.679-1.257 2.951h14.527l.293-1.086c-4.634.137-9.308-.192-13.563-1.865zM90.065 496.404l6.72 4.22 5.837-.876c-5.377-5.119-9.439-6.058-12.557-3.344zM120.651 141.871c-2.118 17.706-31.184 25.475-41.905 16.115-3.147-2.747-6.165-5.407-6.466-10.52 16.576.807 32.3-2.949 48.371-5.595zm-42.452 9.544c3.029 5.402 8.142 8.071 14.57 7.387 9.018-.96 17.617-2.98 23.006-13.149-13.028 1.997-25.024 3.837-37.576 5.762zM76.826 35.13c-3.486-4.657-8.229-1.17-11.864-3.231 5.518-4.153 12.317-4.271 18.242-6.851l.441.968-7.365 4.062 4.667 6.204c-2.897 1.2-5.099 2.531-7.467 2.978-2.515.474-5.188.106-8.933.106 2.844 3.251 4.938 5.643 7.014 8.015-4.635 4.102-18.378 3.026-21.653-2.143 3.078.556 5.508 1.18 7.975 1.391 2.599.222 5.232.049 8.287.049-1.722-5.825-7.806-6.382-11.575-11.466 2.414 0 3.753-.098 5.073.019 4.445.39 8.876.957 13.327 1.22 1.112.065 2.279-.759 3.831-1.321zM110.455 40.674c-12.395 11.187-27.349 15.381-44.312 15.502-1.549 2.207-3.375 4.545-4.915 7.059-2.596 4.237-5.621 7.517-11.12 6.158l-4.161 5.61-6.24-3.729.548-1.318 4.635.558 3.417-5.953 5.419 2.77c1.714-1.693 3.684-3.352 5.286-5.311 1.461-1.785 2.292-4.105 3.822-5.812 1.921-2.144 3.918-4.259 7.437-3.935 10.932 1.008 21.055-1.753 30.501-7.182 3.098-1.78 6.127-3.678 9.188-5.521l.495 1.104zM56.423 102.863c-6.564-3.513-6.931-7.352-.954-10.488 4.166-2.187 8.864-3.648 13.496-4.518 1.876-.353 4.658 1.293 6.179 2.855 1.045 1.072 1.061 3.674.645 5.374-.159.647-2.825.62-4.318 1.015-3.609.953-7.248 1.834-10.777 3.033-1.511.514-2.777 1.746-4.271 2.729zM93.603 82.886c.816 1.396 1.986 2.697 2.396 4.205 3.584 13.164 7.004 26.374 10.542 39.551.878 3.27 2.016 6.469 3.249 10.385-8.138.92-14.843 4.85-22.14 5.754l-.548-2.398c5.858-1.995 11.715-3.989 17.977-6.12-2.822-17.621-8.239-34.05-13.32-50.558l1.844-.819zM104.058 96.981l-1.1-6.55c4.06-3.738 8.294-6.72 13.904-7.129 3.237-.237 5.9.66 7.539 3.65 1.573 2.869.438 5.923-2.747 5.73-6.084-.364-11.606 1.022-17.596 4.299zM43.526 285.107l-1.646 4.697c-13.783-5.562-28.88-5.684-41.88-12.614l.371-1.643c1.313.195 2.661.267 3.935.606 10.267 2.742 20.498 5.623 30.793 8.247 2.463.629 5.131.457 8.427.707zM44.76 87.611c4.766-6.945 12.794-8.741 20.254-11.143 4.317-1.391 8.944-1.526 12.806 2.287-5.688.665-11.628.529-16.992 2.221-5.331 1.681-10.082 5.199-15.087 7.911l-.981-1.276zM91.494 38.185c10.435-3.734 20.447-7.317 31.166-11.153-.246 5.472-4.952 6.729-7.557 10.516l-1.44-3.719c-7.244 1.994-14.32 3.948-21.415 5.836-.093.024-.41-.794-.754-1.48zM99.101 77.187c-.082-1.363-.551-2.596-.141-3.354 3.816-7.065 15.402-11.416 22.884-8.683 2.036.744 4.138 1.559 3.23 5.226-4.588-1.159-9.055-5.129-13.854-2.18-3.999 2.458-7.587 5.587-12.119 8.991zM64.863 289.091l-13.147-14.82c2.718-1.945 4.273-.251 5.421 1.124 3.392 4.061 7.694 7.612 9.062 12.955l-1.336.741zM60.049 294.758c-2.001-6.289-9.793-6.622-12.103-12.675 6.153.504 9.21 5.41 13.052 9.108.571.55.291 1.984.404 3.009l-1.353.558z"/><path fill-rule="evenodd" clip-rule="evenodd" fill="#fff" d="M67.01 396.388c1.693 28.477 3.376 56.796 5.108 85.921-3.603.541-6.878 1.033-11.341 1.705-.387-17.669-.849-34.396-1.085-51.127-.15-10.633-.073-21.272.118-31.905.08-4.55 1.076-5.132 7.2-4.594zM19.286 269.166c1.331-5.31 16.029-27.546 23.483-35.852.598.744 1.445 1.358 1.674 2.151 1.567 5.419 3.398 10.81 4.303 16.348.403 2.467-1.02 5.291-1.833 7.884-1.723 5.501-3.59 10.956-5.539 16.857-8.238-1.229-15.254-4.141-22.088-7.388zM119.203 474.344c-4.385 1.457-7.718 2.926-11.444-.194 3.155-2.952 2.665-6.087 1.863-9.65-4.653-20.678-6.459-41.704-7.135-62.847-.174-5.429.332-6.104 5.284-6.792 5.682 26.096 5.163 53.074 11.432 79.483zM61.897 501.547l-.958-12.88c9.051-6.097 18.061-4.79 26.766 3.583-1.016 4.234-3.538 6.739-8.094 7.206-5.558.569-11.098 1.302-17.714 2.091zM130.031 481.191c-4.726-.879-9.444-1.81-14.206-2.362-1.878-.218-3.926 1.027-6.231 1.701.562 3.478 1.025 6.338 1.551 9.586 6.195-.755 11.959-1.093 17.52-2.336 1.81-.403 3.156-2.874 4.685-4.542-1.149-.604-2.264-1.286-3.319-2.047zM93.688 191.694c-1.075 3.85-3.315 6.369-6.785 6.877-4.673.686-6.771-3.372-8.758-5.178v-15.408c3.411-1.644 5.124-.742 6.076 1.984.273.781.649 1.528.9 2.316 2.238 7.026 2.233 7.027 8.567 9.409zM139.272 98.938l.549-3.05-5.118 1.444c-.181-3.727 3.619-8.183 7.437-8.829 2.8-.474 5.049 1.667 6.152 5.856 1.989 7.554-2.355 14.848-9.685 16.477 1.14-2.483 2.675-4.962 3.31-7.652.247-1.046-1.541-2.572-2.645-4.246zM71.856 193.082c1.479 1.153 2.973 2.289 4.434 3.466 1.803 1.453 3.461 3.121 5.391 4.374 3.348 2.174 7.02 1.537 10.302-1.74 1.682-1.678 3.082-3.639 5.401-5.005-1.857 4.473-3.716 8.945-5.819 14.008-8.496-3.166-14.29-8.929-20.771-13.658l1.062-1.445zM62.755 507.893c5.86-5.775 15.457-7.026 27.697-4.386-9.604 1.52-18.651 2.953-27.697 4.386zM136.353 484.619c-.65.693-1.102 1.679-1.257 2.951h14.527l.293-1.086c-4.634.137-9.308-.192-13.563-1.865zM90.065 496.404c3.117-2.714 7.18-1.775 12.557 3.344l-5.837.876c-2.554-1.603-4.503-2.827-6.72-4.22zM78.199 151.415l37.576-5.763c-5.389 10.169-13.988 12.189-23.006 13.149-6.428.685-11.541-1.984-14.57-7.386z"/></svg>