<?xml version="1.0" encoding="utf-8"?>
<!-- Generator: Adobe Illustrator 16.2.1, SVG Export Plug-In . SVG Version: 6.00 Build 0)  -->
<!DOCTYPE svg PUBLIC "-//W3C//DTD SVG 1.1//EN" "http://www.w3.org/Graphics/SVG/1.1/DTD/svg11.dtd">
<svg version="1.1" id="Layer_1" xmlns="http://www.w3.org/2000/svg" xmlns:xlink="http://www.w3.org/1999/xlink" x="0px" y="0px"
	 width="248.651px" height="432.739px" viewBox="0 0 248.651 432.739" enable-background="new 0 0 248.651 432.739"
	 xml:space="preserve">
<path fill-rule="evenodd" clip-rule="evenodd" d="M18.518,204.919 M0,207.463 M200.971,157.092c-1.511-3.574-2.954-6.45-3.966-9.471
	c-6.122-18.271-13.604-35.835-26.327-50.65c-7.631-8.887-16.465-15.94-28.457-18.095c-4.724-0.849-9.366-2.14-13.685-3.146
	c-10.65-17.623-21.062-34.852-31.659-52.385c4.477-4.622-1.624-6.669-2.934-10.691c2.554-0.069,5.629,0.044,4.026-3.712
	c-3.068-1.538-7.26,2.675-9.397-1.997c0.734-2.152,1.415-4.147,2.095-6.142c-0.394-0.223-0.787-0.445-1.182-0.668
	c-1.311,1.255-2.622,2.509-4.012,3.838C83.814,2.612,82.319,1.385,80.631,0c-3.641,4.601,3.263,5.574,2.429,9.435
	c-2.321,0-4.771,0-7.361,0c-0.275,5.623,4.795,2.545,6.39,4.789c0.025,4.496-4.166,8.393-2.096,13.396
	c1.302-1.148,2.107-2.47,2.576-3.901c0.827-2.528,1.222-5.219,2.248-7.651c0.539-1.276,2.034-2.149,3.097-3.205
	c0.416,0.288,0.832,0.575,1.248,0.862c-1.257,8.597-0.627,17.467-3.251,23.744c-0.493,6.288-0.615,10.544-1.204,14.733
	c-1.033,7.358-2.705,14.644-3.39,22.026c-0.304,3.275-1.23,5.346-4.03,6.734c-2.09,1.037-4.142,2.156-6.26,3.13
	c-11.986,5.511-20.253,14.87-26.739,25.995c-2.278,3.909-4.146,8.058-6.558,12.8l-3.372,15.982
	c-1.72,11.088-0.598,22.588-1.262,33.876c-0.496,8.434-1.304,16.933-3.006,25.188c-1.817,8.813-6.733,15.398-16.448,17.332
	c-4.09,0.813-5.032,4.572-1.499,6.812l8.212,5.508c5.964-0.47,10.971-0.864,16.286-1.283c-0.75,5.846-4.239,11.273,0.404,16.234
	c4.922,5.259,10.076,1.81,15.143-0.17c0.484,14.583,8.405,18.712,17.845,10.418c6.388,5.543,8.511,6.499,11.799,4.76
	c3.264-1.726,5.185-4.368,4.721-9.199c-1.134,1.324-1.82,1.971-2.32,2.738c-1.519,2.33-3.416,4.886-6.309,3.657
	c-1.945-0.826-3.268-3.358-4.599-5.312c-0.832-1.222-1.162-2.786-2.18-5.373c-1.747,3.155-2.466,5.517-4.028,6.971
	c-1.526,1.42-4.16,2.945-5.86,2.542c-1.974-0.468-4.291-2.712-4.944-4.687c-0.77-2.33,0.044-5.199,0.245-7.829
	c0.113-1.483,0.376-2.954,0.697-5.389c-1.9,1.101-2.726,1.571-3.545,2.054c-2.289,1.35-4.441,3.365-6.901,3.866
	c-2.346,0.478-5.781,0.19-7.315-1.263c-1.476-1.397-1.634-4.759-1.442-7.184c0.19-2.405,1.647-4.688,2.34-7.085
	c0.465-1.611,0.565-3.328,0.969-5.877c-9.887,3.996-18.936,7.3-27.186-1.18c0.562-0.802,0.707-1.123,0.949-1.331
	c0.375-0.32,0.781-0.705,1.235-0.82c9.839-2.483,14.575-9.713,16.339-18.855c1.63-8.444,2.562-17.076,3.087-25.669
	c0.668-10.961,0.458-21.973,0.993-32.944c0.123-2.514,1.74-4.954,2.67-7.429c0.664-2.198-0.009-4.889,0.774-7.051
	c4.551-12.555,11.158-23.818,21.944-32.151c13.183-10.183,28.105-14.801,44.748-13.935c1.423,0.074,2.868-0.289,4.374-0.458
	c1.119-5.052,4.063-8.081,8.844-10.322c1.071,2.634,2.014,4.949,3.154,7.754c-2.543-0.203-4.264-0.341-5.983-0.479
	c-0.252,0.307-0.504,0.614-0.755,0.921c0.695,0.912,1.217,2.278,2.129,2.629c1.335,0.514,2.951,0.279,4.445,0.399
	c11.331,0.911,22.582,2.134,32.33,8.83c13.185,9.057,22.188,21.655,28.563,35.924c6.24,13.964,11.434,28.413,16.692,42.793
	c2.714,7.42,7.033,13.616,12.595,18.944c1.75,1.676,4.596,2.671,7.071,3.007c3.009,0.408,6.156-0.21,10.659-0.465
	c-2.466,3.776-4.182,6.916-6.381,9.67c-5.436,6.81-12.925,8.703-21.401,7.562c0.657,3.114,0.657,3.114,4.825,6.216
	c4.227,3.146,5.055,6.872,2.506,11.274c-2.616,4.519-6.718,5.746-11.474,3.569c-1.287-0.59-2.742-0.81-4.121-1.199
	c-0.267,0.398-0.533,0.798-0.8,1.196c0.767,1.124,1.377,2.404,2.327,3.342c3.127,3.088,3.269,4.543,0.462,7.885
	c-3.858,4.596-8.541,5.004-14.735,1.355c-1.53-0.9-3.162-1.63-5.466-2.804c0.249,1.823,0.183,2.532,0.448,3.082
	c1.079,2.228,2.701,4.3,0.551,6.854c-2.315,2.749-5.07,2.032-7.793,1.136c-3.385-1.112-6.701-2.431-10.048-3.66
	c-0.192,0.397-0.385,0.794-0.576,1.19c3.763,3.759,8.589,5.645,13.975,6.168c5.882,0.571,8.03-3.582,9.389-8.396
	c4.538-0.026,8.911,3.261,13.173-0.123c3.796-3.013,6.438-6.654,6.379-11.88c5.587-0.716,9.627-3.231,11.724-8.382
	c2.132-5.235,0.829-9.694-3.878-13.554c1.949-0.671,3.03-1.062,4.122-1.414c9.735-3.145,16.183-9.626,19.304-19.32
	c0.446-1.389-0.009-3.067-0.062-5.228c-2.482,0.938-3.85,1.48-5.233,1.975c-6.386,2.281-11.482,1.137-15.625-4.16
	c-2.955-3.778-5.465-7.934-7.88-12.091 M106.562,46.464c-1.543,4.173-8.123,11.254-13.077,13.88
	c-0.068-4.231,3.524-5.803,5.514-8.289c1.938-2.422,4.388-4.434,6.613-6.625C105.929,45.774,106.246,46.119,106.562,46.464z
	 M91.336,23.515c0.427-0.118,0.854-0.236,1.281-0.354c0.96,1.326,1.919,2.652,2.999,4.145c-1.59,1.886-2.937,3.482-4.282,5.078
	c-0.404-0.151-0.81-0.303-1.214-0.455C90.525,29.124,90.931,26.319,91.336,23.515z M89.938,39.45
	c0.801-3.002,4.568-5.212,7.555-8.376c2.15,3.034,3.941,5.01,5.028,7.317c0.583,1.236,0.553,3.51-0.229,4.517
	c-4.424,5.695-9.159,11.148-14.523,16.336C86.834,52.27,88.266,45.716,89.938,39.45z M116.59,64.254
	c-3.276,4.917-6.487,10-13.82,10.855c2.669-5.83,9.437-7.72,11.367-13.338c-0.313-0.361-0.628-0.723-0.942-1.084
	c-1.222,0.801-2.58,1.453-3.642,2.428c-4.263,3.914-8.056,8.482-12.776,11.704c-3.003,2.05-7.334,2.153-11.069,3.13
	c-0.349-0.336-0.698-0.672-1.048-1.008c0.554-1.929,0.505-4.494,1.76-5.682c7.333-6.937,14.971-13.55,23.179-20.873
	c2.51,4.193,4.733,7.81,6.825,11.501C116.784,62.525,116.945,63.721,116.59,64.254z"/>
<path fill-rule="evenodd" clip-rule="evenodd" d="M109.074,152.623c15.269-11.122,22.69-26.832,25.629-45.178
	c0.444-0.158,0.889-0.316,1.333-0.475c2.023,2.344,3.982,4.748,6.081,7.022c7.434,8.06,14.904,16.086,22.384,24.103
	c3.392,3.636,4.952,8.057,6.425,12.745c3.405,10.843,6.065,21.801,7.495,33.078c1.684,13.274,1.322,26.608-3.918,38.851
	c-6.349,14.832-18.037,24.057-34.508,26.309c-1.619,0.222-3.245,0.397-4.779,0.583c-0.755,5.931-0.057,7.238,5.006,8.697
	c2.708,0.781,5.531,1.173,8.31,1.699c3.887,0.735,6.669,2.67,9.074,6.04c6.377,8.937,13.319,17.468,19.896,26.266
	c2.671,3.573,4.97,7.423,7.45,11.139c0.886,1.326,1.807,2.628,2.711,3.941c0.417-0.018,0.833-0.034,1.25-0.052
	c1.354-4.844,2.742-9.679,4.055-14.533c1.25-4.625,2.36-9.288,3.647-13.902c1.296-4.644-0.783-8.031-3.787-11.206
	c-1.631-1.725-3.092-3.611-5.195-6.093c6.652-3.969,7.567-10.019,7.451-16.344c6.673,1.425,8.136,3.678,9.157,13.122
	c2.525,2.317,3.93,0.314,5.716-1.316c4.77-4.354,9.511-8.787,14.675-12.638c2.269-1.691,5.471-2.458,8.364-2.91
	c4.52-0.706,6.586,2.206,4.768,6.415c-0.756,1.751-2.031,3.278-3.286,5.246c3.437-0.156,6.415-0.616,9.311-0.303
	c1.751,0.189,4.307,1.233,4.783,2.527c0.46,1.248-1.147,3.393-2.12,4.976c-0.471,0.767-1.568,1.148-2.027,1.462
	c1.765,2.5,4.234,4.459,4.157,6.312c-0.08,1.925-2.624,3.746-4.471,6.095c0.339,5.683-0.542,6.948-7.268,8.403
	c-3.821,0.827-7.111,1.886-9.574,5.457c-2.705,3.922-8.435,4.701-13.702,2.631c-0.069-2.955,1.957-3.166,3.948-2.542
	c3.767,1.181,6.333-0.41,7.902-3.438c1.681-3.243,3.991-4.545,7.562-4.576c1.771-0.016,3.534-0.993,5.301-1.534
	c-0.085-0.418-0.17-0.836-0.255-1.254c-1.201,0-2.403,0-3.604,0c-1.111,0-2.223,0-3.605,0c-0.369-4.981,3.786-3.721,6.042-4.766
	c2.594-1.202,5.272-2.218,7.714-3.973c-6.32-4.014-12.14,2.511-18.361,0.141c5.413-5.64,14.621-5.116,19.695-13.053
	c-2.625,0-4.615-0.469-6.259,0.088c-4.856,1.646-9.571,3.709-14.352,5.583c-1.516,0.594-3.064,1.104-4.598,1.653
	c-0.292-0.458-0.585-0.916-0.878-1.375c1.011-1.017,1.962-2.103,3.042-3.039c3.379-2.926,6.885-5.711,10.167-8.739
	c0.971-0.896,1.365-2.416,2.056-3.709c-7.066-2.765-19.156,5.161-24.074,15.352c3.081,5.325,6.454,10.84,2.145,17.355
	c-0.859-3.858-0.659-8.561-2.873-11.34c-2.263-2.84-6.894-3.793-11.299-5.975c-1.401-2.626,4.285-6.157,0.016-10.346
	c-1.729,3.977-3.315,7.627-5.109,11.758c1.316,1.715,2.625,3.596,4.115,5.321c2.574,2.982,3.432,5.973,2.235,10.062
	c-3.122,10.674-5.688,21.511-8.514,32.272c-0.396,1.504-1.013,2.95-1.84,5.316c-6.207-5.161-7.916-12.23-12.03-17.59
	c-4.114-5.36-8.087-10.831-12.546-16.823c-1.981,2.146-3.367,3.647-4.945,5.356c7.979,14.959,21.833,24.594,31.018,39.189
	c8.605-12.06,11.327-25.518,17.188-37.452c0.485-0.045,0.971-0.09,1.457-0.135c0.336,1.207,1.3,2.686,0.912,3.579
	c-4.293,9.913-8.862,19.707-13.219,29.594c-3.221,7.31-4.491,7.88-12.569,4.507c-2.476-8.111-8.917-13.735-14.577-20.053
	c-5.467-6.1-10.182-12.873-15.228-19.352c-0.384,0.146-0.768,0.291-1.152,0.437c0,5.56-0.212,11.131,0.062,16.677
	c0.262,5.293,1.029,10.561,1.575,15.839c-0.479,0.104-0.957,0.21-1.435,0.314c-0.501-0.685-1.396-1.344-1.443-2.059
	c-0.819-12.461-1.562-24.926-2.222-37.396c-0.051-0.968,0.645-1.976,1.291-3.812c2.299,2.689,4.041,4.727,5.747,6.723
	c4.496-3.031,4.899-4.499,2.433-8.178c-0.738-1.101-1.862-1.969-2.485-3.118c-4.331-7.999-11.375-10.7-21.424-10.23
	c-1.379,1.856-3.46,4.658-5.723,7.703c-2.245-1.412-3.774-2.059-4.863-3.146c-1.154-1.153-1.89-2.727-2.808-4.116
	c-0.356,0.249-0.712,0.498-1.068,0.747c-1.181,0.574-2.312,1.308-3.551,1.696c-8.303,2.604-11.554,8.623-12.127,16.897
	c-0.406,5.863-0.636,5.985,5.074,9.199c0.739-1.103,1.499-2.236,2.433-3.63c0.896,0.381,2.324,0.563,2.509,1.143
	c0.692,2.173,1.323,4.47,1.356,6.729c0.151,10.321,0.075,20.646,0.12,30.969c0.01,2.135,0.185,4.27,0.309,6.95
	c13.404,2.075,26.18-3.124,39.579-2.121c0.468,1.37,1.225,2.718,1.358,4.125c0.553,5.801,1.023,11.615,1.312,17.435
	c0.181,3.65,0.01,3.659-4.412,5.554c0,2.343-0.338,5.019,0.057,7.581c1.999,12.989,3.879,26.012,6.421,38.899
	c1.663,8.429,3.266,9.307,11.729,10.154c1.898,0.19,3.802,0.335,5.702,0.501c0.181,0.416,0.36,0.832,0.54,1.249
	c-1.007,1.005-1.939,2.788-3.034,2.894c-8.801,0.851-17.409,5.565-27.076,1.959c-2.241-23.117-4.447-45.875-6.759-69.722
	c-2.329-0.244-4.881-0.512-7.768-0.814c0,2.562,0,4.312,0,6.464c-1.963,0.102-3.703,0.191-6.019,0.311
	c-0.21,1.659-0.727,3.421-0.607,5.138c1.229,17.759,2.635,35.504,3.799,53.267c0.222,3.389-0.058,6.911-0.817,10.209
	c-0.267,1.157-2.564,2.284-4.112,2.631c-5.644,1.264-11.395,2.045-17.04,3.3c-3.523,0.783-3.471,1.019-6.793-1.576
	c1.474-1.115,2.674-2.299,4.107-3.023c1.147-0.581,2.619-0.479,3.875-0.896c4.694-1.561,6.339-2.264,6.153-7.858
	c-0.656-19.782-0.62-39.587-0.86-59.383c-0.006-0.481-0.187-0.961-0.349-1.75c-1.212-0.108-2.455-0.219-3.896-0.347
	c-0.307-0.759-0.923-1.532-0.86-2.247c0.627-7.23,1.254-14.465,2.098-21.672c1.236-10.555,1.841-21.093-0.039-31.717
	c-3.021,9.65-6.148,19.27-9.021,28.965c-1.352,4.56-2.4,5.754-6.995,4.594c-6.603-1.668-13.165-3.609-19.571-5.916
	c-8.603-3.097-17.04-6.65-25.545-10.016c-2.544-1.006-4.788-1.317-7.556,0.159c-5.629,3.002-10.97,1.118-16.203-2.629
	c-1.81,1.406-3.504,2.983-5.447,4.143c-1.284,0.766-3.335,1.687-4.299,1.164c-1.041-0.563-1.443-2.689-1.696-4.205
	c-0.206-1.229,0.222-2.563,0.35-3.684c-2.159-0.867-4.049-1.625-6.534-2.623c1.58-2.67,2.801-4.733,4.032-6.812
	c-2.354-1.474-4.623-2.896-6.76-4.234c0.995-5.701,6.394-5.061,9.316-7.995c-2.498-1.989-4.846-3.859-7.832-6.237
	c9.129-9.682,18.382-2.949,27.86-1.521c0.443-1.912,1.068-3.541,1.162-5.2c0.361-6.409,4.175-9.782,11.637-9.6
	c-1.478,7.467,2.675,12.828,6.765,18.349c0.693,0.936-0.024,3.31-0.681,4.75c-0.793,1.74-2.216,3.193-3.641,5.148
	c11.172,10.979,23.512,18.704,39.916,21.232c2.251-6.96,4.932-13.425,6.374-20.155c1.975-9.22,2.887-18.663,4.559-27.955
	c0.294-1.63,1.785-3.448,3.236-4.383c3.204-2.063,6.885-3.385,10.096-5.438c4.528-2.897,4.915-4.654,3.025-10.646
	c-4.329-0.528-8.925-0.953-13.476-1.668c-13.708-2.153-25.354-8.227-33.936-19.241c-5.474-7.026-9.301-15.094-10.604-23.983
	c-1.664-11.356-2.878-22.781-4.14-34.193c-0.461-4.173-2.759-8.289-0.616-12.597c0.274-0.552,0.549-1.104,1.041-2.097
	c2.152,2.675,2.431,7.784,7.472,5.087c5.794-11.383,15.223-19.129,28.613-13.041c2.394-2.548,5.119-5.177,7.515-8.077
	c2.271-2.751,4.198-5.787,6.961-8.499C110.686,139.383,108.152,145.757,109.074,152.623z M61.397,165.758
	c0,2.452-0.189,4.267,0.031,6.029c1.421,11.383,2.673,22.796,4.498,34.115c1.342,8.32,4.986,15.919,10.163,22.524
	c8.648,11.036,20.358,17.331,34.16,18.543c9.206,0.809,18.593,0.087,27.864-0.501c13.25-0.839,23.066-7.613,30.26-18.6
	c6.719-10.263,7.79-21.817,7.682-33.545c-0.131-14.284-3.475-27.974-8.063-41.479c-2.248-6.618-5.5-12.287-10.305-17.235
	c-4.629-4.768-9.092-9.695-13.723-14.461c-2.091-2.15-4.411-4.077-6.646-6.123c-2.916,6.62-5.078,12.591-8.081,18.104
	c-4.707,8.644-10.009,16.979-18.816,22.185c-1.501,0.888-3.367,1.158-5.935,1.998c0.341-3.35,0.533-5.459,0.776-7.563
	c0.229-1.97,0.512-3.934,0.771-5.899C92.792,155.187,79.438,164.783,61.397,165.758z M13.664,299.885
	c4.319,0.599,7.712,1.068,11.105,1.538c0.2,0.413,0.4,0.826,0.601,1.239c-2.58,2.019-5.16,4.038-8.01,6.27
	c3.646,1.955,6.532-4.652,9.54,0.022c-0.439,3.716-5.56,4.661-4.786,9.394c3.28-2.357,6.173-4.436,8.944-6.427
	c6.186,6.584,7.672,6.722,15.396,3.396c1.773-0.764,4.303-0.943,6.084-0.294c5.45,1.987,10.597,4.818,16.062,6.754
	c8.912,3.155,17.961,5.936,27.008,8.691c1.589,0.483,3.451,0.068,5.204,0.068c3.102-8.528,6.155-16.606,8.933-24.777
	c0.729-2.145,0.805-4.576,0.823-6.88c0.032-3.958-1.232-5.088-6.027-5.693c-3.25,10.265-6.52,20.596-9.62,30.391
	c-18.368-2.268-31.68-12.763-46.396-22.286c1.207-2.258,2.61-4.606,3.734-7.083c0.712-1.566,1.867-3.687,1.339-4.928
	c-2.106-4.955-4.796-9.662-7.396-14.708c-4.97,3.069-2.538,7.215-2.267,10.35c-2.246,1.894-4.646,3.148-5.829,5.131
	c-1.209,2.027-1.223,4.768-1.76,7.196c-0.468,0.033-0.937,0.065-1.405,0.099c-0.521-2.886-1.04-5.771-1.598-8.865
	c-6.362-4.742-12.315-5.514-16.55-1.521c3.079,1.731,6.011,3.381,9.069,5.101C23.731,297.545,17.452,295.117,13.664,299.885z
	 M123.724,355.133c-3.615,5.021-4.129,54.335-1.542,61.052c5.843,1.512,7.329,0.517,6.965-4.936
	c-1.143-17.068-2.327-34.135-3.597-51.194C125.447,358.677,124.573,357.356,123.724,355.133z M151.408,357.121
	c-3.973,0.643-3.721,3.113-3.642,5.375c0.265,7.486,0.352,14.99,0.958,22.45c0.642,7.902,1.801,15.763,2.744,23.724
	c3.33,0,5.681,0,8.278,0C156.935,391.282,154.214,374.465,151.408,357.121z M115.749,343.342c0,3.74,0,6.392,0,9.151
	c5.282,0,10.005,0,14.765,0c0.369-2.01,0.662-3.605,1.027-5.594c1.956-0.312,3.816-0.608,6.012-0.959c0-2.986,0-5.845,0-9.501
	c-4.121,0.49-7.881,0.346-11.118,1.574c-1.604,0.609-2.146,3.813-3.364,5.718c-0.809,1.263-1.967,2.301-3.128,3.62
	C118.494,345.967,117.565,345.079,115.749,343.342z M144.447,345.047c0.432,0.129,0.863,0.257,1.294,0.385
	c1.146,2.416,2.292,4.833,3.63,7.653c2.237-0.187,4.639-0.387,7.717-0.644c-0.166-3.129-0.306-5.766-0.445-8.402
	c-2.887-0.413-5.273-0.887-6.408-2.339c-1.239-1.586-1.321-4.077-1.907-6.174c-0.479-0.018-0.957-0.035-1.436-0.053
	C146.077,338.665,145.262,341.856,144.447,345.047z M90.491,152.429c-7.232-4.794-16.843,0.133-18.378,8.909
	C79.169,160.274,84.556,156.524,90.491,152.429z M130.329,265.385c1.475-1.393,2.944-2.782,4.771-4.51
	c-4.155-3.644-1.826-10.851-9.869-10.345C126.295,255.59,123.507,260.9,130.329,265.385z M159.777,412.674
	c-2.562,0.403-4.6,0.724-7.22,1.137c0.616,2.271,1.065,3.932,1.591,5.871c4.046-0.189,7.933,1.1,11.667-1.992
	C162.114,418.103,160.843,415.795,159.777,412.674z M123.137,425.774c2.372-0.541,4.48-1.021,6.703-1.528
	c-0.137-3.966-2.235-4.185-4.739-3.695C122.528,421.053,121.276,422.304,123.137,425.774z"/>
<path fill-rule="evenodd" clip-rule="evenodd" d="M98.546,210.042c1.73-0.766,3.001-1.598,4.386-1.898
	c11.363-2.469,22.773-4.726,34.11-7.305c3.522-0.801,6.865-2.394,10.481-3.692c2.743,0.928,3.298,2.895,2.718,5.812
	c-3.506,17.616-20.95,24.139-33.627,20.878C108.563,221.765,101.856,219.117,98.546,210.042z M105.957,210.986
	c-0.003,5.285,2.54,7.124,5.751,7.873c4.021,0.938,8.146,1.697,12.259,1.916c7.48,0.399,13.531-2.991,18.232-8.531
	c2.38-2.806,3.975-6.256,4.076-10.981C132.458,204.596,119.209,207.791,105.957,210.986z"/>
<path fill-rule="evenodd" clip-rule="evenodd" d="M132.299,169.289c0.774-3.85,3.372-8.567,5.926-8.811
	c1.663-0.159,3.881,0.671,5.106,1.839c1.963,1.869,1.42,7.136-0.729,9.7c-1.564,1.866-3.527,4.349-6.154,2.787
	C134.618,173.717,133.651,171.179,132.299,169.289z"/>
<path fill-rule="evenodd" clip-rule="evenodd" d="M119.962,188.823c1.861,1.041,5.871-0.714,5.906,3.336
	c0.026,2.987-0.531,6.153-4.618,8.174c0.239-1.727,0.362-2.733,0.522-3.733c0.146-0.923,0.334-1.839,0.601-3.292
	c-1.99,0.495-3.487,0.868-4.95,1.232c-2.294-3.383-3.411-18.13-1.262-21.727C120.064,177.75,116.373,184.144,119.962,188.823z"/>
<path fill-rule="evenodd" clip-rule="evenodd" d="M85.737,182.104c-3.012-0.939-5.337-2.512-5.084-6.237
	c0.263-3.88,2.622-6.437,7.093-7.72C93.289,172.676,92.43,179.004,85.737,182.104z"/>
<path fill-rule="evenodd" clip-rule="evenodd" d="M148.722,145.858c-7.578-9.566-15.152-3.504-23.142,0.275
	c0.21-1.593,0.075-2.357,0.396-2.741c5.038-6.023,16.582-7.265,22.649-2.512C150.351,142.232,151.696,143.559,148.722,145.858z"/>
</svg>
