<?xml version="1.0" encoding="utf-8"?>
<!-- Generator: Adobe Illustrator 16.2.1, SVG Export Plug-In . SVG Version: 6.00 Build 0)  -->
<!DOCTYPE svg PUBLIC "-//W3C//DTD SVG 1.1//EN" "http://www.w3.org/Graphics/SVG/1.1/DTD/svg11.dtd">
<svg version="1.1" id="Layer_1" xmlns="http://www.w3.org/2000/svg" xmlns:xlink="http://www.w3.org/1999/xlink" x="0px" y="0px"
	 width="214.201px" height="463.658px" viewBox="0 0 214.201 463.658" enable-background="new 0 0 214.201 463.658"
	 xml:space="preserve">
<path fill-rule="evenodd" clip-rule="evenodd" d="M140.533,191.115c1.483,4.021,2.635,8.165,3.866,12.276
	c1.391,4.642,6.976,8.39,10.872,7.673c8.794-1.618,17.64-2.946,26.452-4.468c9.319-1.609,18.636-3.237,27.919-5.04
	c1.303-0.254,2.403-1.549,4.559-3.016c-19.163-8.629-37.142-16.725-54.92-24.73c-1.101-5.003-1.842-9.783-3.242-14.362
	c-1.581-5.171-5.539-6.201-9.459-2.42c-1.65,1.592-2.455,4.169-3.326,6.421c-0.557,1.441-0.531,3.108-0.881,5.428
	c-5.875-2.294-11.132-4.256-16.311-6.405c-2.748-1.14-4.737-0.53-7.34,1.002c-4.784,2.816-10.106,4.721-15.736,7.244
	c-0.743-2.533-1.223-4.166-1.663-5.668c4.728-2.935,8.953-5.568,13.188-8.187c13.992-8.65,19.163-21.909,19.688-37.611
	c0.104-3.097,0.295-6.191,0.45-9.361c2.101-0.371,3.569-0.572,5.011-0.896c7.016-1.58,12.376-7.6,13.487-14.48
	c0.635-3.935,1.935-7.762,2.839-11.262c8.097-0.638,11.891-3.498,13.489-9.657c-0.913-0.185-1.853-0.641-2.694-0.501
	c-6.506,1.076-9.688-1.556-9.616-8.114c0.023-2.165,0.159-4.33,0.173-6.495c0.053-8.871-0.711-17.436-8.914-23.145
	c-0.149-0.104-0.019-0.612-0.019-1.113c0.669-0.355,1.387-0.753,2.118-1.123c2.17-1.098,3.258-2.73,2.807-5.259
	c-0.456-2.556-2.16-3.742-4.505-3.92c-1.961-0.147-3.97-0.012-5.926,0.242c-2.271,0.295-4.505,0.857-7.03,1.358
	c-0.357-1.512-0.878-2.615-0.827-3.691c0.165-3.454-1.719-5.197-4.698-6.182c-7.226-2.386-11.817-6.642-10.22-15.652
	c-1.709,0.219-3.217-0.032-4.073,0.6c-3.364,2.484-6.522,5.247-10.385,8.422c0.136,0.039-0.882-0.09-1.74-0.53
	c-8.553-4.393-17.809-5.162-27.185-5.44c-6.265-0.187-12.378,0.688-17.93,3.546c-3.032,1.562-5.716,2.583-8.841,0.674
	c-3.664,2.744-7.519,2.564-11.549,1.487c-5.55-1.481-9.323,1.048-9.439,6.656c-0.048,2.315,1.125,4.655,1.93,7.69
	c-3.438,1.803-6.972,3.954-10.737,5.567c-8.027,3.44-14.466,8.557-17.061,17.093C0.52,54.3-1.108,63.033,6.078,70.637
	c-1.119,10.671,4.455,19.47,8.703,28.646c-6.713,5.838-7.557,13.002-4.716,20.606c3.233,8.652,11.357,9.241,19.265,10.28
	c9.611,26.646,28.535,39.472,57.489,38.151c0.395,0.884,0.956,2.146,1.939,4.35c-3.163,0.297-5.571,0.845-7.934,0.687
	c-8.439-0.565-15.625,2.292-22.071,7.487c-1.607,1.295-3.291,2.495-5.148,3.896c-0.67-1.23-1.066-1.765-1.271-2.365
	c-1.076-3.151-1.836-6.447-3.264-9.426c-0.681-1.418-2.561-3.038-3.97-3.108c-1.358-0.067-3.262,1.45-4.131,2.787
	c-2.136,3.287-3.137,7.015-1.999,10.969c0.751,2.613,1.69,5.173,2.276,6.944c-2.264,1.021-4.314,1.637-6.023,2.769
	c-8.041,5.328-15.972,10.821-23.976,16.206c-2.989,2.01-6.056,3.923-9.808,6.323c-0.292,0.795-0.772,1.509-1.44,2.049
	c0.52,1.315,1.114,2.603,1.748,3.877c0.066,0.019,0.135,0.034,0.199,0.056c-0.057-0.182-0.106-0.356-0.168-0.541
	c4.458,0.329,8.082,0.515,11.688,0.881c7.455,0.757,14.898,1.642,22.354,2.4c1.808,0.185,4.044,0.895,4.65-2.433
	c-11.49-1.142-22.766-2.085-33.839-4.264c-0.132-0.563-0.265-1.127-0.396-1.69c9.325-6.162,18.65-12.325,28.25-18.669
	c1.795,7.973,1.206,9.155-5.338,11.021c-2.868,0.817-5.845,1.243-8.742,1.967c-1.078,0.27-2.071,0.882-3.103,1.338
	c0.127,0.488,0.254,0.978,0.382,1.467c6.122,1.093,11.831-2.872,17.78-2.451c6.759,11.286,9.22,13.358,13.979,11.882
	c-10.835-8.046-13.726-15.653-10.144-25.854c3.399-1.649,6.428-3.304,9.6-4.612c4.492-1.854,7.201-1.321,9.604,1.545
	c-4.921,3.215-11.334,3.479-16.702,7.755c3.874,1.942,5.977-0.392,8.35-1.045c2.503-0.689,4.851-3.208,8.191-0.374
	c-3.831,5.538-11.633,4.509-15.892,9.415c3.08,1.245,3.064,1.213,6.202-0.347c2.956-1.468,5.948-2.955,9.928,0.378
	c-4.748,2.308-8.954,4.351-13.16,6.395c0.211,0.53,0.423,1.061,0.635,1.591c4.704,1.894,7.637-4.006,12.681-3.549
	c-1.918,1.996-3.5,3.643-5.509,5.732c6.445,0.881,11.284-4.893,9.386-9.777c-0.796-2.049-1.52-4.126-2.371-6.448
	c3.462-1.062,6.079-1.866,9.098-2.793c0.921,2.793,1.859,5.091,2.438,7.477c4.51,18.595,8.032,37.437,8.364,56.55
	c0.437,25.115-0.579,50.252-0.529,75.378c0.04,19.813,0.559,39.632,1.244,59.435c0.293,8.474,1.617,16.908,2.345,25.371
	c0.487,5.661-0.635,7.306-5.737,9.615c-1.146,0.52-2.14,1.374-3.566,2.313c1.28,2.123,2.358,3.91,3.376,5.599
	c-0.682,1.337-1.791,2.505-1.77,3.653c0.073,3.963-2.524,5.532-5.51,6.854c-2.127,0.942-4.352,1.671-6.458,2.653
	c-1.866,0.871-3.631,1.961-5.341,2.899c1.77,4.83,2.804,5.56,8.232,4.927c11.572-1.349,23.114-2.959,34.681-4.36
	c6.266-0.76,12.63-2.22,18.813-1.711c6.859,0.564,12.709-0.602,18.663-4.596c-0.492-3.606-0.963-7.215-1.482-10.816
	c-1.063-7.363-3.244-14.553-2.185-22.223c0.349-2.527-1.24-5.413-2.251-8.016c-1.135-2.922-3.086-5.587-3.867-8.576
	c-2.693-10.305-5.608-20.604-7.361-31.087c-2.223-13.289-3.442-26.748-5-40.145c-1.346-11.578-2.619-23.166-3.771-34.765
	c-0.208-2.092,0.332-4.259,0.526-6.391c0.495-0.071,0.991-0.142,1.487-0.212c0.68,1.206,1.51,2.353,2.016,3.628
	c3.313,8.355,6.76,16.667,9.767,25.133c3.006,8.466,4.625,17.54,8.477,25.568c10.145,21.139,14.059,44.048,19.958,66.378
	c1.526,5.777,0.659,12.032-3.669,17.191c-2.832,3.374-2.472,5.013,0.731,8.113c1.609,1.559,3.166,3.171,4.25,4.259
	c-2.193,7.106-9.03,10.492-10.284,17.106c4.473,3.323,8.698,2.177,12.698,1.442c11.614-2.132,23.183-4.514,34.757-6.854
	c3.825-0.773,7.616-1.716,11.273-2.547v-7.077c-4.328-0.756-8.523-1.473-10.068-6.272c-1.214-3.771-2.495-7.519-3.771-11.35
	c0.216-0.367,0.426-0.826,0.724-1.219c3.267-4.295,3.103-4.673-1.82-6.958c-1.429-0.663-2.971-1.757-3.723-3.075
	c-2.143-3.752-4.253-7.593-5.754-11.629c-5.221-14.042-10.328-28.131-15.185-42.303c-3.239-9.45-6.136-19.026-8.896-28.63
	c-2.714-9.438-5.002-18.997-7.591-28.472c-2.607-9.539-2.499-19.543-5.139-29.085c-0.674-2.438-0.487-5.115-0.696-7.683
	c0.452-0.085,0.903-0.17,1.355-0.255c2.052,7.626,4.164,15.237,6.146,22.883c8.3,32.021,21.099,62.425,33.188,93.101
	c4.937,12.527,8.946,25.423,13.271,38.188c1.838,5.424,3.357,10.955,5.139,16.399c0.297,0.906,1.194,1.615,1.814,2.415
	c0.792-1.397,1.043-2.54,0.753-3.523c-3.139-10.667-5.808-21.516-9.673-31.917c-9.337-25.122-19.655-49.884-28.771-75.083
	c-5.766-15.939-10.075-32.407-15.048-48.635c-2.022-6.599-4.073-13.189-6.035-19.539c-3.943,1.411-7.243,3.074-10.732,3.748
	c-10.013,1.933-20.28,2.148-30.256,4.606c-5.85,1.441-11.94,1.91-18.794,2.948c-0.73-2.435-1.816-4.66-2.008-6.96
	c-0.521-6.263-0.045-12.661-1.085-18.816c-2.135-12.633-4.847-25.177-7.638-37.686c-1.189-5.33-1.475-10.144,2.784-14.279
	c0.374-0.363,0.391-1.096,0.769-2.257c-2.622,1.293-4.66,2.298-6.853,3.379c-2.492-4.241-4.633-7.883-6.743-11.475
	c5.561-5.245,11.439-7.666,18.683-6.678c0.423,1.545,0.762,2.979,1.207,4.381c1.98,6.225,5.614,8.646,12.039,7.625
	c7.704-1.224,12.736-6.11,16.226-12.747c0.522-0.993,0.228-2.416,0.311-3.641c-0.375-0.069-0.75-0.138-1.125-0.206
	c-2.151,4.865-4.803,9.277-9.911,11.775c1.901-3.755,3.663-7.234,5.595-11.05c10.391-6.048,21.249-9.477,32.843-0.088
	c-0.972,4.826-2.01,9.982-2.951,14.656C138.643,188.998,140.076,189.877,140.533,191.115z M154.814,203.059
	c1.654-2.716,3.385-3.778,8.366-4.943C161.348,202.802,160.592,203.214,154.814,203.059z M196.021,194.931
	c2.884,0.458,5.634,1.759,8.441,2.699l-0.199,1.67c-12.724,5.513-26.763,2.763-39.743,6.66c-0.082-0.364-0.164-0.729-0.245-1.094
	c1.24-2.062,2.481-4.125,4.146-6.892c6.606-0.729,13.813-1.515,21.018-2.323C191.644,195.404,193.919,194.597,196.021,194.931z
	 M188.876,191.652c-5.703,1.929-11.137,2.037-16.948,0.669c-6.97-1.641-8.029-6.938-9.594-13.098
	C172.313,181.504,180.243,187.271,188.876,191.652z M162.93,194.609c-4.744,1.985-9.242,3.867-13.99,5.854
	c-1.284-1.522-2.307-2.734-4.065-4.82c5.63-2.135,10.576-4.012,16.193-6.142C161.814,191.552,162.243,192.726,162.93,194.609z
	 M159.923,187.093c-5.58,1.477-10.06,2.662-14.882,3.939c-0.519-4.954,2.545-5.657,5.337-6.383
	C153.391,183.866,156.646,182.552,159.923,187.093z M143.42,174.134c1.683,2.312,2.843,3.907,4.003,5.503
	c0.361-0.106,0.722-0.213,1.082-0.32c0-0.995,0.18-2.03-0.034-2.978c-0.617-2.745-1.594-5.422-2.059-8.188
	c-0.632-3.758-0.07-7.21,4.049-9.614c5.796,6.101,4.549,13.472,4.573,20.812c-4.146,1.454-8.444,2.962-13.898,4.875
	C141.964,180.567,142.6,177.759,143.42,174.134z M45.537,189.595c-4.964-11.575-4.955-12.458,0.258-15.657
	c2.924,3.967,3.426,8.645,4.307,13.781C48.626,188.325,47.221,188.903,45.537,189.595z M65.615,460.275
	c-0.068-0.53-0.136-1.061-0.203-1.592c14.484-5.873,29.424-8.334,45.015-5.898c0.067,0.627,0.135,1.255,0.202,1.883
	C95.625,456.537,80.619,458.406,65.615,460.275z M116.316,355.423c1.557,11.854,4.08,23.599,6.585,35.304
	c1.907,8.914,3.384,18.056,8.771,25.838c0.432,0.623,0.615,1.62,0.506,2.385c-1.251,8.794,1.447,17.184,2.506,25.742
	c0.24,1.937,0.035,3.929,0.035,6.611c-2.607,0.836-4.906,1.573-7.22,2.315c-3.824-5.218-6.964-9.907-4.834-16.403
	c0.994-3.031,1.344-6.336,1.514-9.542c0.061-1.145-1.08-3.199-1.997-3.408c-5.169-1.173-6.23-5.196-6.83-9.379
	c-1.677-11.695-2.631-23.517-4.8-35.114c-4.096-21.892-3.285-44.136-5.464-66.156c-0.504-5.091,0.119-10.321,0.531-15.463
	c0.173-2.157,1.146-4.25,1.755-6.372c0.408,0.028,0.817,0.056,1.226,0.084c0.348,1.161,0.885,2.302,1.017,3.487
	C111.841,315.377,113.695,335.45,116.316,355.423z M199.684,446.905c-14.143,6.011-40.771,10.894-47.26,8.817
	C159.062,446.874,185.643,441.733,199.684,446.905z M137.192,266.69c3.001,1.835,4.259,6.253,3.964,12.834
	C138.066,277.56,136.57,272.942,137.192,266.69z M132.311,266.779c0.895,2.97,1.674,5.599,2.479,8.219
	c1.164,3.791,1.892,7.71,6.475,9.391c1.239,0.455,2.263,2.878,2.484,4.519c3.114,23.066,10.522,45.031,17.349,67.113
	c4.172,13.498,9.325,26.694,14.13,39.992c2.029,5.618,4.038,11.271,6.559,16.672c1.386,2.971,3.815,5.454,6.342,8.939
	c-3.063,6.327,3.681,11.813,3.431,19.097c-10.198,1.494-20.755,3.04-31.888,4.671c2.104-6.101-3.442-8.973-6.573-13.299
	c3.794-8.063,12.796-7.833,18.769-12.076c-0.095-0.384-0.19-0.769-0.285-1.152c-3.958,0.821-7.915,1.644-11.872,2.466
	c-0.194-0.399-0.39-0.798-0.585-1.196c5.09-2.952,10.18-5.903,15.269-8.854c-0.173-0.356-0.346-0.713-0.52-1.069
	c-4.55,1.738-9.1,3.477-14.316,5.47c-1.759-6.118-3.357-11.655-4.942-17.196c-4.162-14.548-7.952-29.215-12.578-43.614
	c-4.777-14.87-10.343-29.488-15.609-44.199c-1.737-4.855-3.652-9.646-5.416-14.492c-0.553-1.52-0.873-3.122-1.316-4.748
	c2.637-0.807,4.862-1.487,7.088-2.168c-0.1-0.533-0.198-1.066-0.297-1.6h-9.051c-1.453-5.98-2.805-11.539-4.39-18.061
	C119.665,268.632,125.624,267.759,132.311,266.779z M109.844,270.292c1.379,4.669,2.697,9.135,4.133,13.996
	c-1.749,0.642-3.047,1.118-4.301,1.578C106.118,278.729,105.96,272.669,109.844,270.292z M86.118,276.038
	c1.774,3.897,1.544,5.796-1.362,9.261C82.258,280.242,82.724,277.567,86.118,276.038z M82.029,348.79
	c0.174-17.653,0.317-35.307,0.516-52.959c0.024-2.128,0.311-4.253,0.483-6.478c8.04-1.9,6.924-8.563,7.806-14.662
	c3.583-1.04,7.178-2.083,10.986-3.188c3.327,4.658,3.162,9.648,4.288,14.974h-8.246l-0.428,1.26c1.812,1,3.625,2,5.936,3.274
	c0,1.298-0.016,3.074,0.002,4.852c0.108,10.805,0.114,21.612,0.376,32.414c0.177,7.316,0.353,14.665,1.161,21.93
	c2.521,22.652,5.439,45.26,7.962,67.912c0.495,4.447,0.937,8.332,6.745,8.94c-0.76,1.749-1.325,3.053-1.763,4.061
	c0.827,7.024,1.617,13.736,2.475,21.015c-13.627-3.425-27.445-3.693-41.389-1.554c-0.115-0.549-0.231-1.098-0.347-1.646
	c1.728-0.717,3.456-1.434,5.315-2.205c1.824-4.354-3.908-5.286-4.114-8.661c0.097-0.216,0.13-0.468,0.237-0.506
	c7.074-2.515,7.076-7.613,6.061-14.026C82.174,398.784,81.782,373.795,82.029,348.79z M68.878,195.667
	c-2.021,1.423-3.796,2.673-6.195,4.363c-0.215-9.602-0.215-9.602-6.46-13.062c1.185-0.755,2.151-1.372,3.336-2.127
	C62.682,188.469,65.568,191.822,68.878,195.667z M149.643,96.856c-1.744,4.591-5.176,7.708-9.717,9.38
	c-1.769,0.651-4.176,1.414-5.091-1.517c2.459-0.894,4.99-1.3,6.824-2.652c1.332-0.982,1.743-3.215,2.564-4.891
	c-1.547-0.666-3.07-1.396-4.651-1.964c-0.577-0.208-1.292-0.034-3.092-0.034c1.493-3.611,2.795-6.761,4.16-10.063
	c-3.726-1.682-4.052,2.418-6.023,3.609c-0.941-3.13-0.506-4.245,2.435-6.284c2.847-1.975,5.733-2.523,8.69-0.18
	C149.302,85.082,151.367,92.314,149.643,96.856z M39.386,22.947c0.92-5.408-6.515-2.614-6.248-8.047
	c0.182-0.312,0.895-1.531,1.661-2.843c1.439,0.232,2.559,0.443,3.686,0.588c4.83,0.62,9.318,0.333,14.032-1.804
	c16.279-7.379,32.756-6.231,48.911,0.6c3.281,1.388,5.928,4.307,9.964,3.276c0.45-0.115,0.858-0.396,1.271-0.594
	c-1.733-6.129-1.637-6.476,2.84-9.245c0.596,1.132,1.253,2.209,1.749,3.355c1.873,4.328,5.029,7.38,9.21,9.446
	c5.498,2.718,5.97,3.713,4.581,9.63c-0.146,0.621-0.284,1.244-0.648,2.842c2.131-0.268,3.783-0.285,5.322-0.711
	c2.72-0.753,5.316-2.06,8.069-2.544c1.859-0.327,3.896,0.358,6.311,0.645c-1.998,5.238-6.166,3.953-9.203,4.827
	c-0.987,3.037,0.889,4.292,2.851,5.157c7.607,3.354,11.112,8.998,10.656,17.38c-0.314,5.781-0.06,11.595-0.06,18.043
	c1.78,1.296,4.151,3.021,6.607,4.808c-2.387,3.519-3.83,0.001-6.587-0.305c-0.924,1.331-2.126,3.062-3.131,4.51
	c-2.765-1.634-5.639-4.478-8.823-4.883c-3.015-0.384-6.354,1.792-10.151,2.354c0.928-1.113,1.855-2.227,3.006-3.608
	c-0.728-1.043-1.525-2.188-2.585-3.707c1.057-1.531,2.229-3.108,3.268-4.77c0.906-1.45,1.661-2.996,2.92-5.3
	c-4.231,0.213-7.435,0.374-11.056,0.556c5.487-14.02,5.5-14.925-0.053-17.719c-0.295,1.836-0.555,3.449-0.831,5.171
	c-5.411-0.036-4.763-6.22-8.486-8.51c-1.433,2.236-2.769,4.323-4.47,6.979c-1.849-3.221-3.293-5.736-4.813-8.385
	c-4.975,0.013-5.365,8.114-11.379,5.684c0.214-2.352,0.445-4.891,0.783-8.609c-11.146,7.616-17.942,0.616-25.233-5.104
	c-2.911,1.685-2.185,3.535-0.546,5.627c1.405,1.793,2.643,3.718,4.19,5.922c-4.277,2.049-7.846,1.318-10.618-1.15
	c-2.401-2.138-4.007-5.169-6.703-8.799c-1.958,5.544,2.266,11.427-3.386,14.5c-7.856-2.708-9.003-9.145-3.797-21.298
	c-3.146-1.206-5.197,0.542-5.4,3.041c-0.413,5.057-0.452,10.25,0.301,15.244c0.304,2.013,2.819,4.062,4.805,5.372
	c3.641,2.402,6.466,1.39,8.606-2.469c0.472-0.852,0.93-1.709,1.405-2.583c7.587,2.132,15.187,6.938,22.483-1.295h7.776
	c0.207,0.383,0.415,0.767,0.622,1.149c-1.893,1.253-3.786,2.506-5.679,3.759c-3.172,2.1-6.449,4.062-9.444,6.39
	c-0.814,0.634-0.776,2.365-0.425,4.178c6.433-7.527,15.017-8.649,23.621-9.628c1.153-0.131,2.38,0.387,3.601,1.074
	c-8.342,0.479-16.148,2.058-22.502,8.08v7.248c9.887-7.796,19.633-12.401,32.102-4.602c0.776-0.705,1.778-1.613,2.798-2.538
	c-1.802-2.536-2.717-3.824-3.93-5.531c1.558-1.487,3.047-2.908,4.189-3.999c3.753,1.482,6.908,2.729,10.744,4.244
	c-0.682,1.117-1.491,2.586-2.439,3.96c-0.918,1.33-1.978,2.562-3.895,5.013c3.676,1.63,6.401,2.839,9.362,4.152
	c-0.426,0.772-0.874,1.586-0.875,1.588c-7.722,0.788-14.729,1.526-21.74,2.213c-7.935,0.777-15.865,1.626-23.815,2.193
	c-2.773,0.198-4.026,1.28-3.851,3.956c0.107,1.642,0.425,3.27,0.682,5.148c-5.848,0.534-11.512,1.052-17.253,1.576
	c-3.139-5.406-3.132-5.359-9.141-3.312c-7.403,2.522-14.831,4.976-22.269,7.393c-1.702,0.554-3.491,0.839-5.398,1.284
	c-1.201-2.548-1.574-4.679,0.421-6.602c6.278-6.055,12.699-11.721,22.646-6.347c0.333-2.956,0.596-5.29,0.851-7.56
	c-8.854-8.98-13.677-7.624-23.992-0.072c1.851-6.016,3.876-10.894,4.777-15.972c1.072-6.042,8.966-4.819,10.578-11.172
	c-2.362,1.137-4.043,1.945-5.988,2.882c-1.147-1.548-2.285-3.083-3.829-5.166c0.092-1.868,4.489-3.565,2.441-7.715
	c-1.706,0.888-2.934,1.663-4.262,2.175c-1.156,0.445-2.428,0.592-4.657,1.102C28.776,27.561,33.702,24.793,39.386,22.947z
	 M128.439,97.536c-12.254,1.577-23.865,3.071-36.035,4.637c-4.321-6.963-3.504-15.215-5.91-23.481
	c12.486-2.009,24.479-3.938,36.386-5.854C128.274,80.602,127.86,88.605,128.439,97.536z M26.211,77.244
	c1.042-4.571,5.537-8.602,11.772-10.066C34.168,70.44,30.353,73.703,26.211,77.244z M12.273,85.013
	c1.423-2.012,2.433-3.439,3.831-5.417h-5.519c-4.731-7.251,3.608-12.277,3.61-18.579c-0.397-0.271-0.796-0.543-1.193-0.814
	c-1.814,1.636-3.629,3.271-6.097,5.495c-0.874-1.733-2.08-3.259-2.431-4.961C1.943,48.434,9.723,35.799,22.373,31.91
	c0.281,3.644,1.219,6.938,5.311,6.974c4.24,10.255,0.394,19.007-3.753,28.301c-2.046-1.668-3.553-2.897-5.483-4.473
	c-3.676,3.281-1.767,7.37-1.437,10.778c0.325,3.353,1.229,7.217,5.813,7.558c2.059,6.132-0.59,10.534-6.275,14.555
	C15.062,91.922,13.609,88.32,12.273,85.013z M14.145,120.954c-3.326-4.257-3.324-9.429-0.898-14.117
	c0.877-1.696,3.414-3.433,5.265-3.513c2.704-0.117,4.185,2.18,3.987,5.316c-2.307,0.373-5.213-2.72-7.134,1.653
	c1.5,0.88,2.972,1.742,4.442,2.604c0.64,9.682,0.687,9.749,7.441,10.402c0.222,0.841,0.461,1.749,0.799,3.027
	C22.146,127.094,17.453,125.188,14.145,120.954z M26.455,94.741c10.775-3.666,19.864-9.867,31.734-9.615
	c0,5.723,0.163,10.666-0.057,15.593c-0.152,3.403-2.342,5.059-5.661,5.956c-7.471,2.021-14.838,4.423-23.004,6.899
	C28.403,106.918,27.482,101.16,26.455,94.741z M70.309,164.06c-19.035-4.098-32.564-16.057-37.859-35.736
	c-0.818-3.041-1.754-6.051-2.571-9.092c-0.117-0.434,0.128-0.965,0.322-2.182c11.52-3.303,22.923-6.573,34.552-9.907
	c2.958,5.162,1.631,13.108,10.073,15.226c1.002-1.451,2.029-2.939,3.731-5.406c-2.75,0.301-4.241,0.464-6.455,0.706
	c-0.903-2.071-2.397-4.205-2.722-6.503c-0.759-5.392-1.019-10.857-1.356-16.301c-0.174-2.794,1.469-4.286,4.098-4.771
	c3.235-0.598,6.479-1.148,10.662-1.885c0.79,4.729,1.659,8.874,2.137,13.063c0.621,5.454,2.04,6.026,7.505,5.187
	c12.139-1.865,24.371-3.121,36.571-4.581c0.603-0.072,1.257,0.281,2.488,0.585c0,2.062,0.062,4.137-0.012,6.208
	c-0.211,5.982-0.144,12-0.796,17.937c-1.104,10.06-6.015,18.402-13.722,24.693C103.381,162.381,87.307,167.72,70.309,164.06z
	 M91.955,179.07c0.702-1.016,1.388-2.008,2.055-2.974c-0.839-2.832-1.668-5.629-2.705-9.129c2.402-0.36,3.828-0.573,5.474-0.82
	c1.801,3.847,3.516,7.507,5.326,11.374C99.284,181.927,97.494,182.295,91.955,179.07z"/>
<path fill-rule="evenodd" clip-rule="evenodd" d="M124.29,184.718c3.913,2.899,7.638,5.659,10.011,7.417
	c2.044,11.353,3.558,21.335,5.693,31.182c2.254,10.391,5.122,20.646,7.664,30.975c0.318,1.294,0.282,2.675,0.41,4.016
	c-0.482,0.18-0.965,0.359-1.447,0.539c-0.698-1.241-1.742-2.404-2.043-3.735c-3.44-15.235-6.774-30.494-10.119-45.75
	c-0.712-3.245-1.792-6.489-1.922-9.765c-0.175-4.403-2.104-7.128-5.978-8.854C124.439,189.797,122.1,188.799,124.29,184.718z"/>
<path fill-rule="evenodd" clip-rule="evenodd" fill="#FFFFFF" d="M37.983,67.178c-3.815,3.263-7.631,6.525-11.772,10.066
	C27.253,72.673,31.748,68.643,37.983,67.178z"/>
<path fill-rule="evenodd" clip-rule="evenodd" d="M99.467,29.409c-2.22,1.67-5.186,3.496-8.392-0.112
	c-2.986-3.36-4.064-8.383-2.005-11.815c3.612,2.444,1.186,8.998,6.916,10.044c1.133-1.891,2.298-3.836,3.909-6.526
	c1.667,2.258,2.625,3.953,3.964,5.257c1.34,1.304,3.061,2.216,4.614,3.299c-0.069,0.373-0.139,0.746-0.208,1.119
	C105.576,30.287,102.888,29.901,99.467,29.409z"/>
<path fill-rule="evenodd" clip-rule="evenodd" d="M64.241,141.887c-0.953-1.986-1.804-3.757-2.937-6.118
	c1.395-0.694,2.594-1.406,3.874-1.913c10.671-4.227,21.41-8.289,32.008-12.69c3.277-1.361,6.183-3.617,9.958-5.884
	c0.46,1.108,1.515,2.375,1.33,3.423c-0.894,5.065-1.436,10.354-3.364,15.045c-4.762,11.581-15.641,15.894-28.646,12.02
	C72.485,144.583,68.548,143.259,64.241,141.887z M67.114,136.696c-0.019,0.577-0.037,1.154-0.056,1.731
	c6.16,3.876,12.917,6.222,20.367,5.635c10.707-0.846,18.277-11.188,15.921-22.237C91.186,126.816,79.15,131.757,67.114,136.696z"/>
<path fill-rule="evenodd" clip-rule="evenodd" d="M107.454,79.873c3.43,2.111,3.139,5.072,2.27,8.035
	c-0.796,2.714-1.807,3.244-5.607,3.66C100.408,86.381,101.483,82.226,107.454,79.873z"/>
<path fill-rule="evenodd" clip-rule="evenodd" d="M44.382,91.7c4.021,1.562,5.846,7.521,3.049,10.317
	c-1.868,1.869-3.614,1.152-4.931-0.844C40.318,97.867,40.936,94.872,44.382,91.7z"/>
</svg>
