<svg xmlns="http://www.w3.org/2000/svg" width="192.799" height="503.904" viewBox="0 0 192.799 503.904"><path fill-rule="evenodd" clip-rule="evenodd" d="M192.063 267.352c1.375-4.701.854-8.232-1.833-12.048-4.694-6.665-9.207-13.461-13.66-20.29-11.111-17.042-25.095-31.677-37.674-45.896-12.363-1.655-23.517-3.148-33.844-4.531-2.266-3.659-1.478-5.582.753-7.123 1.917-1.324 4.23-2.273 5.733-3.956 4.579-5.128 8.851-10.53 12.834-15.334 3.746-.603 8.154-.217 11.094-2.111 2.613-1.684 4.83-2.884 7.893-3.164 5.361-.49 9.145-3.508 9.229-8.145.08-4.324 2.453-6.641 5.284-9.017.964-.809 1.865-1.693 2.768-2.517-2.118-4.877-7.299-.352-9.582-3.761 13.827-8.362 14.872-10.351 9.936-18.825 5.623-6.688 5.62-6.721-1.076-14.096.468-4.857 7.437-6.501 6.166-12.177-6.85-2.524-9.217-4.073-11.351-8.641-1.459-3.124-2.267-6.561-3.279-9.884-2.663-8.743-5.065-17.574-8.025-26.215-1.104-3.222-3.523-5.938-7.421-6.264-2.061 2.242-.633 3.236.871 4.574 1.562 1.388 3.325 3.024 3.953 4.902 2.64 7.884 5.427 15.788 7.095 23.903 1.192 5.804 3.543 10.715 7.136 15.128 1.729 2.123 4.097 3.727 6.428 5.788l-7.507 9.754 8.137 6.946c-2.917 2.359-5.278 4.269-8.095 6.546l6.733 5.128c-3.064 7.14-8.71 10.12-16.039 10.541-1.243 7.369 5.258 6.257 8.927 8.673-2.529 2.415-4.72 4.506-6.893 6.58l2.376 3.913c-2.328 4.014-5.766 4.927-9.6 4.058-3.053-.692-5.122-.402-6.39 2.812-.945 2.397-3.231 2.441-5.078 1.485-1.398-.725-3.272-2.295-3.327-3.557-.313-7.384-.154-14.786-.154-22.626 4.011 1.339 6.316 5.716 10.961 2.517-3.742-2.656-7.13-5.061-10.989-7.801.824-6.463-3.425-14.298 4.069-20.952l3.621 2.069-4.387 7.049c3.467.882 5.766-1.02 7.291-3.963 1.782-3.44.619-5.287-5.937-10.109l3.472-5.447c-6.591-1.108-5.984 5.354-9.479 7.525-.265-1.051-.534-1.799-.635-2.569-.802-6.126 1.258-9.2 7.015-10.535 3.825-.887 7.495 1.575 9.376 6.48 1.899 4.953 1.335 9.844-.9 14.543-2.047 4.304-4.739 7.948-10.9 7.973 2.635 3.335 4.901 3.052 7.317 1.309 8.134-5.865 10.923-19.355 5.804-27.969-3.328-5.599-8.119-7.121-14.045-4.458-1.295.582-2.585 1.175-4.362 1.982-1.014-4.276-1.901-7.954-2.754-11.639-1.115-4.815-2.596-9.653.667-14.279.059-.082-.339-.485-.701-.981-.675.344-1.391.689-2.089 1.068-5.543 3.015-7.39 2.116-8.264-4.078-.187-1.317-.017-2.724-.413-3.959-.318-.995-1.244-1.795-2.371-3.317-2.374 4.103-.95 9.208-6.493 11.127-1.528-7.332-3-14.399-4.472-21.467l-2.066-.436c-2.862 13.814-8.724 25.557-21.422 33.533-.149-4.8 1.938-9.23-1.915-13.494-1.14 1.626-2.041 2.893-2.923 4.173-1.317 1.913-2.351 4.114-3.984 5.696-3.671 3.554-7.786 6.44-13.415 6.122 1.759-4.253 3.472-7.971 4.82-11.816.811-2.312-.414-3.361-3.347-2.974-1.629 8.162-6.444 13.76-14.206 16.715-3.099-3.531.246-9.119-3.647-11.88l-1.716.412 1.179 13.575c-1.793 0-3.159.34-4.198-.098-1.006-.424-1.675-1.647-2.667-2.706-1.95 5.057-1.896 5.105 7.166 6.878.271 1.236.695 2.641.879 4.075 1.455 11.395 2.498 22.855 4.376 34.179 2.757 16.622 6.663 32.844 16.218 47.31 5.76 8.721 13.562 13.592 23.327 15.673 4.305.917 8.849.709 13.485 1.026 1.813 2.341 1.185 4.723-1.136 6.288-3.557 2.4-7.297 4.6-11.171 6.438-4.457 2.116-9.144 3.749-13.229 5.39-1.708 9.433-3.176 18.28-4.972 27.062-.629 3.078-2.066 5.991-3.323 9.508.166 1.468 1.05 3.832.57 5.876-4.479 19.099-6.486 38.794-13.64 57.245-3.964 10.228-8.016 20.423-12.118 30.596-.521 1.294-1.594 2.367-2.49 3.655-6.433-2.641-12.447-5.109-18.461-7.577l-1.115 1.253c.566 1.561.791 3.394 1.771 4.623 1.745 2.188 4.137 3.861 5.887 6.047 1.012 1.264 2.204 3.454 1.755 4.635-2.26 5.938-5.033 11.68-7.957 18.231-.09-.125.298 1.019 1.045 1.35 5.754 2.547 11.439 5.388 17.426 7.229 4.658 1.433 6.956-.329 9.018-4.883 1.081-2.389 2.186-4.767 3.011-6.564-.41-7.051-4.73-10.571-9.981-13.733-5.048-3.038-9.665-6.799-14.405-10.33-.777-.579-1.213-1.616-2.139-2.902 6.395.677 9.787 6.746 15.887 6.682 1.294-2.65 2.6-4.949 3.572-7.381 5.522-13.803 13.178-26.734 15.518-41.824 1.859-11.995 4.898-23.81 7.47-35.692.977-4.514 2.108-8.994 3.328-14.163l11.473 3.271c-8.749 36.946-14.216 73.821-30.756 107.775 1.491-.596 2.388-1.451 2.831-2.499 3.826-9.038 6.901-18.472 11.524-27.076 4.878-9.076 6.042-18.72 7.265-28.528.103-.819.432-1.607.62-2.419 3.283-14.109 6.559-28.222 9.845-42.331.371-1.594.796-3.176 1.195-4.763l1.281.177c1.219 7.695 2.554 15.375 3.63 23.091 1.794 12.851 3.568 25.706 5.041 38.596.519 4.541 2.84 9.612-2.791 13.516 1.736.72 2.856 1.184 4.382 1.815l.464 7.599c1.271 3.139 2.519 6.401 2.907 9.763 1.664 14.387 2.837 28.833 4.638 43.201 2.442 19.484 5.153 38.938 8.021 58.365 2.018 13.661 4.578 27.241 6.657 40.895.292 1.92-.133 4.639-1.344 5.971-3.888 4.276-8.336 8.04-12.483 12.087-.899.878-1.45 2.113-2.161 3.184l.871 1.169c12.107-.418 22.261-7.551 33.586-10.663.485-.133.62-1.54 1.223-3.184-8.672.794-15.266 6.876-23.732 5.849 1.369-1.893 2.896-3.664 4.816-4.379 2.896-1.078 6.094-1.312 9.112-2.099 4.468-1.163 8.892-2.496 12.878-3.627l4.112 3.57 1.12-.369c0-1.985.227-4.003-.055-5.947-.379-2.618-1.268-5.159-1.732-7.771-3.443-19.345-6.849-38.696-10.241-58.05-3.794-21.643-7.622-43.28-11.273-64.947-.502-2.977-.069-6.11-.069-9.944l7.806.426-.421-.5 7.964-4.424c.975 5.399 1.711 9.612 2.497 13.816 4.127 22.071 8.259 44.143 12.406 66.21 2.889 15.371 5.778 30.742 8.758 46.096.265 1.361 1.201 2.593 1.825 3.884l1.582-.438c-.12-1.478-.081-2.987-.384-4.426-3.773-17.914-7.842-35.771-11.33-53.739-2.918-15.034-5.262-30.184-7.689-45.31-1.368-8.526-2.343-17.115-3.615-25.658-.217-1.45-1.045-2.81-1.611-4.266l-7.043 2.024c-.509-3.07-1.141-5.771-1.375-8.505-.632-7.374 1.408-9.336 9.486-9.096 2.469 3.536 4.597 8.256 11.04 5.468-2.636 7.405 4.481 9.719 5.464 14.686-.23 3.593-.335 7.19.24 10.676.921 5.576 2.564 11.036 3.431 16.618 4.596 29.621 9.218 59.224 16.599 88.33 1.949 7.688 2.868 15.635 4.305 23.708-7.34 3.396-14.533 2.271-21.299 2.489-3.533 9.97-14.334 12.277-19.89 20.158 3.397 2.764 6.806 1.906 9.849 1.024 10.072-2.917 20.065-6.113 30.036-9.361 1.022-.334 1.694-1.743 2.529-2.653l-.912-1.578c-5.175 1.776-10.317 3.658-15.534 5.301-5.453 1.718-10.979 3.205-16.473 4.793l-.706-1.337c2.896-2.292 6.208-4.218 8.606-6.948 6.437-7.328 15.218-5.863 22.996-7.402l3.311 4.48c1.149-1.512 1.291-2.607 1.534-3.681.29-1.281.666-2.543.706-2.69-12.188-45.855-19.689-91.543-27.062-137.654l4.958 1.253 6.241-12.631c.458.058.951.082 1.428.184 5.112 1.091 6.492-.137 5.604-5.272-.452-2.617-1.158-5.201-1.912-7.753-.862-2.915-.643-5.349 1.517-7.824 11.033-12.658 18.004-27.414 22.698-43.47zm-167.356 80.238l1.032 1.27c-1.34 2.736-2.792 5.424-3.983 8.223-.979 2.296-1.671 4.714-2.479 7.082l.07.049c1.475-1.535 3.217-2.91 4.292-4.688 1.431-2.363 2.168-5.137 3.46-7.599.561-1.068 1.76-1.802 2.669-2.687l1.489 1.083c-1.925 3.637-3.796 7.304-5.794 10.899-.994 1.788-2.448 3.43-.922 5.482l.313.15c1.212-1.655 2.56-3.232 3.575-5.002 1.882-3.275 3.552-6.672 5.615-10.598l3.2 2.813-7.584 15.262-4.772-2.459-.034-.017-.097.129-.217-.279c-1.731-.831-3.463-1.662-5.195-2.492l-.132.136.062-.185c-.758-.555-2.07-1.115-2.064-1.661.055-4.849.75-9.639 3.807-13.598.672-.867 2.431-.896 3.689-1.313zm81.236-156.556c.682-2.577 2.273-3.021 4.793-.938-2.064 3.896-4.104 7.743-6.144 11.59l-.896-.255c.736-3.47 1.34-6.973 2.247-10.397zm-22.022-10.638c-11.287-.168-20.045-4.556-26.506-14.019-11.553-16.924-15.157-36.303-17.927-55.975-1.066-7.576-1.873-15.191-2.724-22.797-.293-2.619-.361-5.264-.592-8.81 3.481-.769 6.77-2.077 10.07-2.107 8.18-.075 14.854-3.08 20.445-8.87.417-.432.967-.734 1.569-1.183.94 2.826-1.975 5.925 1.686 8.399 5.739-1.82 9.812-6.356 13.596-10.787 3.809-4.46 6.646-9.749 10.451-15.492.521 2.906.929 5.264 1.367 7.614 1.469 7.884 3.787 8.798 10.011 3.76 1.118 1.392 2.03 3.064 3.417 4.101 1.396 1.042 3.264 1.45 5.562 2.399.701 8.939 6.19 17.579 3.383 25.478 1.231 5.731 2.689 9.79 2.881 13.907.633 13.609.923 27.237 1.127 40.861.205 13.638-7.699 22.239-18.746 28.4-5.823 3.249-12.17 5.223-19.07 5.121zm11.478 1.674l3.978-.806c2.802 5.586 5.879 10.798 1.222 17.257l-5.474-5.457.933-.42c-.206-3.296-.412-6.592-.659-10.574zm16.068 156.36c-.346 1.473-.91 2.705-.866 3.915.122 3.318.274 6.665.812 9.936 2.94 17.9 5.918 35.796 9.04 53.666 4.067 23.284 8.304 46.538 12.399 69.817.393 2.227.306 4.538.464 7.185-6.271 1.312-12.068 2.523-18.579 3.886-.967-2.798-2.239-5.332-2.706-8.006-4.355-24.932-8.842-49.845-12.714-74.853-1.909-12.325-2.59-24.84-3.86-37.266-.762-7.451-1.603-14.895-2.372-22.345-.167-1.614-.182-3.244-.283-5.187 6.621-.23 6.621-.23 6.955-11.562 5.18-1.742 10.615-3.57 17.102-5.753l.909 16.566h-6.301zm-17.465-9.008l1.437-.243 1.737 6.747c-5.123-1.968-5.397-2.827-3.174-6.504zm45.697-7.645l-3.298-5.27c3.346-.638 5.347-1.02 7.572-1.443.822 4.028-1.907 4.75-4.274 6.713zm5.842-14.379c-.696 2.68-1.324 4.646-4.174 5.435-14.102 3.908-28.188 7.875-42.287 11.788-.376.104-.855-.165-2.064-.431l14.1-9.438-.779-1.301-18.646 9.325c-3.299-3.151-1.744-4.715.83-6.025 6.377-3.247 12.787-6.432 19.131-9.743 2.287-1.194 4.425-2.676 6.631-4.026l-.63-1.106c-9.265 4.498-18.53 8.997-28.491 13.834-.642-2.715-1.246-4.553-1.495-6.438-2.229-16.83-4.219-33.693-6.64-50.496-1.754-12.176-4.008-24.282-6.178-36.395-.229-1.274-1.396-2.38-2.592-3.332-2.761 7.164 2.469 13.189 2.203 19.747-3.74 1.419-6 1.084-12.403-1.83 0-1.051-.228-2.376.036-3.594 1.831-8.445 3.775-16.865 5.658-25.298.679-3.043 2.545-4.822 5.454-5.889 3.432-1.258 6.808-2.706 10.093-4.308 2.499-1.218 4.591-.661 6.423 1.018 3.435 3.146 6.723 6.449 10.093 9.665 1.015.968 2.101 1.861 3.467 3.065l10.471-22.445c7.981 1.138 15.197 2.102 22.381 3.266.986.16 1.91 1.219 2.697 2.024 5.342 5.474 10.669 10.964 15.929 16.517 1.101 1.163 1.899 2.612 2.955 4.097l-6.769 7.766-15.378-15.905c-.269 2.512-.811 4.448-.62 6.31 1.376 13.403 2.712 26.816 4.441 40.177 1.216 9.394 3.5 18.662 4.442 28.073.858 8.576 4.018 17.012 1.711 25.893zm-.556-33.436c-.371-2.437-.676-4.884-.895-7.336-.36-1.645-.461-2.922-.264-3.879l-.044-1.229c-.556-1.122-.697-2.46-.423-3.692l-.121-.232c-.078-.147-.131-.309-.192-.466l-.3.053c-2.983-13.561-2.512-26.927-3.306-40.357 12.049 10.084 21.144 22.236 29.56 35.438l-.339.234c1.358.61 2.21 1.812 2.555 3.163l.452-.188c1.846 3.771 5.449 6.13 4.522 11.417l-1.012.146c.452 1.612.171 3.456-.842 4.774l.068.012c-3.427 12.366-10.926 22.012-18.722 32.836-1.088-2.656-1.63-4.34-2.442-5.88-1.268-2.401-2.714-4.708-4.094-7.049-.336-.568-.918-1.073-1.033-1.676-.523-2.733-1.022-5.478-1.525-8.278-.69-2.587-1.207-5.216-1.603-7.811zm19.581 38.428c-1.104 1.203-2.062 2.54-3.197 3.951l2.336 3.394c-6.738 4.94-3.246 13.879-8.003 20.8l-4.985-6.442.792-.896 3.752 2.089c1.018-5.72 1.964-11.037 2.91-16.355l-1.146-.577c-.729 1.049-1.534 2.054-2.164 3.159-.678 1.187-1.191 2.468-1.776 3.708l-1.349-.371c.371-3.392.741-6.783 1.235-11.31-5.036 2.968-2.726 8.06-5.752 11.254v-10.295l.819.287 2.887-4.143-.053-.01.062-.113-3.123-2.734 1.704-8.29 1.112.101c1.144 3.57 2.538 7.123.307 10.924l.048.042-.057.081c2.462.584 4.549.167 6.044-2.124 8.997-13.791 18.371-27.371 23.997-43.039.272-.76.382-1.578.461-1.914-9.471-12.918-18.677-25.475-28.334-38.648 2.224-2.271 4.425-4.52 6.987-7.138 4.38 5.612 8.496 10.398 12.058 15.566 5.277 7.659 10.092 15.638 15.25 23.382 1.997 2.998 2.3 5.884 1.497 9.407-4.011 17.603-12.133 32.975-24.319 46.254zM26.815 141.602c-9.727-2.204-10.211-2.872-7.798-10.22-2.641-2.233-5.925-3.98-7.658-6.711-2.854-4.498 3.696-4.985 4.643-8.828-2.45-1.537-5.101-3.087-7.627-4.816-2.516-1.724-4.906-3.628-7.553-5.603 1.103-1.247 1.434-1.978 1.953-2.154 5.74-1.953 7.261-3.745 7.61-9.796.153-2.646-.185-5.317-.167-7.976.032-4.718.165-9.435.269-14.829-3.346-2.479-9.66-3.639-10.487-10.862 3.964-1.715 7.964-2.948 11.404-5.083 3.016-1.872 5.816-4.438 7.993-7.252 7.31-9.453 14.933-18.563 25.226-24.908 7.795-4.806 15.731-9.771 24.832-11.386 7.94-1.409 16.134-1.402 24.218-1.993 1.3-.095 2.626-.175 3.913-.027 1.299.149 2.565.591 4.139.976-2.036 4.181-5.166 2.944-7.8 2.972-4.966.052-10.044-.761-14.88.009-21.815 3.472-40.582 12.495-53.512 31.261-3.991 5.793-7.869 11.617-14.632 14.575-1.783.779-3.624 1.427-5.448 2.139 2.533 5.971 4.86 6.778 12.972 4.195-.367 1.833-.187 3.604-.985 4.488-5.303 5.866-2.66 11.693-.504 17.946l4.03-2.256c2.068 4.856 4 9.395 5.933 13.932l-1.046.826c-1.636-1.608-3.271-3.216-5.275-5.188l-3.476 1.42-2.929-5.035-5.17 15.891c1.997 3.832 8.09 4.787 13.153 8.182-2.82 2.881-5.173 5.283-8.385 8.562l11.447 6.078-4.166 5.449c2.383 4.021 6.448 1.266 9.777 3.233v15.581l9.014-3.732c2.114 3.489 3.935 6.494 5.748 9.489-3.138 1.517-3.138 1.517-7.637-4.75-.935.374-1.992.705-2.966 1.201-4.648 2.364-7.292.943-7.623-4.338-.155-2.479.225-4.986.18-7.477-.02-1.104-.491-2.203-.73-3.185zM105.061 3.469v5.398c-4.81-.178-7.738-3.655-7.141-8.132 12.427-2.658 19.512 1.652 27.668 16.876 3.363 1.209 6.771-3.159 10.559.054l-1.8 4.259c3.134 1.811 8.474 2.75 4.557 8.909-.883-.77-1.944-1.239-2.144-1.95-.717-2.561-2.238-3.387-4.806-3.217-1.188.078-2.475-.499-3.631-.982-1.546-.646-3.009-1.491-5.547-2.778-3.012-7.553-5.542-17.239-17.715-18.437zM69.106 31.97c-4.511 1.668-9.021 3.336-13.771 5.091 2.523 5.438 7.334 1.624 10.042 4.01.35 2.817-1.427 2.885-3.37 3.083-4.233.433-7.92 1.942-10.525 5.997 3.177 2.572 6.343 2.23 9.555 1.124 2.919-1.007 5.796-2.137 9.243-3.418-3.23 5.372-14.224 9.188-19.122 7.176-3.834-1.575-4.591-4.854-1.696-7.911 1.346-1.42 2.959-2.586 4.411-3.833-3.149-5.826-2.55-7.705 3.41-10.416 2.262-1.028 4.619-1.983 7.034-2.49 1.558-.327 3.3.222 4.96.377l-.171 1.21zM132.416 53.545l4.225-3.596c1.146 2.893.146 5.573-1.8 5.96-2.689.534-5.703-.564-8.578-.964l.131-1.112-6.562 1.698c-.513-3.677-.688-6.799-1.439-9.775-.695-2.761-2.006-5.366-3.108-8.2 4.355-.188 4.355-.188 7.858 12.642l3.688-3.173 5.585 6.52z"/><path fill-rule="evenodd" clip-rule="evenodd" fill="#fff" d="M24.76 366.984c1.236-1.703 2.63-3.315 3.672-5.131 1.882-3.275 3.552-6.672 5.615-10.598l3.2 2.813-7.584 15.262-4.772-2.459-.131.113zM19.348 364.213c-.745-.57-2.141-1.148-2.135-1.71.055-4.849.75-9.639 3.807-13.598.671-.869 2.43-.898 3.688-1.315l1.032 1.27c-1.34 2.736-2.792 5.424-3.983 8.223-1.004 2.355-1.705 4.84-2.54 7.267l.131-.137zM150.982 310.561l-3.171-2.776 1.704-8.29 1.112.101c1.155 3.605 2.571 7.193.245 11.037l.11-.072zM136.401 316.508c3.346-.638 5.347-1.02 7.572-1.443.821 4.027-1.907 4.75-4.274 6.713l-3.298-5.27zM95.438 329.179l1.737 6.747c-5.123-1.968-5.396-2.827-3.174-6.504l1.437-.243z"/><path fill-rule="evenodd" clip-rule="evenodd" d="M105.174 141.931c-.005 6.083-3.607 9.394-7.175 12.316-8.104 6.639-15.767 6.682-30.856.43 1.486-1.298 2.496-2.837 3.854-3.263 10.09-3.17 20.244-6.132 30.393-9.112.903-.266 1.905-.199 3.784-.371zm-5.855 4.431c-7.872 2.621-14.986 4.989-22.101 7.357 8.905 4.635 18.021 1.52 22.101-7.357zM109.44 86.027c-1.07 4.971-1.97 9.144-2.926 13.583l-5.757 1.615-2.852-8.454c-3.756-2.268-8.321 2.354-12.621-1.557 3.743-3.138 7.953-1.729 11.561-2.631 3.68-.917 7.438-1.525 12.595-2.556zM56.293 109.834l-3.55-8.382c-2.995 0-6.025.052-9.046-.095-.251-.012-.437-1.364-.713-2.3 7.012-1.612 13.688-3.148 20.376-4.687.856 4.722-2.581 12.845-7.067 15.464zM77.622 134.75c2.188.159 3.741.272 5.673.414-.881 3.152-3.141 4.28-5.311 3.774-1.524-.354-3.428-2.344-3.781-3.914-1.818-8.094-3.244-16.278-4.686-24.452-.432-2.447-.594-4.961-.636-7.448-.021-1.228.515-2.465.798-3.697l1.686.019c.382 2.123.854 4.234 1.129 6.371.977 7.57 1.772 15.166 2.895 22.715.326 2.198 1.509 4.27 2.233 6.218zM61.279 82.959c-6.537-3.94-11.982-1.542-17.324 2.011-.702.467-1.982.063-3.729.063 4.464-5.657 13.55-8.714 18.934-7.122 2.131.631 3.733 1.453 2.119 5.048zM105.038 78.254c-7.078-5.022-14.305-5.451-21.714-.277l-.797-1.432c.692-1.122 1.129-2.852 2.117-3.268 6.503-2.737 13.107-3.521 19.365.664.959.642 1.294 2.217 1.917 3.36l-.888.953z"/></svg>