<svg xmlns="http://www.w3.org/2000/svg" width="91.028" height="375.854" viewBox="0 0 91.028 375.854"><path fill-rule="evenodd" clip-rule="evenodd" d="M17.723 129.871M11.725 128.866M22.641 104.254M9.509 89.562"/><path fill-rule="evenodd" clip-rule="evenodd" d="M82.094 223.613c-.71-.597-1.052-1.051-1.504-1.236-3.634-1.497-5.079-4.096-5.436-8.096-.842-9.451-2.812-18.826-3.243-28.281-.369-8.097-.826-16.094-2.741-23.971-.239-.983-.661-1.922-.999-2.881l-1.271.182c0 2.248-.083 4.5.013 6.744.651 15.209 1.331 30.416 2.027 45.623.071 1.551.053 3.188.551 4.621.893 2.569.803 4.562-2.034 5.453l1.113 9.139 4.259-1.104c-.009-6.984.105-7.203 3.581-6.943-1.269 2.046-2.698 4.086-.725 6.257l4.451 1.954c.659-2.508 1.28-4.875 1.958-7.461zM42.104 120.084c-1.956-5.917-.198-12.984-6.403-17.608v20.062c2.696 3.268 5.521 6.691 8.566 10.385 3.863-8.119 3.485-10.011-2.163-12.839zM34.56 369.287l.412.822c3.847.18 6.673-2.165 10.646-4.179l-8.906-5.479c-3.884 2.222-6.736 4.733-8.66 8.13l.556.698 10.78-3.772.373 1.006-5.201 2.774zM17.592 162.59c-1.505 7.64-2.87 14.566-4.234 21.493 6.663-6.494 8.386-15.086 4.234-21.493zM81.735 19.75c-3.629-3.823-4.373-3.81-10.274.108l10.614 5.764.326-.452-2.016-2.566 1.35-2.854zM73.402 364.85c-5.289-4.432-9.904-3.838-12.648 1.448 4.517-.518 8.583-.984 12.648-1.448zM32.085 135.279c-1.539 4.26-.78 7.647.674 11.084 1.923.075 3.404-.386 3.152-2.498-.351-2.943-.968-5.866-3.826-8.586zM69.062 234.551c1.45 3.118 2.694 5.794 4.131 8.879l2.872-2.116-1.191-4.012-.486.37-3.817-4.112c.075-.022-.438.053-.864.285-.308.165-.501.54-.645.706zM49.906 124.087c-2.252 2.149-4.723 12.977-3.571 15.653 1.878-2.905 4.364-13.803 3.571-15.653zM25.233 226.122l-.958-.791c-2.098.7-4.979-.631-6.527 3.33 1.871.525 3.699 1.584 5.255 1.274.959-.19 1.501-2.47 2.23-3.813zM47.774 232.042c.573-3.377.281-6.399-.429-9.939-3.609 4.043-3.424 7.514.429 9.939zM87.535 54.7c-.656 1.615-1.091 3.223-1.922 4.591-1.082 1.786-1.095 3.025.941 3.939 2.917-3.801 3.085-5.97.981-8.53zM34.68 125.046l-1.121.913c2.771 3.444 5.544 6.888 8.316 10.33l1.048-.854c-2.36-3.78-5.15-7.208-8.243-10.389z"/><g fill-rule="evenodd" clip-rule="evenodd"><path d="M48.162 40.194c-6.3.695-12.588 1.504-19.172 2.315 2.419 1.983 16.971 1.263 21.547-1.353-1.018-.43-1.734-1.033-2.375-.962zM67.772 54.168c4.108-1.037 4.772-4.601 1.723-9.232-3.503 1.053-4.228 4.935-1.723 9.232zM40.064 49.02c-3.657 2.692-3.878 5.711-.487 9.3 3.349-2.741 3.479-6.862.487-9.3zM63.841 64.81c-.832-7.708-1.222-15.463-1.831-23.522 2.936-.536 5.659-.809 8.24-1.568 2.431-.715 5.556.916 7.88-2.641-6.469-1.273-12.222 2.324-18.999.106l4.981 45.312c-3.296 1.136-5.372-2.648-8.773-.496l10.756 6.252c.821-8.386-1.435-15.855-2.254-23.443zM62.922 124.993c9.719-18.351 15.48-37.335 19.482-56.627 1.561.091 3.182.072 3.683-.686 1.762-2.667 3.793-5.43 4.521-8.447 1.509-6.236-1.04-8.503-7.733-6.828.364-7.415-.003-14.77 1.291-21.819 1.118-6.099.491-11.065-3.646-15.738.285-1.114.596-2.332 1.009-3.956l-4.679-1.791c-.635-3.189-.635-3.189-4.215-4.575l-.285-4.526c-2.091 1.159-3.494 2.037-4.979 2.742-5.321 2.527-11.009 1.819-16.515 1.326-14.684-1.314-26.473 4.916-37.374 13.728l-2.333-2.519c-3.777 2.76-5.252 9.247-2.593 13.312l1.026-8.614.86.087 1.254 2.799 5.783-1.026c1.514-5.237 5.124-8.983 10.113-11.458 8.208-4.073 16.83-5.518 25.86-3.741 4.369.859 8.534.401 12.659-1.098.832-.302 1.707-.492 2.761-.787.162 1.411.299 2.76.432 3.76h4.132c-1.376 1-2.427 2.761-3.477 3.954l.437.922c2.27-.486 4.538-.974 7.351-1.578-3.896 6.307-8.348 6.458-13.789 2.195-.381 2.154-.632 3.573-1.027 5.817l-10.687-1.162c.188 1.459.35 2.695.548 4.216-5.015 2.935-9.993 2.75-14.721-.268-7.49 2.804-13.067 7.661-16.915 14.192-1.848 3.137-2.423 7.01-3.692 10.507-.494 1.359-1.311 2.6-1.921 3.779-6.524-1.858-6.87-2.226-6.876-8.147-.003-3.127.265-6.253.316-9.382.012-.748-.354-1.502-.545-2.254l-1.162.07c-.988 6.055.058 12.249-.388 18.216-7.83 5.917-6.09 16.799-1.283 22.084 4.521 4.972 8.719 5.054 12.868.127.149-.178.444-.232 1.152-.582 2.14 4.711 4.156 9.472 6.443 14.099 2.307 4.666 4.882 9.199 7.003 13.164 0 2.47-.05 4.26.011 6.045.132 3.907.444 7.813.407 11.717-.011 1.147-.636 2.689-1.509 3.362l-21.717 15.756.898.518c-1.378 4.091-1.487 8.675-4.328 11.115-.298 4.098-.345 7.392-.81 10.624-1.297 9.015-2.861 17.99-4.137 27.008-.803 5.666-1.319 11.375-1.864 17.074-.111 1.16.226 2.363.357 3.547l1.671.057c1.671-8.932 1.192-18.074 1.993-27.097.812-9.159 3.311-18.027 5.204-27.031 1.869.279 3.041.388 4.179.643 1.224.274 2.417.688 4.165 1.198-2.751 13.778-5.432 27.203-8.112 40.628 1.298-.221 2.382-.81 2.873-1.72 4.573-8.482 9.107-16.977 12.098-26.209 1.126-3.479 2.846-6.764 4.295-10.137l.895.215c.172 1.787.412 3.57.498 5.361.086 1.813.019 3.635.019 5.453l-.763-.316c-1.048 2.414-2.38 4.746-3.096 7.253-3.665 12.835-10.096 23.967-19.784 33.201-.904.862-1.485 2.063-2.216 3.107l1.046.775c6.7-4.954 10.365-12.64 15.904-18.766-.192 4.278-.607 8.405-1.266 12.494-1.129 7.017-2.496 13.997-3.58 21.021-.372 2.408-.261 4.9-.259 7.355.005 6.104-.021 12.211.141 18.312.21 7.945.622 15.886.88 23.831.1 3.047.016 6.102.016 9.349l7.929-.942c.302 1.736.71 2.978.703 4.217-.07 13.567-.217 27.134-.317 40.701-.045 6.115-.816 12.358.145 18.316 1.317 8.178.969 15.957-1.578 24.071.916 4.11 4.348 2.056 7.409 2.302l1.544 2.964c3.148-2.898 5.74-5.037 9.1-1.918 2.938-3.472 8.59.954 10.562-4.466l5.325 2.232c1.57-.858 2.745-1.82 4.076-2.141 1.316-.317 3.012.496 4.157-.026 5.605-2.559 11.495-1.887 17.336-2 1.18-.023 2.352-.444 3.516-.68-.052-3.132-2.118-3.067-3.814-3.578-6.721-2.025-13.442-4.054-20.127-6.197-2.927-.938-3.794-3.251-3.656-6.176.153-3.247.136-6.502.168-9.755.172-16.821.317-33.643.516-50.464.04-3.323.271-6.646.425-10.247 3.718-.491 6.793-.938 9.88-1.289 1.462-.167 2.875-.218 2.424-1.987-8.182.913-16.094 1.796-24.007 2.678l-.03.859c1.111.522 2.222 1.045 3.798 1.788 0 13.331-.201 26.739.058 40.138.256 13.233-1.268 26.51.764 39.74.823-1.151 1.037-2.328.994-3.494-.118-3.253-.482-6.5-.502-9.75-.065-11.471-.121-22.942-.001-34.411.103-9.904.428-19.807.703-29.709.046-1.658.144-3.438 2.316-3.882 2.519 3.982 2.147 61.927-.471 76.128l6.423 3.831-10.524 5.147c-7.397-1.294-12.115-6.846-18.492-10.271-.393 4.385-2.566 6.938-5.814 8.909-1.258-27.302-1.451-54.353-.175-81.353h5.165c.2 4 .583 8.198.544 12.208-.151 15.391-.478 30.741-.636 46.133-.027 2.585.242 5.159.488 7.748.479-.026 1.223-.07 1.223-.096v-65.993h12.478c.128-9 .353-18.584.344-27.819-.007-5.734-.404-11.407-.559-17.142-.087-3.287 1.447-5.314 4.733-6.185 2.512-.665 4.958-1.589 7.385-2.53.961-.373 1.79-1.076 2.68-1.634l-.476-1.074c-3.638 1.337-7.275 2.676-11.844 4.354l.942-10.031c3.643-.685 6.761-1.271 9.829-1.849 1.836 3.776 1.797 8.026 6.174 8.987.979 15.581 1.931 30.702 2.883 45.823l1.278-.06-1.381-27.271c3.511-1.328 6.71-2.669 9.996-3.747 3.487-1.145 3.989-1.853 3.166-5.303-.269-1.128-.649-2.355-.455-3.443.601-3.367 1.418-6.7 2.227-10.027.416-1.715.326-3.448-1.524-3.875-4.214-.971-5.317-3.85-5.734-7.651-1.037-9.447-2.358-18.864-3.399-28.312-.643-5.816-.957-11.67-1.464-17.503-.244-2.828-.592-5.647-.859-8.161l3.076-2.863c-1.008-5.347-1.988-9.891-2.685-14.478-.45-2.959-.618-5.979-.668-8.975-.055-3.268-1.719-4.708-4.69-5.792-6.474-2.36-12.858-5.001-19.13-7.855-3.647-1.659-4.196-3.491-3.4-7.087 6.172 4.165 12.467 8.406 19.272 12.988zm-40.067-52.898c-.815-2.196-1.695-4.368-2.655-6.835l-1.809.312-9.822-7.538c-.662 1.882-.233 2.444 3.46 5.88-.282 3.006-.544 5.796-.831 8.869-3.735-1.104-5.85-4.386-6.92-8.243-1.2-4.326-.951-8.029 2.212-12.029h5.865c3.231 2 5.129 5.485 10.315 4.9-.584-2.098-.741-4.207-1.786-5.907-1.681-2.733-1.78-5.33-.841-8.172 2.893-8.754 9.41-14.106 17.142-18.475 4.573 2.871 9.615 3.042 13.952.796 3.894-2.018 7.344-4.422 11.994-4.27 1.059.035 2.162-1.287 2.819-1.712 2.169 1.232 4.091 2.592 6.209 3.481 6.583 2.759 9.73 4.83 9.171 14.196-.701 11.703-.78 23.518-2.56 35.064-2.406 15.605-6.557 30.876-14.576 44.766-.637 1.103-1.313 2.183-2.072 3.439-5.152-1.719-9.479-4.139-13.273-7.675-12.206-11.378-20.247-25.373-25.994-40.847zM62.735 94.512h-18.726c-.266 4 5.064 7.759 10.169 7.661 5.727-.111 9.004-2.661 8.557-7.661z"/></g><path fill-rule="evenodd" clip-rule="evenodd" fill="#fff" d="M17.749 231.28c6.746 1.53 6.746 1.53 10.213-7.166l15.564-1.981v11.561l-6.203 2.236c2.716 2.344 5.035-.772 7.747-.035.982 14.857 2.409 29.706.334 45.188-8.696 2.271-17.233-1.045-26.407.646-.518-17.281-2.633-33.615-1.248-50.449zM82.094 223.613l-1.957 7.461-4.451-1.954c-1.974-2.171-.544-4.211.725-6.257-3.476-.26-3.59-.041-3.581 6.943l-4.259 1.104-1.113-9.139c2.837-.892 2.927-2.884 2.034-5.453-.498-1.434-.479-3.07-.551-4.621-.696-15.207-1.376-30.414-2.027-45.623-.096-2.244-.013-4.496-.013-6.744l1.271-.182c.338.959.76 1.897.999 2.881 1.915 7.877 2.372 15.874 2.741 23.971.432 9.455 2.401 18.83 3.243 28.281.356 4 1.802 6.599 5.436 8.096.451.185.793.64 1.503 1.236zM42.104 120.084c5.647 2.827 6.025 4.72 2.163 12.839-3.046-3.694-5.87-7.117-8.566-10.385v-20.062c6.205 4.625 4.447 11.691 6.403 17.608zM34.56 369.287l5.2-2.773-.373-1.006c-3.594 1.258-7.187 2.516-10.78 3.772l-.556-.698c1.924-3.396 4.776-5.908 8.66-8.13 2.646 1.627 5.361 3.298 8.906 5.479-3.973 2.014-6.799 4.358-10.646 4.179l-.411-.823zM17.592 162.59c4.152 6.407 2.428 14.999-4.234 21.493l4.234-21.493zM81.735 19.75l-1.35 2.854 2.016 2.566-.326.452-10.614-5.764c5.901-3.918 6.645-3.931 10.274-.108zM73.402 364.85l-12.648 1.448c2.744-5.286 7.359-5.88 12.648-1.448zM32.085 135.279c2.858 2.72 3.475 5.643 3.826 8.586.252 2.112-1.229 2.573-3.152 2.498-1.454-3.436-2.213-6.824-.674-11.084zM69.062 234.551c.144-.166.337-.541.644-.706.427-.232.939-.308.864-.285l3.817 4.112.486-.37 1.191 4.012-2.872 2.116-4.13-8.879zM49.906 124.087c.793 1.85-1.693 12.748-3.571 15.653-1.151-2.676 1.319-13.504 3.571-15.653zM25.233 226.122c-.729 1.343-1.271 3.623-2.23 3.813-1.556.31-3.384-.749-5.255-1.274 1.549-3.961 4.43-2.63 6.527-3.33l.958.791zM47.774 232.042c-3.854-2.425-4.038-5.896-.429-9.939.711 3.54 1.003 6.562.429 9.939zM87.535 54.7c2.104 2.56 1.936 4.729-.98 8.53-2.036-.914-2.023-2.154-.941-3.939.83-1.368 1.265-2.976 1.921-4.591zM34.68 125.046c3.094 3.181 5.884 6.609 8.243 10.39l-1.048.854c-2.772-3.442-5.545-6.886-8.316-10.33l1.121-.914z"/><path fill-rule="evenodd" clip-rule="evenodd" d="M66.095 88.254l-10.756-6.252c3.401-2.152 5.478 1.632 8.773.496-1.612-14.672-3.245-29.514-4.981-45.312 6.777 2.217 12.53-1.38 18.999-.106-2.324 3.557-5.449 1.926-7.88 2.641-2.581.759-5.305 1.032-8.24 1.568.609 8.059.999 15.814 1.831 23.522.819 7.587 3.075 15.056 2.254 23.443zM44.01 94.716h18.726c.446 4.749-2.83 7.55-8.557 7.66-5.105.099-10.435-3.849-10.169-7.66zm5.335 2.2l-.116.924c3.509 2.952 7.201 2.933 10.191-.357-3.538-.2-6.806-.384-10.075-.567zM50.537 41.157c-4.576 2.615-19.128 3.335-21.547 1.353 6.584-.812 12.872-1.62 19.172-2.315.641-.072 1.357.531 2.375.962zM69.495 44.936c3.05 4.632 2.386 8.195-1.723 9.232-2.505-4.297-1.78-8.179 1.723-9.232zM39.577 58.32c-3.391-3.589-3.17-6.608.487-9.3 2.992 2.438 2.862 6.559-.487 9.3z"/><path fill-rule="evenodd" clip-rule="evenodd" fill="#fff" d="M49.345 96.916l10.075.567c-2.99 3.29-6.683 3.309-10.191.357l.116-.924zM67.395 156.405l3.464-1.743c-.838-7.349-1.548-14.342-2.516-21.3-.17-1.221-1.165-2.841-2.221-3.335-4.089-1.918-8.357-3.455-12.512-5.114-4.683 5.626-2.764 13.177-6.835 19.606l-17.483-20.242c-3.491 2.565-6.47 5.469-10.019 7.209-6.986 3.427-7.442 10.021-9.537 16.78l7.691 1.721c2.401-2.534.86-6.574 4.698-7.501 1.587 1.09 1.257 2.097.49 3.627-.991 1.98-1.388 4.258-2.04 6.408-2.144 2.895-1.693 8.415 2.248 13.323 1.177-3.51 2.562-6.609 3.234-9.857 1.37-6.629 4.508-12.912 3.79-19.985-.168-1.655.327-3.711 2.885-4.292 3.772 3.225 3.622 8.396 5.716 12.367 4.326.283 5.62 1.303 5.967 5.591.381 4.719.506 9.475.434 14.21-.071 4.64-5.826 8.089-10.426 6.45-.135-.048-.142-.46-.33-1.147 2.549-.638 5.114-1.28 7.679-1.923l-.159-.884-6.508.45-.182-1.408c1.665-.402 3.318-.864 4.999-1.194 1.92-.377 3.477-.92 2.617-3.756-1.739.392-3.227.814-4.742 1.042-1.384.207-3.033.93-4.157-1.585 3.288-.745 6.882.098 9.462-3.094-2.966-4.708-7.052.865-10.068-1.185l-.235-1.091c3.085-.791 6.169-1.582 10.141-2.602-.999-1.748-1.709-3.99-2.375-3.978-2.487.05-5.143.455-7.356 1.518-1.019.489-1.635 2.816-1.607 4.295.081 4.282.581 8.558.816 11.549-3.509 7.943-6.569 14.872-9.399 21.28.312 1.917.879 3.313.695 4.603-1.197 8.386-2.579 16.747-3.84 25.125-.177 1.172-.024 2.393-.024 4.228 12.077-5.936 22.758-12.896 34.122-18.506l.732 1.318c-11.075 5.273-21.752 11.206-31.983 17.868l.426.79c7.727-3.438 15.454-6.875 23.18-10.312l.396.873c-5.25 2.613-10.499 5.226-15.748 7.838l.474 1.348c11.737-1.853 23.475-3.703 35.518-5.604.131-1.387.381-2.652.345-3.908-.159-5.468-.36-10.935-.622-16.397-.866-18.049-1.771-36.095-2.634-54.144-.069-1.456-.391-3.191 2.077-3.543.972 5.94-.421 11.968 1.262 18.213z"/></svg>