<svg xmlns="http://www.w3.org/2000/svg" width="267.639" height="449.11" viewBox="0 0 267.639 449.11"><path fill-rule="evenodd" clip-rule="evenodd" d="M123.72 421.934l-1.464 4.922c4.048-.674 7.733-1.335 11.434-1.894 9.547-1.44 19.141-2.615 28.638-4.328 6.396-1.152 7.153-3.03 4.943-8.99-.623-1.683-1.032-3.445-1.691-5.688-12.897 2.403-26.032 4.442-39.335 10.557-.393-38.867-1.005-76.358 1.065-114.681-3.414.366-6.088.653-9.214.989-6.81 30.672-8.078 61.791-12.021 92.826-3.416-1.153-2.818-3.375-2.606-5.22 1.194-10.421 2.487-20.83 3.753-31.243 2.107-17.353 4.229-34.703 6.304-52.06.09-.753-.231-1.557-.341-2.209-3.267-1.56-6.471 2.717-10.621-1.206 5.522-1.498 10.161-2.756 14.35-3.893 1.058-6.709 2.069-13.121 3.25-20.605-6.688 1.497-12.619 2.708-18.464 4.246-1.008.266-1.973 1.798-2.406 2.952-2.247 5.987-6.009 9.04-12.671 7.19-.57-.158-1.275.174-1.821.263-4.019 8.973-16.722 100.898-14.976 108.804 8.631 1.12 15.96-5.046 24.326-5.466l.514 1.433c-1.514.719-2.969 1.623-4.552 2.122-5.707 1.801-11.494 3.355-17.18 5.219-3.673 1.204-3.668 1.471-2.594 5.835l11.524-2.789.61 1.382c-1.075.722-2.057 1.739-3.241 2.114-5.389 1.706-10.821 3.28-16.266 4.805-3.812 1.067-7.765 1.819-10.517 6.69 16.626-1.568 32.474-3.063 48.513-4.576.283.66.826 1.292.729 1.803-.535 2.81-6.828 9.336-9.496 9.753-16.773 2.622-33.53 5.378-50.356 7.611-3.792.503-7.895-.629-11.744-1.499-2.419-.546-4.496-2.118-4.655-6.049 11.217-1.821 21.795-5.17 28.111-15.403 3.99-1.215 7.756-2.361 11.765-3.581v-3.007c-4.507-.867-8.647 4.249-12.832.89l-.264-1.458 12.455-3.527c5.581-39.716 11.068-78.762 16.462-117.146 4.215 1.146 7.488 2.537 10.817 2.686 1.262.057 2.651-2.753 3.982-4.256l-.725-1.336c-2.173.271-4.37.42-6.514.839-4.157.813-5.061.344-5.355-3.979-.953-13.944-1.572-27.915-2.7-41.844-.831-10.273-2.224-20.503-3.455-30.74-.19-1.583-.858-3.108-1.414-5.039-1.492.576-2.647.787-3.517 1.402-2.905 2.056-5.752 3.738-9.636 2.831-1.235-.289-2.835.732-4.203 1.306-14.737 6.177-29.444 12.425-44.21 18.529-1.689.698-3.688.648-5.542.944l-.71-1.229c.731-.814 1.31-2.028 2.221-2.379 6.019-2.318 12.221-4.188 18.152-6.702 10.39-4.406 20.679-9.06 30.885-13.875 2.115-.998 3.685-3.155 5.733-4.982l-3.321-6.964c-19.258 11.669-39.601 18.85-60.899 23.386l-.728-1.453c1.379-.727 2.69-1.656 4.148-2.148 10.242-3.458 20.651-6.471 30.732-10.343 7.43-2.854 14.551-6.591 21.575-10.37 2.124-1.143 3.464-3.743 5.361-5.023 3.069-1.23 6.529-1.915 9.142-3.785 11.896-8.516 23.533-17.388 32.771-28.937.302-.377.458-.869.687-1.314-.435-3.756-3.26-3.462-5.938-3.81-8.401-1.092-16.816-2.168-25.144-3.698-3.019-.555-6.083-1.96-8.65-3.686-19.225-12.927-28.624-28.807-26.363-54.806.155-1.778.251-3.561.352-5.002l-10.749-5.75c.966-3.447 2.351-3.68 4.58-2.242 1.937 1.248 4.054 2.217 6.092 3.31l.93-1.494c-1.403-1.248-2.806-2.496-4.779-4.253l5.223-3.331c-10.764.9-10.764.9-14.867-2.129l10.948-7.85c-6.784-.457-13.66 2.02-19.272-3.738 4.787-3.105 9.644-5.338 13.25-8.853 3.628-3.534 6.014-8.345 9.288-12.345.404 5.477-2.673 9.992-13.569 20.718 2.721 1.669 5.463.947 8.021.285 5.411-1.399 10.692-.793 16.167-.262 4.654.452 9.708-.246 14.198-1.66 11.885-3.742 23.854-7.528 33.383-16.256.841-.77 2.373-.784 3.585-1.15l.848 1.251c-4.423 5.983-8.847 11.967-13.271 17.95l.133.547c5.791-3.755 12.04-6.974 17.244-11.416 5.23-4.464 9.421-10.145 14.633-14.896.624 6.104-4.176 9.418-7.652 14.563 8.768-.612 15.355-4.193 21.9-8.024 4.037 3.087-.276 4.852-1.149 8.021l9.501-3.461 1.262.866-2.41 10.603 8.165-2.957c1.433 6.396-4.527 16.93-10.859 17.971 2.138-4.295 3.94-7.916 5.742-11.538l-.671-.701-9.226 6.248c-1.239-6.023 3.497-9.654 3.287-15.004-6.206 1.987-12.091 3.871-18.069 5.784 2.058 1.827 3.994 3.426 5.701 5.241.178.189-1.006 1.66-1.567 2.553-11.139-8.246-20.812-3.197-30.436 2.122-1.377.762-2.595 1.811-4.263 2.993-1.474-4.148 1.2-5.522 3.379-6.389 6.901-2.743 13.956-5.104 20.951-7.613l.461.943 1.681-5.329c-13.854 5.849-26.771 11.302-39.708 16.763 1.884 3.793 1.884 3.793-.11 6.866-.975-.89-1.782-1.907-2.828-2.512-1.345-.777-2.846-1.355-4.349-1.769-1.068-.295-2.524.232-3.335-.312-3.61-2.422-6.767-.863-9.759.979-4.246 2.613-8.312 5.52-12.707 8.47-2.424 12.753-4.128 25.722.751 38.6 3.848 10.158 10.281 18.659 19.513 23.978 22.958 13.227 46.482 12.124 69.45-.126 3.914-2.087 7.047-6.708 9.175-10.857 4.979-9.707 7.164-20.354 8.376-31.175l-.14.143c7.209 3.22 12.408 1.582 17.416-5.485 4.021-5.675 3.61-12.294-1.072-17.283-3.88-4.135-8.965-3.578-12.02 1.257-.898 1.421-1.998 2.714-3.299 4.459-3.344-4.337.465-6.619 1.261-9.44l-.234.453c2.715-1.149 5.339-2.639 8.161-3.379 6.473-1.699 15.247 10.142 13.151 18.208-2.112 8.133-8.141 16.528-20.874 17.281-1.368 6.02-2.614 12.173-4.188 18.24-1.467 5.651-3.231 11.289-7.614 15.481-2.354 2.25-4.992 4.244-7.684 6.088-2.31 1.583-4.877 2.788-7.653 4.341l1.238 5.107c2.384-.665 4.572-.836 6.287-1.827 11.089-6.406 22.154-12.861 33.062-19.568 6.494-3.993 12.645-8.54 19.026-12.721 7.098-4.65 11.625-11.795 15.277-18.798 6.576-12.609 11.437-26.114 16.968-39.138-3.755-4.8-6.928-8.809-10.049-12.857-2.653-3.441-3.66-7.011-1.04-11.035 3.151-4.841 2.242-10.231 1.809-15.534-.129-1.577-.205-3.158-.326-5.056 7.919-1.62 10.75 3.498 13.529 9.212 2.752-3.687 5.027-7.101 7.682-10.19 2.813-3.274 5.883-6.353 9.054-9.287 1.287-1.191 3.045-2.111 4.746-2.57 3.443-.927 5.64 1.145 4.936 4.647-.546 2.714-1.581 5.329-2.594 8.622 2.821-1.331 4.964-2.535 7.244-3.362 2.245-.814 4.889-2.511 6.847.14 2.079 2.812-.27 4.987-1.879 7.047-1.255 1.607-2.722 3.049-4.175 4.652h13.9c-.366 5.496-4.773 7.032-7.595 9.865 5.295 1.482 5.92 2.097 7.038 7.302-2.813.969-5.676 2.134-8.639 2.921-2.774.737-3.906 2.266-4.578 5.101-.819 3.452-2.18 6.987-4.176 9.888-1.962 2.851-3.804 2.145-5.633-1.869 8.542-2.454 3.391-9.698 4.933-15.026l10.873-2.437-.188-1.491c-4.087.293-8.174.585-12.929.925 2.847-6.767 10.697-5.687 13.393-11.57-7.089-.408-11.778 4.668-17.283 7.283-2.665-2.893-1.272-4.575.595-6.276 2.705-2.466 5.385-4.963 7.98-7.543 1.246-1.239 2.273-2.698 3.108-4.395-4.763.435-8.165 3.323-11.479 6.084-3.201 2.665-5.962 5.859-8.887 8.792-3.039-2.336-1.609-3.744-.409-5.468 2.941-4.223 5.774-8.53 8.419-12.943.968-1.615 1.282-3.622 1.977-5.696-7.521.862-17.842 13.598-19.247 23.322 4.156 2.082 8.782 4.049 9.822 9.413.175.899-.928 2.047-1.842 3.89-1.39-1.851-2.339-2.758-2.854-3.866-1.687-3.625-4.175-4.818-8.104-3.573-1.435.454-3.201-.139-4.886-.259 1.752-10.672 1.319-12.746-3.381-16.328-.268 1.024-.758 1.908-.671 2.73.578 5.437-.52 10.521-2.308 15.658-.63 1.809.094 4.656 1.208 6.375 1.878 2.893 4.306 5.575 6.979 7.763 2.611 2.137 3.482 4.316 2.278 7.367-5.126 12.994-9.285 26.494-15.697 38.822-5.697 10.954-13.274 21.146-24.757 27.384-3.472 1.886-6.665 4.283-10.562 6.821 2.439 5.154 4.875 10.3 7.639 16.138 7.333-5.978 14.278-11.338 20.863-17.11 4.498-3.943 8.447-8.506 12.723-12.71 5.771-5.675 8.687-12.902 11.302-20.317 2.932-8.313 5.902-16.614 8.829-24.931 1.157-3.289 2.045-6.69 3.438-9.872.761-1.738 2.322-3.127 3.521-4.672l1.658.755c-.212 1.41-.193 2.904-.671 4.218-3.972 10.924-8.306 21.725-11.991 32.743-3.259 9.742-7.553 18.47-14.762 26.196-12.141 13.011-26.45 23.301-40.054 34.497-2.561 2.107-5.094 4.249-7.548 6.298 1.605 16.152 3.21 32.186 4.79 48.221 1.562 15.853 2.132 31.748 3.297 47.617l-2.339.372c-.448-1.668-1.176-3.315-1.301-5.007-1.094-14.784-1.928-29.589-3.145-44.362-.942-11.446-2.104-22.886-3.628-34.267-.527-3.938-2.439-7.69-4.081-12.612l14.667-11.718c-.557-6.166-3.533-11.342-7.284-16.467-10.411 5.974-20.436 11.726-30.552 17.53.066 9.817-6.27 15.123-13.847 19.19-8.591 4.611-15.675-.154-22.979-5.101-5.354 4.433-10.445 8.919-15.826 13.027-5.402 4.124-11.092 7.872-16.907 11.962l3.185 10.729c4.434.195 7.929-5.327 13.642-4.535-4.062 4.412-2.274 9.187-1.862 13.848 1.76 19.899 3.425 39.808 5.195 59.706.305 3.42.949 6.81 1.592 11.299 4.453-1.071 8.134-1.957 11.814-2.843 8.532.788 48.969-8.056 54.529-12.651 3.438-.207 6.422-.387 9.406-.565l.607 1.242c-2.472 1.564-4.943 3.129-8.077 5.111l.767 8.427c5.986 1.962 7.357-3.28 11.308-5.299v-12.099l1.806-.185c.362 1.862 1.003 3.719 1.041 5.587.278 13.652.332 27.31.659 40.961.339 14.146 1.024 28.283 1.334 42.43.259 11.796.22 23.599.261 35.399.014 3.997-.068 7.997-.242 11.99-.065 1.511-.514 3.005-.857 4.889-3.555-1.652-2.866-4.058-2.759-6.324.503-10.642 1.2-21.281 1.339-31.928.085-6.473-.932-12.952-1.079-19.437-.38-16.646-.504-33.296-.833-49.942-.111-5.586-.537-11.165-.835-17.071-12.609 10.604-15.142 4.644-15.765-6.724-6.193 1.257-12.432 1.853-18.127 4.613-1.247.605-2.188 2.51-2.614 4.003-.864 3.03-1.257 6.194-1.892 9.293-.305 1.487-.719 2.951-1.084 4.427l-1.698-.256c.368-5.25.735-10.5 1.144-16.312-1.555.412-3.033.441-3.18.897-1.984 6.199-5.938 12.114-2.843 19.812 6.002-.782 12.231-1.594 18.757-2.443-.584 2.11-1.225 2.396-8.747 4.687-4.005 8.29-4.773 94.028-.797 108.937 5.694-1.322 11.438-2.652 17.18-3.99 5.633-1.312 11.265-2.633 17.281-4.039 6.778 4.638 5.927 11.91 5.532 19.679-4.793 1.11-9.259 2.402-13.814 3.145-9.04 1.472-18.129 2.642-27.198 3.932-9.487 1.35-16.014 7.669-22.758 13.603-.268.235-.165.892-.393 2.396 20.136-7.164 41.44-8.344 59.834-18.898 2.656 3.31 2.372 4.509-1.296 5.629-12.083 3.688-24.183 7.32-36.292 10.92-6.38 1.896-12.782 3.721-19.198 5.489-1.75.482-3.631 1.02-5.374.825-1.274-.141-2.965-1.19-3.464-2.291-.465-1.025.211-2.733.744-3.988.363-.854 1.268-1.552 2.064-2.134 6.114-4.47 10.791-10.186 14.716-16.601 1.165-1.904 2.612-3.654 5.237-1.98l-.124-.146zm-90.25 11.123c7.461 3.223 54.582-3.854 59.081-9.015-20.723.565-40.047 3.824-59.081 9.015zm74.945-284.089l1.318 10.892c5.865 3.772 13.326 2.004 16.952-3.693-2.157-3.208-4.243-6.31-6.606-9.823-3.745.842-7.533 1.694-11.664 2.624zm-62.643-82.035c5.707-3.287 10.898-6.277 16.09-9.268l-.505-1.073h-18.188l-9.764 8.504c4.217 2.33 8.856-3.396 12.367 1.837zm19.846-8.925l.54 1.407c2.641 0 5.539.712 7.874-.133 7.133-2.582 15.259-9.804 16.749-14.062-6.425 2.605-12.954 5.032-19.268 7.931-2.237 1.028-3.945 3.204-5.895 4.857zm36.576 104.938c10.088 10.151 24.266 7.204 28.513-4.637-3.726 2.068-7.771 5.077-12.312 6.637-5.192 1.782-10.154.071-13.719-4.821l-2.482 2.821zM177.844 32.696c-.825 3.647-1.437 6.35-2.281 10.088.502.891 1.501 2.778 2.606 4.601 4.68 7.716 5.533 15.889 2.912 24.454-.621 2.03-1.294 4.194-5.113 4.043 6.782-14.06 1.656-25.082-8.281-34.756v-8.269l-5.76 4.024c-1.529-9.196-6.384-14.954-13.087-19.03-6.791-4.13-13.534-9.217-21.009-11.181-25.461-6.691-49.17-2.843-69.56 15.08-.994.874-2.066 1.663-3.142 2.438-.229.166-.63.097-.959.137 8.234-13.788 36.433-25.423 55.516-24.241 22.411 1.387 40.353 10.623 54.517 28.341l4.716-6.824c3.911 3.849 1.169 8.411 3.311 12.189 1.216-.238 2.562-.5 5.614-1.094zM64.609 113.728c10.404-2.756 20.49-5.062 30.334-8.139 9.938-3.106 19.639-6.979 29.943-10.697 1.487 4.958 1.727 9.299-.944 13.593-4.104 6.598-10.248 10.753-17.475 12.441-8.03 1.876-16.379 3.275-24.584 3.25-6.798-.022-12.965-3.438-17.274-10.448zm27.66-3.378l4.195 9.617c2.692-.669 5.146-1.278 7.991-1.984-1.338-3.971-2.466-7.318-3.732-11.079l-8.334 3.528-10.966 2.276 1.209 7.28h8.341c.6-3.668-2.937-7.207 1.296-9.638zm12.623-4.494l2.885 10.732c9.125-3.57 9.68-5.577 3.927-13.626l-6.812 2.894zm13.781 1.312l1.67.35c.599-2.305 1.196-4.609 2.082-8.026-2.604.793-3.897 1.187-5.603 1.705l1.851 5.971zM98.846 80.377l-1.079-5.06c6.138-5.33 12.925-8.636 21.255-7.274 3.083.504 6.11 1.637 9.021 2.829 3.936 1.612 4.574 3.214 3.689 8.502-1.417 0-3.1.426-4.441-.071-6.677-2.474-13.034-1.633-19.345 1.22-2.732 1.234-5.547 2.539-9.1-.146zM67.205 87.12c-2.921 1.039-7.145 2.325-11.174 4.062-2.175.937-4.049 1.807-5.722-.435-1.492-1.999-1.99-4.13-.24-6.381 4.434-5.706 10.902-8.039 17.387-9.91 3.697-1.066 9.504 6.062 8.395 9.752-1.069 3.555-3.666 4.458-8.646 2.912zM150.885 94.275c-4.148-2.02-4.637-3.11-3.237-7.304.314-.944.75-1.854.997-2.815.246-.96.325-1.964.391-2.39l10.689-10.026c3.804 3.585-.593 4.718-1.207 6.744 2.911 4.958 2.756 6.748-.882 10.32-1.536 1.509-1.536 1.509-4.751-.33l2.646-4.767c-3.876 1.514-4.345 2.669-4.786 10.71l.14-.142zM123.849 422.075c1.285-1.172 2.396-3.021 3.885-3.405 10.418-2.693 20.913-5.093 31.394-7.542.574-.134 1.244.138 1.869.221l.292 1.014c-2.455.859-4.875 1.838-7.371 2.557-7.965 2.291-15.935 4.573-23.955 6.656-1.978.514-4.156.26-6.242.358l.128.141zM84.544 81.701c0 1.471.166 2.965-.04 4.405-.281 1.972-1.01 3.883-1.254 5.855-.517 4.181-.735 8.357 3.648 11.306-2.839 2.102-4.761 1.65-5.903-.644-.86-1.727-1.549-3.822-1.43-5.697.282-4.471 1.02-8.919 1.744-13.349.129-.792 1.073-1.451 1.642-2.172l1.593.296zM152.797 68.378l.234-.453-5.741 5.112-1.113-.866c1.084-6.865 8.153-10.377 9.685-17.02 3.883 1.216 3.132 3.262 1.979 5.228-1.593 2.718-3.355 5.338-5.044 7.999zM105.368 401.498c1.157 6.579.681 13.166.238 20.498-3.815-1.927-2.893-4.566-2.887-6.574.013-4.673-.626-9.455.514-14.036l2.135.112z"/><path fill-rule="evenodd" clip-rule="evenodd" fill="#fff" d="M33.47 433.057c19.034-5.19 38.358-8.449 59.081-9.015-4.499 5.16-51.62 12.237-59.081 9.015zM108.415 148.968l11.664-2.625 6.606 9.823c-3.626 5.697-11.087 7.466-16.952 3.693l-1.318-10.891zM45.772 66.933c-3.512-5.232-8.15.493-12.367-1.837l9.764-8.504h18.188l.505 1.073-16.09 9.268zM65.618 58.008c1.95-1.652 3.658-3.829 5.896-4.856 6.313-2.898 12.843-5.325 19.268-7.931-1.49 4.258-9.616 11.479-16.749 14.062-2.335.845-5.233.133-7.874.133l-.541-1.408zM102.194 162.946l2.481-2.821c3.564 4.893 8.526 6.604 13.719 4.821 4.542-1.56 8.587-4.568 12.312-6.637-4.246 11.841-18.424 14.789-28.512 4.637zM104.892 105.856c2.578-1.096 4.755-2.021 6.812-2.894 5.753 8.049 5.198 10.056-3.927 13.626l-2.885-10.732zM92.389 110.432l8.334-3.528c1.267 3.761 2.395 7.108 3.732 11.079-2.845.706-5.299 1.315-7.991 1.984-1.506-3.452-2.851-6.534-4.195-9.617l.12.082zM92.269 110.35c-4.232 2.432-.695 5.971-1.296 9.639h-8.341l-1.209-7.28 10.966-2.276-.12-.083zM118.673 107.168l-1.851-5.972 5.603-1.705c-.886 3.417-1.483 5.722-2.082 8.026l-1.67-.349z"/></svg>