<svg xmlns="http://www.w3.org/2000/svg" width="231.407" height="868.08" viewBox="0 0 231.407 868.08"><g fill-rule="evenodd" clip-rule="evenodd"><path d="M69.042 358.407c-.47-1.726-1.179-3.424-1.375-5.18-2.634-23.68-5.275-47.359-7.652-71.065-.229-2.275.937-4.917 2.075-7.06 2.871-5.401 6.533-10.415 9.054-15.958 2.536-5.575 1.433-11.484-.909-17.012-2.311-5.455-6.889-8.306-12.381-6.837-4.633 1.239-5.797-1.13-6.338-4.522-2.122-13.311-4.087-26.646-6.094-39.863 12.256-7.308 17.34-16.492 15.482-27.666-1.86-11.186-10.366-17.993-27.323-21.624 2.838-49.898-5.395-97.383-33.581-141.62 5.28 2.07 9.391 3.458 13.316 5.254 44.085 20.17 75.132 52.392 91.653 98.383 14.116 39.297 25.289 79.279 30.612 121.436-2.342-1.945-4.22-3.62-6.219-5.136-3.068-2.328-6.313-2.52-9.851-.871-3.638 1.697-2.958 4.717-2.808 7.688 1.618 32.12 3.195 64.241 4.875 96.357.154 2.96.535 6.026 1.5 8.803 2.339 6.728 6.868 7.974 12.195 3.273 6.241-5.508 12.136-11.408 18.261-17.052 2.004-1.846 4.257-3.422 6.632-4.846-13.628 21.145-27.883 41.824-32.471 68.228 9.468-5.183 17.587-10.849 27.346-10.725-6.668 9.367-13.288 18.57-19.754 27.879-.787 1.134-.744 2.844-1.287 5.136 8.86-.235 17.264-.457 26.104-.691-8.377 7.037-17.923 12.512-25.247 22.875l14.535 2.807c-6.415 3.751-13.678 6.586-16.498 14.167.379.448.539.763.797.922 2.029 1.258 4.077 2.486 6.118 3.724-1.697 1.548-3.459 3.031-5.072 4.663-1.639 1.661-3.129 3.471-5.267 5.866l8.312 2.59c-1.529 1.878-2.605 3.449-3.927 4.776-3.876 3.891-3.752 4.559 1.436 6.446.743.271 1.424.708 2.713 1.362l-6.058 6.787c2.571 1.553 4.728 2.855 7.224 4.364-2.061 1.817-3.861 3.408-6.386 5.636l12.205 7.847c-1.618 1.091-3.032 2.254-4.624 3.077-4.274 2.208-4.777 4.109-1.352 7.548 3.118 3.129 6.571 5.926 11.123 9.979-4.271.731-7.223 1.331-10.202 1.725-3.815.505-5.385 2.262-3.758 6.062 2.197 5.134 4.405 10.265 6.721 15.659-2.06-.312-4.437-.669-8.725-1.313l13.638 23.614c-2.23-1.259-4.253-2.37-6.247-3.533-6.63-3.865-9.695-2.687-11.41 4.821-1.788 7.827.294 15.231 3.523 22.281.632 1.379 2.771 2.067 4.214 3.074 1.015-1.58 2.635-3.067 2.896-4.763.359-2.336-.308-4.829.442-7.873.726.895 1.922 1.714 2.079 2.699.309 1.935-.106 3.974.05 5.947.165 2.091.217 5.71 1.072 5.947 2.763.766 6.718 1.442 8.656.023 3.169-2.318 5.407-6.138 7.475-9.655 1.702-2.894 2.585-6.269 4.865-9.326l3.394 23.07 1.38.089c5.636-8.148 11.271-16.297 17.599-25.443.358 12.132.682 23.081 1.004 34.031l1.556.673c5.201-4.615 10.402-9.231 16.493-14.637-2.151 10.244-4.073 19.397-6.085 28.983 8.132 1.597 12.687-5.834 20.507-6.341-1.128 1.827-1.768 2.804-2.349 3.813-3.133 5.453-6.727 10.705-9.241 16.431-2.46 5.6.628 10.374 6.636 11.188 4.541.615 9.15.718 15.087 1.146-2.53 1.62-4.034 2.71-5.651 3.595-4.817 2.636-9.803 4.984-14.485 7.838-4.355 2.653-4.51 5.622-1.009 9.147 2.113 2.127 4.229 4.253 6.317 6.405.182.188.163.567.416 1.542-5.949-.766-11.616-1.775-17.321-2.099-2.367-.134-5.159.675-7.158 1.978-3.777 2.46-7.493 5.254-10.493 8.576-1.539 1.706-1.39 4.884-2.175 7.341-.522 1.632-1.316 3.181-2.046 4.741-2.452 5.248-5.551 10.298-7.188 15.786-1.172 3.928 5.401 12.089 9.228 11.391 3.063-.558 5.583-4.102 8.346-6.302 1.031 4.413-2.646 5.398-5.104 7.441-.935.777-.964 2.642-1.405 4.01 1.316.308 3.134 1.311 3.855.79 2.07-1.491 4.068-3.372 5.394-5.529 1.319-2.145 1.479-4.979 2.7-7.21 1.951-3.562 2.001-7.028-1.131-9.397-3.555-2.688-6.694-.747-9.106 2.073 2.227 1.564 4.47 2.723 6.13 4.445 1.24 1.29 1.923 3.384-1.325 3.456-1.456-6.231-3.505-6.829-9.767-1.234.302-3.127-.103-5.298.763-6.661 2.199-3.461 9.29-5.913 13.005-4.116 2.129 1.03 4.702 3.857 4.766 5.946.229 7.502-2.93 14.192-8.855 18.658-2.812 2.119-7.25 2.081-11.619 3.188 2.02 21.458-3.301 40.406-27.378 49.747 4.354 3.196 2.977 7.327 1.979 11.478-.909 3.772-.712 8.137-2.601 11.279-3.763 6.264-2.602 14.695-9.11 19.707-1.113.858-1.405 3.228-1.477 4.925-.535 12.614-.918 25.235-1.349 37.854l-1.218.344c-.78-1.972-1.778-3.887-2.304-5.924-2.532-9.836-4.936-19.705-7.394-29.561-.2-.809-.207-2.028-.729-2.336-5.827-3.438-7.54-9.54-10.457-15.012-1.76-3.301-5.065-5.665-4.061-10.146.202-.899-.907-2.312-1.731-3.188-11.226-11.958-11.031-23.25.5-35.003 1.068-1.09 1.512-2.951 1.874-4.539.511-2.247.861-4.567.932-6.868.061-1.962-.26-3.96-.621-5.904-.3-1.613-1.082-3.143-1.34-4.758-.729-4.583-1.665-9.179-1.826-13.793-.15-4.324.619-8.677.906-13.022.07-1.073.205-2.405-.317-3.212-3.312-5.109-2.778-10.056-.417-13.694-.52-3.655-.791-6.083-1.233-8.479-.256-1.386-.984-2.695-1.155-4.083-.271-2.22-1.238-5.379-.171-6.538 2.695-2.922 1.063-5.224.571-8.085-.584-3.407-.02-7.005-.041-10.519-.015-2.546-.043-5.103-.292-7.633-.623-6.328-1.376-12.646-2.157-19.699-5.556 4.409-6.53 18.848-2.775 27.896-14.305-6.009-19.79-17.784-21.861-30.941-3.226 2.939-8.111 5.343-9.286 8.951-1.663 5.11-6.065 5.93-8.861 8.983-1.138 1.241-1.285 3.39-1.442 5.354-2.441 3.043-7.566 4.681-4.991 10.379.103.226-.15.627-.268.936-2.141 5.625-4.132 11.312-6.468 16.855-3.5 8.312-2.319 13.18 4.897 18.488 4.33 3.187 7.038 7.215 6.002 12.799-1.02 5.489-1.688 11.202-3.786 16.292-2.197 5.331-9.199 7.848-13.342 6.036-4.448-1.947-7.394-9.479-5.544-15.936 1.109 1.883 2.028 3.086 2.567 4.441.855 2.152.433 5.577 4.403 4.338 3.618-1.131 5.336-5.276 3.402-8.5-1.079-1.8-2.624-3.553-4.376-4.677-14.137-9.075-19.741-22.417-19.634-38.657.167-25.344 11.5-45.96 27.121-64.935 4.747-5.765 8.73-12.263 12.347-18.82 3.382-6.13 6.697-11.888 14.731-14.059-.729 1.493-1.04 2.568-1.685 3.38-5.487 6.913-5.857 14.785-3.352 22.646.624 1.959 4.485 3.982 6.881 4.01 3.183.035 6.474-1.736 6.72-5.995.134-2.316.002-4.744.687-6.901.562-1.766 2.154-3.204 3.93-5.681 1.616 4.766-.256 9.992 5.062 10.938l-2.584-18.912-5.495.599c.468-2.016.455-4.334 1.501-5.984 2.331-3.677 4.166-7.201 1.78-11.887-1.553 1.027-3.096 2.051-4.923 3.262-4.313-7.584 5.867-12.547 3.254-19.448-.475-.014-.812-.125-1.04-.015-1.667.818-3.312 1.68-4.965 2.526-.23-2.005-1.082-4.186-.574-5.983 1.595-5.655 3.719-11.16 5.589-16.74.257-.762.419-1.637.327-2.427-1.471-12.795-2.893-25.599-4.553-38.37-.516-3.959-1.711-7.829-2.596-11.74l-1.963-.605-13.252 11.815c.021-7.766 2.233-15.088 7.008-21.088 5.116-6.43 6.144-13.451 5.414-21.034-.814-8.454-1.889-16.89-3.1-25.297-.936-6.497-5.288-8.323-10.78-4.463-2.085 1.465-3.555 3.805-6.221 6.764.571-4.022.384-7.296 1.553-9.98 2.375-5.452 4.944-10.984 8.459-15.722 2.721-3.666 3.687-7.05 3.256-11.411-.783-7.92-1.188-15.878-1.752-23.821.564 1.472 1.142 2.939 1.69 4.417 1.846 4.973 3.682 9.949 5.522 14.924l1.66-.569c-1.263-9.688-2.411-19.391-3.851-29.051-.501-3.364-1.721-6.621-2.618-9.927-.333-5.422-.756-10.843-.957-16.271-.163-4.365-.057-8.739-.07-13.202 3.146.01 5.775 4.18 3.517 9.568-3.372 8.046.223 14.208 4.057 20.523.449.741 1.6 1.056 1.646 1.084-.125-8.036-.045-16.036-.438-24.012-.31-6.296-1-12.463-6.29-17.233-3.387-3.054-4.123-7.352-2.958-12.007.445-1.774.1-4.028-.619-5.758-1.996-4.806-.719-9.537 3.64-11.509.922 2.944-5.273 6.147.343 9.152 1.286-2.876 1.618-6.719 7.649-5.251l-6.604 7.676c5.409 6.198 15.755 9.564 11.22 20.861 6.599 6.324 7.204 10.009 2.786 17.964-2.717 4.893-2.689 9.835-.634 14.908 1.274 3.144 2.258 6.438 3.856 9.403.649 1.204 2.586 1.713 3.937 2.539l2.059-.799c-.389-2.11-1.856-5.156-.979-6.17 3.727-4.301.957-7.6-.985-10.972-2.583-4.484-.679-7.637 2.573-11.215-.619 9.516.097 11.003 6.312 13.224 2.148-9.54 1.524-18.068-6.368-25.131-5.68-5.083-7.574-12.025-5.632-19.153 1.338-4.908 3.115-9.335-.086-14.151 4.723 3.415 4.379 8.088 3.454 12.693-1.427 7.102 1.578 12.08 5.62 15.386l1.749-30.398c1.241 9.211-1.2 19.106 6.074 27.595l2.811-5.534c2.418 4.781-6.502 10.577 1.041 13.746.839 5.571 1.603 10.646 2.578 17.126 1.252-1.97 2.401-2.933 2.373-3.859-.503-16.065-1.15-32.125-1.764-48.109l-5.076-1.36.237-.791 5.15-.193c-.215-1.891-.481-3.522-.575-5.164-.843-14.824-1.683-29.648-2.464-44.476-.376-7.121 3.198-10.176 10.205-8.785 1.897.377 3.751.974 7.357 1.928-4.989-9.795.958-22.009-11.137-28.168.95.054 1.648.394 2.383.611.894.264 1.817.424 3.632.833-11.402-46.075-19.012-92.748-47.995-132.192-4.123 3.794-10.333 4.919-10.47 11.649-.043 2.126-.869 5.182.188 6.15 1.371 1.256 4.264.852 6.767 1.198l-2.114 6.099c-2.822-.494-6.56-2.338-8.562-1.181-2.243 1.298-2.914 5.312-4.817 9.292-.209-4.458-.354-7.537-.517-10.995 4.923-2.858 4.91-3.078.303-7.967-1.04-1.104-1.687-2.577-2.883-4.462 5.019 1.211 14.713-6.665 18.615-14.425-18.822-19.173-39.493-35.894-64.957-46.045 9.01 17.024 15.007 34.792 19.161 53.22 5.417 24.031 7.244 48.398 6.799 72.987-.03 1.66.628 4.28 1.766 4.845 4.271 2.122 8.872 3.575 14.046 5.545.98-2.386 3.171-6.415 2.688-6.766-2.507-1.824-5.698-2.709-10.016-4.483 2.152-1.184 3.921-2.939 4.959-2.58 2.987 1.033 5.679 2.921 8.372 4.41 3.626-3.341 5.801-6.653 5.835-11.733.033-4.827 2.173-9.445 7.169-12.217l-5.457 13.229 2.348.902c3.004-8.456 6.008-16.913 9.035-25.429l4.991 1.936-3.428-6.458.782-4.665-5.417-.688c2.294-2.042 4.133-3.677 6.29-5.595l1.727 8.571 5.001-.283c-7.788 3.111-3.651 7.332-3.343 12.147l6.446-7.821 1.562.184c.646 4.65 1.293 9.301 1.978 14.217l6.243-4.59 1.833 8.753-.941.325-2.859-4.211c-4.674 2.394-6.171 4.746-1.894 8.774 1.518 1.428 1.57 4.411 2.486 7.301-3.589.548-6.422.981-9.255 1.415l-.223-1.736 4.061-1.275c-.757-2.438-1.477-4.755-2.62-8.44-5.024 5.794-9.296 10.72-13.462 15.523 6.27 8.219 7.522 8.762 11.43 5.4l-1.896-4.776 1.217-.809 3.903 4.525c8.846-4.254 11.064-3.696 12.244 3.272-3.167-.129-6.326-.557-9.407-.235-1.18.124-3.164 2.024-3.101 3.005.369 5.674 1.24 11.314 2.088 18.147 2.537-2.778 4.28-4.903 6.249-6.793 2.995-2.876 6.314-2.707 7.546 1.097 1.534 4.742 2.227 9.937 2.201 14.932-.013 2.692-2.281 5.374-3.503 7.996.249-6.073.737-11.721.521-17.342-.052-1.321-2.334-3.24-3.875-3.576-1.005-.219-3.104 1.675-3.7 3.058-1.563 3.628-2.571 7.495-3.829 11.356l-4.678-2.754 1.393-.347-2.162-17.352-.463-10.581-8.297 5.265c-1.591-3.378-2.386-6.642-4.356-8.856-2.535-2.846-1.962-4.977.008-7.376 3.995-4.868 8.062-9.676 12.628-15.141l-5.858-5.024-1.217 1.184-1.627-6.285c-1.237 2.331-1.996 3.684-2.686 5.071-3.273 6.59-6.477 13.217-9.837 19.764-.644 1.253-1.711 2.888-2.871 3.172-4.72 1.158-7.177 3.925-7.066 8.5l-3.072.152c.355 2.023.117 4.462 1.188 5.981 2.271 3.225 5.124 6.072 7.954 8.854.93.915 2.527 1.15 3.819 1.697-.742 1.625-1.81 3.187-2.144 4.893-.439 2.243-.578 4.63-.33 6.898.22 2.007 1.146 3.938 1.76 5.902-1.749 1.07-4.004 1.752-5.168 3.27-10.818 14.115-10.761 14.157-8.759 31.839.375 3.311 1.034 6.625 1.016 9.935-.024 4.262 1.868 6.229 5.764 7.944 15.282 6.732 19.958 19.356 12.861 34.434-2.177 4.625-5.521 8.69-8.041 13.174-.976 1.736-1.8 3.994-1.589 5.893 2.093 18.874 4.375 37.727 6.755 56.566.198 1.563 1.508 2.986 2.301 4.475-.543.473-1.505.898-1.565 1.426-.509 4.476-.853 8.97-1.247 13.459zm58.666 355.731c4.85-2.991 1.594-6.5 1.599-9.8l-2.327-.046c.297 3.277.595 6.556.893 9.834-.067 3.741-.135 7.483-.201 11.224l-.836-9.977c-5.317 1.074-9.896 1.999-14.475 2.925 1.146 4.85 9.093 8.634 15.174 7.544l2.098 2.447 1.258-.543c-.121-3.871-.096-7.754-.488-11.597-.077-.752-1.767-1.342-2.695-2.011zm72.941-44.78l6.64-.676c-1.761-1.76-2.627-3.237-3.881-3.729-1.67-.658-3.642-.55-5.484-.771l2.149 5.089-3.04 1.973c5.722.763 10.305 1.374 14.891 1.985l.414-1.641c-1.71-.488-3.396-1.108-5.136-1.429-2.16-.398-4.367-.546-6.553-.801zm-112.061-154.726c-2.596 4.104-.383 7.865.728 11.804 1.275-2.606 2.216-5.243 2.417-7.936.104-1.392-1.104-2.879-1.718-4.325 2.005-4.035 2.306-7.791-1.773-10.83.785-.463 2.3-1.045 2.246-1.37-.74-4.522-1.696-9.011-2.6-13.507.034-2.673.068-5.347.103-8.02l-3.131.567 1.536 7.471c-.028 4.593-.108 9.186.007 13.774.009.381 1.343.729 2.07 1.091-3.607 3.798-1.89 7.542.115 11.281zm-6.345-75.568l1.383-6.811c-5.464-.107-6.374 1.986-4.952 5.568l3.812 1.252c-7.538 2.32-.751 7.354-3.434 11.534 6.23-3.075 6.837-6.684 3.191-11.543zm15.788 195.233l-5.676-2.603c.659 2.312 1.018 4.18 1.764 5.875.295.671 1.766 1.531 2.163 1.315 1.219-.66 2.176-1.803 3.235-2.757l-1.717-1.832 5.549-4.215-8.081-5.979c-2.964 4.484.381 7.22 2.763 10.196zm24.454 24.449c-.763-1.172-1.483-3.314-2.297-3.35-3.697-.163-7.422.267-11.135.483.351 1.033.453 2.752 1.094 2.983 3.381 1.224 6.898 2.073 10.562 3.107.591-1.157 1.181-2.312 1.771-3.452l-.206 5.948c1.443-.163 3.847-.241 3.861-.466.182-2.992.028-6.007-.073-10.48l-3.577 5.227zm45.64 46.261l3.374-6.075-8.721-2.517c-2.623 5.116-2.623 5.116 1.705 7.737l-4.751-.608c-.387 1.806-1.144 3.452-.963 4.987.205 1.751.811 4.262 2.033 4.883 1.593.809 5.339.738 5.741-.105 1.172-2.46 1.141-5.494 1.582-8.302zm-42.796-10.801l-.733 6.028c5.187-2.118 5.628-5.075 2.377-10.539l-.81 1.876c-.609-.751-1.46-2.247-1.792-2.14-4.323 1.402-8.596 2.979-12.797 4.715-.293.121-.319 2.317.196 2.741 5.316 4.381 10.22 3.351 13.559-2.681zm-3.877-13.807l.021-3.711c3.217-3.852 2.941-7.208-.832-10.117-4.227-3.259-10.651-4.764-11.99-2.811-1.444 2.109.861 11.241 3.239 12.829-2.754 1.865-1.164 2.72.81 3.486-1.211 1.577-2.974 3.015-3.42 4.784-.255 1.014 1.757 3.759 2.526 3.675 3.82-.414 7.841-.957 11.21-2.627 1.418-.7 2.382-4.575-1.564-5.508zm-1.872-227.943c-1.279 3.616-2.56 7.232-3.84 10.848-.323 3.318-.437 6.674-1.027 9.941-.646 3.57-1.736 7.06-2.938 11.777-6.199-11.474-13.582-21.799-6.446-35.247l-2.998 2.501-.511-.434c2.227-3.986 4.453-7.973 6.814-12.201l-5.564-2.787c7.938 1.437 10.079.027 10.598-5.963.071-.814-.033-1.646-.057-2.47l.758-.005c2.768-1.986 6.501-3.397 8.097-6.08 3.083-5.184 5.007-11.065 7.323-16.693 1.339-3.254-.221-4.548-3.282-3.851-2.744.623-5.356 1.824-7.453 2.567l2.95-11.313-1.662-.609-4.814 3.81c2.175-5.23 3.946-9.488 5.636-13.55-3.442-.783-6.926-.78-7.267-1.814-.783-2.376-.334-5.316.188-7.912.38-1.891 1.924-3.521 2.51-5.405 1.295-4.165 2.313-8.417 3.444-12.633l-1.571-.517c-.587 1.127-1.164 2.259-1.761 3.381-3.269 6.145-6.101 12.578-9.915 18.364-5.97 9.055-14.006 14.281-26.245 10.265 7.354 6.336 13.187 2.723 19.652-1.927-8.123 10.395-19.468 11.746-26.451 2.469.951 11.443 1.785 21.493 2.619 31.542l1.46-.062c1.902-3.557 2.998-8.226 5.936-10.354 2.875-2.083 7.677-2.224 11.531-1.922 1.805.141 4.472 3.135 4.829 5.172.874 4.981.631 10.16.853 15.643l.972-.152c-2.073 1.494-5.172 2.648-6.211 4.798-.937 1.939.383 4.968.723 7.632-5.677 1.902-5.62 1.909-6.419 8.276-.121.961-.849 2.263-1.657 2.648-4.573 2.185-6.988 7.226-6.373 10.632.684 3.784-.907 7.314.275 10.782.78 2.286 1.863 4.467 2.812 6.695 2.545-1.263 6.107-.488 7.03-4.87.534-2.533 3.104-4.637 4.758-6.935-5.062 9.766-5.062 9.766.351 15.724l-.605 3.209-2.358-1.281c1.44 4.694 2.736 8.919 4.167 13.58l2.248-3.87c-2.093 8.398-3.819 16.91-6.389 25.16-2.211 7.096-5.533 13.747-4.529 21.606 2.337 18.327 4.321 36.7 6.447 55.056.199 1.721.388 3.442.607 5.392 4.396-2.725 5.484-9.861 3.326-15.317-.955-2.414-1.724-5.7-.831-7.873 1.548-3.771 4.454-6.987 7.101-10.892.315 4.919-.175 9.065 1.079 12.594.804 2.26 4.178 3.605 6.399 5.361 1.504-1.996 3.707-3.79 4.354-6.032 1.029-3.564 1.02-7.427 1.535-11.904l7.498 9.889c.361-5.964.856-11.418.932-16.88.026-1.824-.939-3.692-1.589-5.493-2.085-5.781-4.235-11.541-6.516-17.734 3.212-.587 4.95-.903 6.338-1.156l-2.966-15.489 1.667-1.06c-3.056-1.56-6.111-3.121-9.167-4.682l-1.287 1.257 1.838 15.259c-7.438-6.134-11.105-20.134-7.876-29.244 6.807-.259 11.159-5.546 10.668-12.166-.392-5.251-1.095-10.861.296-15.758 1.48-5.207.464-8.1-3.887-10.461l7.437 3.407c-.262-5.223 2.281-9.816-1.312-14.107 1.463-1.333 3.023-2.573 4.368-4.016 5.051-5.42 4.668-7.023-2.263-9.967-.448-.19-.961-.227-1.444-.335.153-4.269 1.877-7.313 6.083-9.012 1.149-.465 5.09-1.743.923-4.068.96-.562 2.498-.915 2.789-1.72 2.907-8.031 9.639-12.434 16.858-17.728-3.68.412-6.438.73-9.198 1.028-8.714.94-11.39 3.352-13.204 11.769-.641 2.975-.473 5.504 2.925 6.665-1.468.044-3.068.491-4.38.061-5.074-1.664-7.592 1.286-8.856 5.242-.888 2.773-.487 5.96-.673 9.158l5.037-.866c-5.032 4.176-5.102 4.95-1.247 13.657zm-56.516 182.673l2.544 6.408c8.517-6.38 11.752-14.559 8.738-24.565-.981 3.926-1.961 7.853-2.59 10.365-1.858.223-3.964-.135-4.609.673-1.691 2.121-2.748 4.752-4.055 7.246-5.971 3.545-8.292 9.702-5.615 14.924 4.464-3.477 8.241-7.212 5.338-13.608-.166-.367.155-.956.249-1.443zm116.996-26.995l-8.673-.419c1.433 1.432 2.662 2.661 3.893 3.893-5.747.188-6.15-.81-4.521-12.523-2.592 1.384-4.697 2.407-6.703 3.6-4.533 2.696-7.346 1.829-9.388-3.016-.432-1.028-.807-2.079-.755-1.944l-11.277-2.781c-.574 4.068-.018 7.137 4.675 8.285 2.02.494 3.849 1.764 5.76 2.679-1.434-.242-2.904-.812-4.29-.65-2.108.244-4.157.993-6.231 1.527l.427 2.011 10.397-1.639-.525-1.27c5.738 2.782 11.478 5.564 17.71 8.588.865 4.963 2.107 10.502 7.835 13.479.677 5.212 5.846 11.122 10.739 11.4 1.581.09 4.27-1.614 4.743-3.058 1.489-4.549 2.169-9.363 3.169-14.111-9.376 1.076-9.366 1.095-16.457 5.263-.674.396-1.581.396-2.379.581 7.961-4.133 2.674-11.526 4.809-17.031-3.009.238-5.468.433-7.912.624l10.008-4.179-.613-1.209-4.666 1.927c1.673-1.564 4.584-2.972 4.805-4.72.922-7.308 1.036-14.717 1.446-22.091l-1.151-.089c-.945 2.093-1.89 4.186-2.836 6.277l-1.055-2.092c-7.229 7.118-10.172 15.33-6.861 20.882l3.537-7.026-1.187 7.757c1.166.36 2.332.72 3.527 1.075zm-49.845 145.088c-2.556.6-5.35.74-7.606 1.914-3.021 1.57-7.708 2.504-6.9 7.244.815 4.795 5.756 4.166 9.168 5.448 3.882 1.457 5.336-.663 5.496-4.001.172-3.607-.084-7.236-.153-10.864.72 4.97 1.438 9.939 2.132 14.747 1.667-.58 2.221-8.746.054-17.914l-2.191 3.426zm62.262-85.125c1.919-6.984 7.135-7.846 13.431-6.703l.289-1.17c-2.974-1.64-5.947-3.279-8.921-4.918.861-1.476 2.27-2.877 2.481-4.441.62-4.586 2.957-7.229 8.377-8.209l-4.194-4.195c.83-.46 2.176-.74 2.41-1.409 1.568-4.483 2.901-9.049 4.3-13.555-2.249.377-4.559.592-6.768 1.182-2.137.572-5.575 1.099-5.98 2.406-1.092 3.528-3.779 7.957 1.572 10.771-6.031-2.845-7.734 5.229-12.959 4.358 1.707 4.719-.584 10.371 5.332 12.49-1.803-.613-3.604-1.225-5.523-1.876-.868 2.226-1.36 4.6-2.61 6.465-2.685 4.001-1.901 6.562 2.545 8.165-6.434.449-10.257 3.871-12.041 10.771 7.564 2.197 15.022-.54 19.1-7.224.354-.582-.531-1.921-.841-2.908zm-71.206-292.359l-1.924-8.945-.685-.086-1.663 12.638 1.303.753 2.655-2.917 2.646 6.798c1.252-3.975 2.164-6.678 2.955-9.417 1.338-4.638 1.878-9.666 4.033-13.875 5.958-11.639 12.58-22.937 18.928-34.376.552-.996 1.015-2.041 1.519-3.062-11.537 9.546-20.393 21.146-28.345 33.419-1.784 2.753-4.68 6.581.217 9.696.16.102-.031.806-.108 1.22-.504 2.719-1.019 5.436-1.531 8.154zm5.586 255.627l-1.651.214c1.414 7.735 2.868 15.464 4.215 23.21.368 2.11.742 4.307.55 6.411-.923 10.082-.935 20.031 2.029 29.884.722 2.397-.008 5.231-.082 7.864-.073 2.591-.465 5.216-.183 7.766.723 6.526 1.769 13.017 2.637 19.528.696 5.236-2.141 10.947 2.208 15.733.57.628.535 1.899.597 2.883.275 4.408 1.05 8.884.573 13.217-.588 5.357 2.822 6.308 6.261 5.906 3.04-.354 6.51-1.887 8.675-4.028 9.599-9.494 12.031-24.391 5.065-35.93-4.438-7.353-4.665-14.407-1.113-21.282 6.474-12.532 13.855-24.595 20.819-36.877 2.206-3.89 4.731-7.68 6.33-11.816 3.692-9.561 1.291-13.967-8.784-16.093-3.958-.834-4.629-2.677-4.276-6.26.318-3.242.409-6.738-.471-9.815-1.962-6.868-9.544-10.758-16.744-9.189-6.867 1.497-9.646 5.502-8.751 13.652 1.694 15.455-3.844 28.374-13.812 40.08 3.203-12.302 4.059-24.274-4.092-35.058zm-12.943-.908c1.892-1.893 3.311-3.496 4.922-4.873 1.716-1.466 3.432-3.369 5.469-3.939 5.492-1.534 9.49.605 11.783 6.469 1.686 4.311 2.515 8.957 3.726 13.453l1.704.023c.248-6.177 1.035-12.403.486-18.509-.232-2.6-3.138-5.049-5.05-7.387-2.233-2.729-3.44-4.924-.076-7.998 1.771-1.617 2.252-4.645 3.551-7.564-5.293 2.517-9.317 4.43-14.266 6.782 1.711 1.02 3.647 2.173 6.417 3.821-6.171-1.448-8.197-.082-10.603 5.017-.744 1.578-3.09 2.398-4.703 3.565-.422-1.587-1.11-3.155-1.216-4.764-.292-4.449.033-8.97-.602-13.359-.527-3.641.052-5.562 2.956-5.129 1.294-2.887 1.88-5.548 3.432-7.399 5.015-5.986 5.005-9.389-.897-15.089-.143 5.782-.382 12.181-7.063 13.416-7.319 1.353-7.667-6.133-10.231-10.617-3.544 5.185-3.214 5.981.075 10.322 1.351 1.783 2.057 5.091 1.365 7.133-.959 2.832-3.282 5.34-5.428 7.602-4.875 5.137-4.977 5.04-11.383.868.107 2.712.063 6.693 1.687 7.563 3.442 1.844 2.753 3.655 1.482 5.944-1.754 3.165-3.736 6.204-5.615 9.3-.841 1.386-2.105 2.684-2.432 4.184-2.084 9.592 4.105 23.69 12.921 29.136-.693-1.891-1.475-3.359-1.764-4.919-1.321-7.137-3.519-14.305-3.484-21.452.042-9.084 5.66-13.115 15.814-12.177-2.07-2.903-3.619-5.075-5.437-7.623l-2.97 4.188c-1.252-7.422 3.003-17.095 8.597-20.464 2.935-1.769 4.2-.125 4.373 2.376.405 5.92.457 11.864.653 17.851l-4.916.95c-1.508 6.349 4.498 8.43 6.723 13.299zm-77.174 10.059c2.72.178 5.333.35 8.087.528-4.098 1.365-8.936 1.613-11.369 4.158-2.631 2.751-3.015 7.648-4.605 12.265l4.261-.093c-1.852 1.996-4.609 4.022-6.026 6.746-1.69 3.251-1.963 7.054 1.735 10.281 5.597-3.662 10.842-11.244 18.18-2.166l1.307-.588-.36-11.229-2.922 2.922c3.075-3.644-.945-5.539-1.779-7.325l6.11-2.159.57 6.982 1.718-.073c2.649-3.645 5.559-7.924 2.878-12.125-2.473-3.88-.896-5.474 1.396-7.936 2.846-3.056 6.092-6.142 4.5-10.478 4.094-1.856 7.336-5.305 7.687-8.876.317-3.221-3.591-5.494-7.519-5.827-5.991-.507-9.758 2.232-11.64 8.719l4.633 1.156c-7.926.199-14.228 5.469-16.842 15.118zm-1.472 66.4l-2.493-1.513c2.232 9.129 13.201 6.566 15.42 13.799l5.02-1.473c-1.51 2.096-3.885 3.885-3.938 5.738-.162 5.725-2.334 9.283-8.998 10.109 3.789 2.702 7.002 2.777 9.943.884 5.541-3.568 6.378-9.446 6.513-15.354.124-5.38-1.507-10.064-6.877-12.999l-3.244 4.126-1.372-1.001 4.951-6.359c-7.179 3.606-3.754-3.881-7.727-5.024-2.146 2.702-4.556 5.738-7.198 9.067zm-5.224-17.418c5.651-.903 6.538-10.375 14.082-6.478.326-1.646.545-3.281.983-4.856.998-3.603-.623-6.447-3.473-7.825-1.494-.722-4.15.438-6.062 1.26-1.621.697-2.923 2.132-4.373 3.231-6.565 4.972-6.858 9.157-1.157 14.668zm10.213-6.016c-2.141 1.782-3.587 3.343-5.341 4.385-7.967 4.734-8.102 4.732-4.273 12.602.754 1.552 2.649 2.549 3.392 3.229 3.095-3.095 5.402-5.407 7.715-7.712 4.151-4.139 3.225-9.977-1.493-12.504zm106.483-307.846c-11.266.768-26.157 13.391-20.693 25.287 7.023-8.582 13.705-16.749 20.693-25.287zm-22.243 338.149c.685-.875 1.093-1.165 1.06-1.389-.443-2.974-.169-6.43-1.646-8.775-1.65-2.62-10.847-3.683-12.324-2.281-.426.405-.842 1.105-.819 1.652.149 3.64.353 7.282.715 10.905.064.646 1.022 1.781 1.442 1.727 4.064-.528 8.102-1.261 11.572-1.839zm18.334 93.94c-2.206-.609-2.976-1.053-3.698-.986-5.352.496-10.743.839-16.004 1.851-1.217.233-2.974 3.046-2.739 4.359.552 3.099 2.871 5.391 6.359 4.723 4.686-.898 9.431-1.921 13.806-3.727 1.317-.544 1.484-3.875 2.276-6.22zm30.757-55.849c.24-4.548 1.064-9.401.478-14.078-.256-2.03-3.196-4.853-5.307-5.25-2.977-.56-5.004 1.835-5.025 5.364-.021 3.259-.407 6.514-.573 8.913 3.564 1.727 6.577 3.187 10.427 5.051zm27.974-152.237l-1.25-.987c-4.364 4.936-8.993 9.665-13.01 14.869-3.257 4.22.918 5.689 3.704 7.016 3.607 1.717 5.994-.746 6.833-3.65 1.629-5.637 2.523-11.487 3.723-17.248zm-36.905 169.958c1.927-3.176 3.952-6.335 5.797-9.598 2.539-4.489-.381-6.75-3.832-8.545-3.308-1.719-5.058.615-6.621 2.962-1.336 2.003-2.535 4.1-3.46 5.608 2.73 3.222 5.12 6.041 8.116 9.573zm-1.925-40.013l10.561 1.488c3.771-5.937-.754-9.835-3.802-13.28-4.461-.25-8.199-.46-11.827-.662 1.991 4.894 3.705 9.105 5.068 12.454zm-4.732 38.085c-3.46-3.625-8.676-3.976-11.491-1.115-2.292 2.329-2.527 7.351-.45 9.569 2.959 3.159 7.583 2.685 11.892-1.091 3.156-2.766 1.52-5.221.049-7.363zm-88.725-164.814l-4.288-4.288c-2.424 4.736-4.694 9.174-6.625 12.944 4.614 2.923 8.712 5.521 13.144 8.328 1.208-1.717 2.475-3.517 3.229-4.585l-8.976-10.856 3.516-1.543zm151.614 46.293c-5.557-1.437-10.914-2.82-16.532-4.272-.454.856-.923 1.698-1.352 2.559-1.726 3.461-1.149 6.933 1.993 8.694 1.687.946 4.933.193 6.97-.817 3.164-1.571 5.897-4.014 8.921-6.164zm-94.258 122.826l-10.592.375c-.245 7.617 4.077 12.141 10.177 11.189 5.843-.911 6.495-2.489 3.091-7.337-.939-1.336-1.754-2.762-2.676-4.227zm-5.206 23.773c-9.263-2.915-12.813-8.911-12.25-17.942-6.557 8.179-2.662 19.202 8.661 24.955 1.07-2.093 2.141-4.185 3.589-7.013zm57.857-113.654c-7.951-2.865-7.952-2.866-12.175 4.106l-1.259 2.149c-2.182 3.58.42 4.819 3.016 5.724 2.565.894 5.501 2.344 6.86-1.855 1.069-3.3 2.294-6.55 3.558-10.124zm-56.658 113.136c-1.144 3.316-2.079 6.026-3.538 10.258 5.014-.259 9.265-.222 13.384-.934.719-.124 1.632-3.609 1.189-5.186-1.718-6.117-7.27-2.346-11.035-4.138zm-9.019-70.678l-1.841.57c.848 3.269.676 8.065 2.771 9.459 3.453 2.3 8.371 2.398 13.521 3.629-.353-2.396.002-4.942-.95-5.602-4.299-2.977-8.966-5.42-13.501-8.056zm27.396 65.023l-1.078 1.121c-2.086 1.556-4.173 3.11-6.084 4.534l2.168 11.366c3.412-3.141 7.309-5.72 9.516-9.332.731-1.195-2.891-5.051-4.522-7.689zm22.784-207.633c-2.328 3.949-5.017 8.324-7.459 12.833-.422.78-.085 2.277.393 3.188 2.207 4.218 3.376 4.169 9.308.125-.793-5.709-1.559-11.22-2.242-16.146zm-35.518-44.712c-1.207 15.779-.195 17.381 12.321 20.058-4.04-6.578-7.975-12.985-12.321-20.058zm4.068-30.11c-5.327 2.005-6.838 3.759-5.322 6.308 2.321 3.901 11.168 6.033 15.291 3.661l-9.969-9.969zm-4.762 320.584c2.001 7.548 3.882 14.648 5.764 21.749l.924-.202c.345-7.473.69-14.945 1.053-22.791-2.953.474-5.063.813-7.741 1.244zm15.104-397.426c-9.962-1.515-14.559.48-16.135 6.441 7.908 4.111 11.084-3.542 16.135-6.441zm-3.905 393.174c.456-1.771 1.395-3.358.952-4.292-.409-.865-2.359-1.549-3.518-1.403-2.932.37-5.875 1.039-8.656 2.029-1.13.402-2.659 2.053-2.547 2.955.129 1.046 1.937 2.754 2.887 2.673 3.556-.302 7.06-1.219 10.882-1.962zm-25.702-83.838l2.521 12.771c3.937-2.036 6.975-3.607 10.818-5.598-4.619-2.483-8.216-4.418-13.339-7.173zm28.714-241.956c-3.523-1.562-6.5-2.88-9.476-4.203-.301-.133-.639-.466-.88-.402-1.433.373-2.843.836-4.262 1.269.342 1.11.396 2.46 1.079 3.291 2.391 2.903 9.423 3.048 13.539.045zm-3.436 39.489c-3.093-4.865-5.575-8.771-8.277-13.022-4.846 6.683-1.699 11.712 8.277 13.022zm-54.878-223.989c-4.507 6.105-.874 11.715.03 17.415.525-5.719 5.887-11.44-.03-17.415zm6.084 96.76c7.707 5.695 4.031 13.258 4.477 20.053 1.159-3.014 1.943-6.088 2.713-9.167.452-1.811.88-3.628 1.318-5.442-3.393-.797-3.296-7.237-8.508-5.444zm-14.008-117.856c1.236 5.302 2.18 9.776 7.063 12.247 2.082-6.183.468-9.075-7.063-12.247zm34.261 177.298l4.2-19.799-1.388-.256c-2.875 6.378-6.288 12.651-2.812 20.055zm-42.963-65.559l-5.479 12.517c7.68-2.639 9.137-6.015 5.479-12.517zm13.69 13.557c-.942 4.548-1.885 9.096-2.858 13.798 6.186-.613 6.639-2.298 2.858-13.798zm3.863 203.511c4.889-2.271 6.586-5.52 4.142-8.505-.736-.898-2.37-1.062-3.593-1.562-.365 1.08-1.025 2.157-1.035 3.239-.018 2.287.305 4.575.486 6.828zm34.164-294.181c-3.674 4.365-2.872 13.942.91 20.175l-.91-20.175zm-9.334 285.248c3.3-5.007-1.504-8.35-1.637-12.821-4.811 5.29-4.523 7.569 1.637 12.821zm26.89 20.542l-2.113.109c-3.297 4.694 1.452 8.493 1.306 12.838l2.165-.216c-.453-4.244-.906-8.487-1.358-12.731zm-18.013 153.343c6.102 4.658 12.868 6.039 12.637-.562-4.053.179-8.101.36-12.637.562zm-5.417-455.837c2.715-4.537 1.121-13.694-3.426-17.277l3.426 17.277zm15.903 257.159l-1.558-.803c-1.672 1.672-3.535 3.204-4.921 5.085-.553.749-.054 2.272-.033 3.442 1.222-.058 3.224.309 3.526-.248 1.272-2.342 2.036-4.959 2.986-7.476zm4.853 194.302c3.948-3.621.595-7.275 1.127-11.432l-4.821 1.556c1.267 3.388 2.326 6.215 3.694 9.876zm-20.864-277.281c-2.664 5.995-3.05 12.106.461 19.371-.173-7.297-.319-13.334-.461-19.371zm23.563 285.549l-13.932 2.798c5.048 3.129 10.196 2.277 13.932-2.798zm-7.974-50.076c-4.101-.847-7.756-1.601-11.411-2.355 4.514 5.208 8.706 5.938 11.411 2.355zm-38.899-638.338c-5.364 5.216-5.061 6.908 1.548 10.051-.515-3.34-.979-6.351-1.548-10.051zm-15.258 370.564l-1.216-.267c-1.045 2.925-2.09 5.849-3.134 8.774l1.149.43 5.052-3.666-1.851-5.271zm22.97 149.048c2.829 6.491 4.212 7.155 9.962 4.228-3.71-1.575-6.307-2.678-9.962-4.228zm38.395-172.503c-4.32-3.916-6.045-.256-8.245 2.337 2.399 1.54 2.399 1.54 8.245-2.337zm-1.145 15.175l-.236-2.52-5.951.173.402 4.141c1.928-.599 3.856-1.197 5.785-1.794zm9.019 303.879c-3.612 4.65-2.628 10.495 1.089 11.008-.362-3.666-.752-7.608-1.089-11.008zm-15.069-294.438l-.669 1.439c1.035 1.036 2.502 3.127 3.027 2.913 1.659-.678 2.966-2.22 4.408-3.427l-.711-1.233c-2.018.102-4.036.204-6.055.308z"/><path fill="#fff" d="M69.042 358.407c.394-4.489.737-8.983 1.246-13.458.06-.528 1.022-.953 1.565-1.426l-.15.011c.892 3.306 2.111 6.563 2.612 9.927 1.439 9.66 2.588 19.363 3.851 29.051l-1.66.569c-1.84-4.975-3.676-9.951-5.522-14.924-.548-1.478-1.126-2.944-1.69-4.417l-.252-5.333zM71.854 343.522c-.793-1.488-2.104-2.911-2.301-4.475-2.38-18.839-4.662-37.692-6.755-56.566-.21-1.898.614-4.157 1.589-5.893 2.521-4.483 5.864-8.548 8.041-13.174 7.097-15.078 2.421-27.702-12.861-34.434-3.896-1.716-5.788-3.682-5.764-7.944.019-3.31-.641-6.624-1.016-9.935-2.002-17.683-2.059-17.724 8.759-31.839 1.164-1.518 3.419-2.2 5.168-3.27l6.375 2.131c1.138 2.628 2.276 5.255 3.923 9.056-.153-3.945-.054-6.827-.425-9.646-.538-4.09.521-6.281 5.147-6.05 3.453.173 4.581-1.452 2.36-4.531l1.812-10.453-2.146-.06 5.611-4.553-.192.034 2.162 17.352-1.393.347 4.678 2.754c1.258-3.861 2.266-7.728 3.829-11.356.596-1.383 2.695-3.277 3.7-3.058 1.541.336 3.823 2.255 3.875 3.576.217 5.621-.271 11.27-.521 17.342 1.222-2.623 3.49-5.304 3.503-7.996.025-4.995-.667-10.189-2.201-14.932-1.231-3.804-4.551-3.973-7.546-1.097-1.969 1.89-3.712 4.015-6.249 6.793-.848-6.833-1.719-12.474-2.088-18.147-.063-.981 1.921-2.882 3.101-3.005 3.081-.322 6.24.105 9.407.235-1.18-6.968-3.398-7.527-12.244-3.272l-3.903-4.525-1.217.809 1.896 4.776c-3.907 3.361-5.16 2.819-11.43-5.4 4.166-4.804 8.438-9.729 13.462-15.523l2.62 8.44-4.061 1.275.223 1.736 9.255-1.415c-.916-2.89-.969-5.873-2.486-7.301-4.277-4.028-2.78-6.38 1.894-8.774l2.859 4.211.941-.325-1.833-8.753-6.243 4.59c-.685-4.917-1.331-9.567-1.978-14.217l-1.562-.184-6.446 7.821c-.309-4.815-4.445-9.036 3.343-12.147l-5.001.283c-.586-2.914-1.159-5.753-1.727-8.571l-6.29 5.595 5.417.688c-.259 1.541-.559 3.329-.782 4.665.896 1.69 1.831 3.45 3.428 6.458l-4.991-1.936c-3.026 8.517-6.03 16.973-9.035 25.429l-2.348-.902 5.457-13.229c-4.997 2.772-7.137 7.391-7.169 12.217-.034 5.08-2.209 8.392-5.835 11.733-2.693-1.488-5.385-3.376-8.372-4.41-1.038-.359-2.808 1.396-4.959 2.58 4.318 1.773 7.509 2.659 10.016 4.483.483.351-1.708 4.38-2.688 6.766-5.174-1.97-9.776-3.423-14.046-5.545-1.137-.565-1.796-3.185-1.766-4.845.445-24.588-1.382-48.956-6.799-72.987-4.152-18.427-10.148-36.194-19.159-53.218 25.464 10.151 46.134 26.872 64.958 46.042-3.902 7.76-13.596 15.636-18.615 14.425 1.196 1.885 1.843 3.358 2.883 4.462 4.606 4.89 4.62 5.109-.303 7.967l.517 10.995c1.904-3.979 2.575-7.994 4.817-9.292 2.002-1.158 5.741.687 8.562 1.181l2.114-6.099c-2.503-.347-5.396.058-6.767-1.198-1.056-.968-.23-4.024-.188-6.15.137-6.73 6.348-7.855 10.47-11.649 28.983 39.444 36.593 86.117 47.995 132.192-1.814-.409-2.738-.57-3.632-.833-.734-.217-1.433-.557-2.383-.611 12.095 6.159 6.147 18.373 11.137 28.168-3.606-.955-5.46-1.551-7.357-1.928-7.007-1.391-10.581 1.665-10.205 8.785.781 14.828 1.621 29.652 2.464 44.476.094 1.642.36 3.273.575 5.164l-5.15.193-.237.791 5.076 1.36c.613 15.984 1.261 32.044 1.764 48.109.028.926-1.121 1.89-2.373 3.859l-2.578-17.126c-7.543-3.168 1.377-8.965-1.041-13.746l-2.811 5.534c-7.274-8.489-4.833-18.383-6.074-27.595l-1.749 30.398c-4.042-3.306-7.047-8.284-5.62-15.386.925-4.604 1.269-9.278-3.454-12.693 3.201 4.816 1.424 9.243.086 14.151-1.942 7.127-.048 14.07 5.632 19.153 7.893 7.063 8.517 15.591 6.368 25.131-6.216-2.221-6.932-3.708-6.312-13.224-3.252 3.578-5.156 6.73-2.573 11.215 1.942 3.373 4.712 6.671.985 10.972-.878 1.014.59 4.06.979 6.17l-2.059.799c-1.351-.825-3.287-1.334-3.937-2.539-1.599-2.965-2.582-6.259-3.856-9.403-2.056-5.073-2.083-10.015.634-14.908 4.418-7.955 3.812-11.641-2.786-17.964 4.535-11.296-5.811-14.663-11.22-20.861 2.011-2.338 4.023-4.677 6.604-7.676-6.031-1.467-6.363 2.375-7.649 5.251-5.616-3.005.579-6.208-.343-9.152-4.359 1.973-5.636 6.703-3.64 11.509.719 1.73 1.063 3.983.619 5.758-1.164 4.655-.428 8.953 2.958 12.007 5.29 4.77 5.98 10.937 6.29 17.233.394 7.976.313 15.976.438 24.012-.046-.028-1.196-.343-1.646-1.084-3.833-6.314-7.428-12.477-4.057-20.523 2.258-5.389-.371-9.558-3.517-9.568.013 4.463-.093 8.837.07 13.202.201 5.428.624 10.849.957 16.271l.157-.009zm18.749-161.937l-.433-6.548c-2.567 2.19-6.523 4.128-6.382 5.697.549 6.073-3.723 9.581-6.012 14.103-1.192 2.356-2.715 4.545-4.089 6.81l1.282 1.147c6.261-5.109 12.521-10.219 18.78-15.328l1.504 1.009c-.68 1.529-1.076 3.289-2.092 4.546-3.557 4.402-7.315 8.641-11.019 12.923-4.524 5.233-4.533 5.225-10.746 1.138.416-3.713 3.242-8.193-1.856-10.48-1.486-.667-4.607.837-6.197 2.235-2.123 1.867-3.039 4.602-1.273 6.287 2.268-1.616 4.932-4.425 5.766-3.959 4.828 2.701-.812 4.965-.95 7.55l9.458 5.787-.409.264c2.463.766 4.925 1.533 8.101 2.522l-11.554 13.194.645.49c6.06-6.06 12.119-12.119 18.18-18.179-6.326 1.717-6.326 1.717-8.822-1.043 4.717-1.442 9.032-2.761 13.454-4.112l.623-4.396c7.276-.473 6.981 3.285 5.101 8.518 1.897-2.195 4.273-5.871 3.734-6.364-2.85-2.611-6.434-4.422-10.629-7.053l-1.501 8.099-8.451.403 11.703-11.704c3.548-3.548 7.096-7.096 10.758-10.757l-13.812-2.783-2.862-.016zm.705 63.537l-10.029 12.062.933 1.049 10.247-.668c-3.109 4.181-5.559 7.476-8.104 10.9l16.717-1.748.063-1.13-9.368-1.831c2.524-6.991 7.536-6.031 13.201-4.602-1.523-1.522-3.046-3.045-4.532-4.532l1.805-2.665-11.676.794-.318-1.696 8.085-7.023c-3.585-.644-6.334-1.138-9.083-1.633l-.378-1.344c3.881-2.015 7.835-3.901 11.626-6.074 6.01-3.445 6.554-8.9 1.26-12.758-4.116-3-8.296-1.695-12.153.648-3.692 2.243-4.745 5.731-3.942 9.807.822-.865.778-2.311 1.471-2.919 2-1.758 4.168-3.447 6.55-4.574.749-.354 3.511 1.46 3.429 1.763-.607 2.248-1.203 4.843-2.735 6.43-4.074 4.221-8.616 7.988-13.641 12.542 3.78-.286 6.938-.524 10.572-.798zm-46.205-184.981c1.637 3.708 3.159 6.557 4.158 9.58 1.031 3.12 1.554 6.409 2.299 9.624l1.559-.31-2.11-16.756 10.407-.854-14.903-14.903-.909.591 2.106 11.926-2.607 1.102zm10.045 46.663l-.262-.932-16.808 5.846c3.215 4.294 5.486 8.043 2.851 13.207-1.032 2.021.113 5.153.267 7.779l1.502.072c.81-3.103 2.312-6.221 2.237-9.301-.077-3.207-1.676-6.376-2.967-10.784l6.466 5.196-1.625-7.096 8.339-3.987zm-18.232-25.741l7.085 2.836.926-.981-6.113-7.253-1.332.885-.566 4.513zm-.76-11.656l-1.276.39c-.008 1.562-.634 3.863.13 4.505 1.017.853 3.119.413 4.754.528l.365-1.449c-1.324-1.325-2.648-2.65-3.973-3.974zM97.234 482.219c-5.413-5.958-5.413-5.958-.351-15.724-1.653 2.298-4.224 4.401-4.758 6.935-.923 4.382-4.485 3.607-7.03 4.87-.948-2.229-2.031-4.409-2.812-6.695-1.183-3.468.408-6.998-.275-10.782-.615-3.406 1.8-8.447 6.373-10.632.809-.386 1.536-1.688 1.657-2.648.799-6.367.742-6.374 6.419-8.276-.34-2.664-1.659-5.692-.723-7.632 1.039-2.149 4.138-3.304 6.211-4.798l-.972.152c-.222-5.482.021-10.661-.853-15.643-.357-2.037-3.024-5.032-4.829-5.172-3.854-.301-8.656-.161-11.531 1.922-2.938 2.128-4.033 6.797-5.936 10.354l-1.46.062c-.834-10.049-1.668-20.099-2.619-31.542 6.983 9.276 18.328 7.925 26.451-2.469-6.466 4.65-12.299 8.263-19.652 1.927 12.239 4.016 20.275-1.21 26.245-10.265 3.814-5.786 6.646-12.219 9.915-18.364.597-1.122 1.174-2.254 1.761-3.381l1.571.517c-1.131 4.217-2.149 8.469-3.444 12.633-.586 1.884-2.13 3.514-2.51 5.405-.521 2.596-.971 5.536-.188 7.912.341 1.034 3.824 1.031 7.267 1.814l-5.636 13.55c2.193-1.735 3.504-2.772 4.814-3.81l1.662.609c-1.011 3.874-2.021 7.749-2.95 11.313 2.097-.743 4.709-1.944 7.453-2.567 3.062-.697 4.621.597 3.282 3.851-2.316 5.628-4.24 11.509-7.323 16.693-1.596 2.683-5.329 4.093-8.097 6.08l1.51-14.87-8.423-3.546c6.463 5.377 6.463 5.377 5.499 8.775l-4.792-4.792c2.077 4.138 3.577 7.126 5.096 10.15l-3.846.09 4.198 4.198c.023.823.128 1.655.057 2.47-.519 5.99-2.659 7.399-10.598 5.963l5.564 2.787c-2.361 4.229-4.588 8.215-6.814 12.201l.511.434 2.998-2.501c-7.136 13.448.247 23.773 6.446 35.247 1.201-4.718 2.291-8.207 2.938-11.777.591-3.268.704-6.623 1.029-9.938l-.01-.025c4.353 2.368 5.369 5.261 3.889 10.468-1.391 4.896-.688 10.507-.296 15.758.491 6.62-3.861 11.907-10.668 12.166-3.229 9.11.438 23.11 7.876 29.244l-1.838-15.259 1.287-1.257c3.056 1.561 6.111 3.122 9.167 4.682l-1.667 1.06 2.966 15.489c-1.388.253-3.126.569-6.338 1.156 2.28 6.193 4.431 11.953 6.516 17.734.649 1.801 1.615 3.669 1.589 5.493-.075 5.462-.57 10.916-.932 16.88l-7.498-9.889c-.516 4.478-.506 8.34-1.535 11.904-.646 2.242-2.85 4.036-4.354 6.032-2.222-1.756-5.596-3.102-6.399-5.361-1.254-3.528-.764-7.675-1.079-12.594-2.646 3.904-5.553 7.12-7.101 10.892-.893 2.173-.124 5.459.831 7.873 2.158 5.456 1.07 12.593-3.326 15.317-.22-1.949-.408-3.671-.607-5.392-2.126-18.355-4.11-36.729-6.447-55.056-1.004-7.859 2.318-14.511 4.529-21.606 2.569-8.25 4.296-16.762 6.389-25.16 1.526-4.673.543-8.603-3.449-11.639zm9.624 39.152l.65-.261-1.868-6.062c-8.325 8.28-8.333 35.341-.119 41.217 4.545-4.588 3.211-10.287 3.504-15.97-2.695.541-4.896.984-7.096 1.427l-.626-1.271 5.653-2.854-5.39-.715c-1.28-6.431 4.315-3.393 6.743-5.286l-6.803-.861-.287-1.593 6.897-2.027-6.014-2.049 2.038-8.015c1.456 2.312 2.087 3.316 2.718 4.32zm1.932-136.579l-1.083-.036c-1.272 1.951-2.442 3.979-3.846 5.831-1.332 1.759-4.211 3.439-4.088 4.966.214 2.638 2.226 5.129 3.687 8.093 2.036-7.206 3.683-13.03 5.33-18.854zm-4.014 104.477l-1.054 1.862 6.456 3.618 2.743-6.488-1.272-.485-1.679 3.307-5.194-1.814zM126.857 631.365c8.151 10.784 7.295 22.756 4.091 35.058 9.969-11.706 15.507-24.625 13.812-40.08-.895-8.15 1.884-12.155 8.751-13.652 7.2-1.568 14.782 2.321 16.744 9.189.88 3.077.789 6.573.471 9.815-.353 3.583.318 5.426 4.276 6.26 10.075 2.126 12.477 6.532 8.784 16.093-1.599 4.137-4.124 7.927-6.33 11.816-6.964 12.282-14.346 24.345-20.819 36.877-3.552 6.875-3.325 13.93 1.113 21.282 6.966 11.539 4.533 26.436-5.065 35.93-2.165 2.142-5.635 3.674-8.675 4.028-3.438.401-6.849-.549-6.261-5.906.477-4.333-.298-8.809-.573-13.217-.062-.983-.026-2.255-.597-2.883-4.349-4.786-1.512-10.497-2.208-15.733-.868-6.512-1.914-13.002-2.637-19.528-.282-2.55.109-5.175.183-7.766.074-2.633.804-5.467.082-7.864-2.964-9.853-2.952-19.802-2.029-29.884.192-2.104-.182-4.301-.55-6.411-1.347-7.746-2.801-15.475-4.215-23.21l1.652-.214zM113.914 630.457c-2.225-4.868-8.23-6.949-6.722-13.299l4.916-.95c-.196-5.986-.248-11.931-.653-17.851-.173-2.501-1.438-4.145-4.373-2.376-5.594 3.369-9.849 13.042-8.597 20.464l2.97-4.188 5.437 7.623c-10.154-.938-15.772 3.093-15.814 12.177-.034 7.147 2.163 14.315 3.484 21.452.289 1.56 1.07 3.028 1.764 4.919-8.815-5.445-15.005-19.544-12.921-29.136.326-1.5 1.591-2.798 2.432-4.184 1.879-3.096 3.861-6.135 5.615-9.3 1.271-2.289 1.96-4.101-1.482-5.944-1.623-.87-1.579-4.852-1.687-7.563 6.406 4.172 6.508 4.269 11.383-.868 2.146-2.262 4.469-4.77 5.428-7.602.691-2.042-.015-5.35-1.365-7.133-3.289-4.341-3.619-5.138-.075-10.322 2.564 4.484 2.912 11.97 10.231 10.617 6.682-1.235 6.921-7.634 7.063-13.416 5.902 5.7 5.912 9.103.897 15.089-1.552 1.852-2.138 4.513-3.432 7.399-2.904-.433-3.483 1.488-2.956 5.129.635 4.39.31 8.91.602 13.359.105 1.608.794 3.177 1.216 4.764 1.613-1.167 3.959-1.987 4.703-3.565 2.405-5.099 4.432-6.465 10.603-5.017-2.77-1.648-4.706-2.802-6.417-3.821 4.948-2.353 8.973-4.266 14.266-6.782-1.299 2.92-1.78 5.947-3.551 7.564-3.364 3.074-2.157 5.27.076 7.998 1.912 2.338 4.817 4.787 5.05 7.387.549 6.105-.238 12.332-.486 18.509l-1.704-.023c-1.211-4.496-2.04-9.143-3.726-13.453-2.293-5.863-6.291-8.003-11.783-6.469-2.037.57-3.753 2.474-5.469 3.939-1.613 1.376-3.032 2.98-4.923 4.873zM36.74 640.516c2.614-9.649 8.916-14.919 16.843-15.116l-4.633-1.156c1.881-6.486 5.648-9.226 11.64-8.719 3.928.333 7.836 2.606 7.519 5.827-.35 3.571-3.593 7.02-7.687 8.876 1.591 4.336-1.654 7.422-4.5 10.478-2.292 2.462-3.869 4.056-1.396 7.936 2.68 4.201-.229 8.48-2.878 12.125l-1.718.073-.57-6.982-6.11 2.159c.833 1.786 4.854 3.682 1.779 7.325l2.922-2.922.36 11.229-1.307.588c-7.338-9.078-12.583-1.496-18.18 2.166-3.699-3.228-3.426-7.03-1.735-10.281 1.417-2.724 4.175-4.75 6.026-6.746l-4.261.093c1.59-4.616 1.974-9.514 4.605-12.265 2.434-2.545 7.271-2.793 11.369-4.158l-8.088-.53zM67.427 158.3c-1.292-.546-2.889-.782-3.819-1.697-2.831-2.782-5.683-5.629-7.954-8.854-1.07-1.519-.833-3.958-1.188-5.981l3.072-.152c-.111-4.575 2.346-7.342 7.066-8.5 1.16-.285 2.228-1.919 2.871-3.172 3.36-6.546 6.563-13.173 9.837-19.764.689-1.388 1.448-2.74 2.686-5.071l1.627 6.285 1.217-1.184 5.858 5.024c-4.565 5.464-8.633 10.273-12.628 15.141-1.97 2.4-2.543 4.53-.008 7.376 1.971 2.214 2.766 5.478 4.356 8.856l8.297-5.265.463 10.581.192-.034c-2.729.004-5.456.008-8.184.013l-.013-1.495 2.387-1.56-16.316-7.494-.614 1.246 10.541 6.077-6.832 2.644.2.593 8.545-.315-.46.839c-3.811 1.96-7.622 3.92-11.433 5.879l.234-.016zM153.076 605.907c-1.916-.915-3.745-2.185-5.765-2.679-4.692-1.148-5.249-4.217-4.675-8.285l11.277 2.781c-.052-.135.323.916.755 1.944 2.042 4.845 4.854 5.712 9.388 3.016 2.006-1.192 4.111-2.216 6.703-3.6-1.63 11.714-1.227 12.712 4.531 12.522l-.2.019 7.927-.628c-2.135 5.505 3.152 12.898-4.809 17.031l.133-.063c-5.676-2.989-6.918-8.528-7.783-13.491-6.232-3.023-11.972-5.806-17.71-8.588l.228.021zM121.271 375.738c.512-2.718 1.027-5.435 1.53-8.154.077-.415.269-1.119.108-1.22-4.896-3.115-2.001-6.943-.217-9.696 7.952-12.272 16.808-23.873 28.345-33.419-.504 1.022-.967 2.067-1.519 3.062-6.348 11.439-12.97 22.738-18.928 34.376-2.155 4.209-2.695 9.238-4.033 13.875-.791 2.738-1.703 5.441-2.955 9.417l-2.646-6.798.315-1.443zM35.268 706.916l7.197-9.066c3.973 1.144.548 8.631 7.727 5.024-2.142 2.752-3.545 4.555-4.951 6.359l1.372 1.001 3.244-4.126c5.37 2.935 7 7.619 6.877 12.999-.135 5.907-.972 11.785-6.513 15.354-2.941 1.894-6.154 1.818-9.943-.884 6.664-.826 8.836-4.385 8.998-10.109.053-1.854 2.428-3.643 3.938-5.738l-5.02 1.473c-2.219-7.232-13.188-4.67-15.42-13.799l2.494 1.512zM73.088 178.125l-6.375-2.131c-.614-1.964-1.541-3.895-1.76-5.902-.248-2.269-.11-4.655.33-6.898.334-1.706 1.402-3.267 2.144-4.893l-.233.015c4.564-2.961 9.364.867 13.655-.787l2.706 9.953c-1.186.815-2.297 2.172-3.571 2.348-4.475.616-7.709 1.788-5.464 7.321.046.111-.932.639-1.432.974zM30.044 689.498c-5.702-5.511-5.408-9.695 1.156-14.668 1.45-1.1 2.752-2.534 4.373-3.231 1.912-.821 4.568-1.981 6.062-1.26 2.851 1.378 4.471 4.223 3.473 7.825-.438 1.575-.657 3.211-.983 4.856-7.542-3.897-8.429 5.574-14.081 6.478zM191.847 654.704c-5.916-2.119-3.625-7.771-5.332-12.49 5.225.871 6.928-7.203 12.948-4.362 1.484.2 2.98.404 4.477.609l4.194 4.195c-5.42.979-7.757 3.623-8.377 8.209-.212 1.564-1.62 2.966-2.481 4.441l-5.429-.602zM178.208 628.029c.798-.185 1.705-.186 2.379-.581 7.091-4.168 7.081-4.187 16.457-5.263-1 4.748-1.68 9.562-3.169 14.111-.474 1.443-3.162 3.147-4.743 3.058-4.894-.278-10.062-6.188-10.766-11.395l-.158.07zM40.257 683.482c4.718 2.527 5.644 8.365 1.492 12.503-2.313 2.305-4.62 4.617-7.715 7.712-.742-.68-2.637-1.677-3.392-3.229-3.829-7.869-3.693-7.867 4.273-12.602 1.754-1.041 3.201-2.602 5.342-4.384zM191.847 654.704l5.429.603c2.974 1.639 5.947 3.278 8.921 4.918l-.289 1.17c-6.296-1.143-11.512-.281-13.431 6.703l-6.219-.64c-4.446-1.603-5.229-4.164-2.545-8.165 1.25-1.865 1.742-4.239 2.61-6.465 1.92.651 3.721 1.262 5.524 1.876zM146.74 375.636c-6.987 8.539-13.67 16.706-20.693 25.287-5.464-11.897 9.427-24.52 20.693-25.287zM124.497 713.785c-3.47.578-7.508 1.312-11.572 1.839-.42.055-1.378-1.08-1.442-1.727-.362-3.623-.565-7.266-.715-10.905-.022-.547.394-1.247.819-1.652 1.478-1.401 10.674-.339 12.324 2.281 1.477 2.346 1.202 5.802 1.646 8.775.032.224-.376.514-1.06 1.389zM142.831 807.725c-.792 2.345-.959 5.676-2.276 6.22-4.375 1.806-9.12 2.828-13.806 3.727-3.488.668-5.808-1.624-6.359-4.723-.234-1.313 1.522-4.126 2.739-4.359 5.261-1.012 10.652-1.354 16.004-1.851.722-.067 1.492.377 3.698.986zM130.219 752.971c.069 3.62.325 7.249.153 10.856-.16 3.338-1.614 5.458-5.496 4.001-3.412-1.282-8.353-.653-9.168-5.448-.808-4.74 3.88-5.674 6.9-7.244 2.257-1.174 5.051-1.314 7.606-1.914l.005-.251zM173.588 751.876c-3.851-1.864-6.863-3.324-10.428-5.051.166-2.399.553-5.654.573-8.913.021-3.529 2.049-5.924 5.025-5.364 2.11.397 5.051 3.22 5.307 5.25.588 4.677-.236 9.531-.477 14.078zM111.889 676.589c-2.378-1.588-4.684-10.72-3.239-12.829 1.339-1.953 7.764-.448 11.99 2.811 3.773 2.909 4.049 6.266.832 10.117-3.193-.031-6.389-.065-9.583-.099zM129.696 425.204c-3.397-1.161-3.565-3.689-2.925-6.665 1.814-8.417 4.49-10.828 13.204-11.769 2.761-.297 5.519-.616 9.198-1.028-7.22 5.294-13.951 9.697-16.858 17.728-.291.805-1.829 1.158-2.787 1.72l.168.014zM201.562 599.639c-1.2 5.761-2.094 11.61-3.723 17.247-.839 2.904-3.226 5.367-6.833 3.65-2.786-1.326-6.961-2.796-3.704-7.016 4.017-5.204 8.646-9.934 13.01-14.869l1.25.988zM164.657 769.597c-2.996-3.532-5.386-6.352-8.116-9.572.925-1.509 2.124-3.605 3.46-5.608 1.563-2.347 3.313-4.681 6.621-2.962 3.451 1.795 6.371 4.056 3.832 8.545-1.845 3.262-3.871 6.421-5.797 9.597zM162.732 729.584l-5.068-12.454c3.628.202 7.366.412 11.827.662 3.048 3.445 7.573 7.344 3.802 13.28-2.899-.408-6.082-.856-10.561-1.488zM158 767.669c1.472 2.142 3.107 4.597-.05 7.363-4.309 3.775-8.933 4.25-11.892 1.091-2.077-2.219-1.842-7.24.45-9.569 2.816-2.86 8.032-2.51 11.492 1.115zM186.258 667.458l6.219.64c.31.987 1.195 2.326.84 2.908-4.077 6.684-11.535 9.421-19.1 7.224 1.784-6.901 5.608-10.323 12.041-10.772zM69.275 602.855l-3.516 1.543c2.9 3.508 5.668 6.856 8.976 10.856-.753 1.068-2.021 2.868-3.229 4.585l-13.144-8.328 6.625-12.944 4.288 4.288zM188.194 716.964c3.248-.072 2.565-2.166 1.325-3.456-1.66-1.723-3.903-2.881-6.13-4.445 2.412-2.82 5.552-4.761 9.106-2.073 3.132 2.369 3.082 5.835 1.131 9.397-1.221 2.23-1.381 5.065-2.7 7.21-1.325 2.157-3.323 4.038-5.394 5.529-.722.521-2.539-.482-3.855-.79.441-1.368.471-3.232 1.405-4.01 2.457-2.043 6.135-3.028 5.104-7.441l.008.079zM203.94 638.46c-1.496-.205-2.992-.409-4.477-.609-5.341-2.81-2.653-7.238-1.562-10.767.405-1.308 3.844-1.834 5.98-2.406 2.209-.59 4.519-.805 6.768-1.182-1.398 4.506-2.731 9.071-4.3 13.555-.233.669-1.579.949-2.409 1.409zM220.889 649.148c-3.024 2.15-5.757 4.593-8.921 6.163-2.037 1.011-5.283 1.764-6.97.817-3.143-1.762-3.719-5.233-1.993-8.694.429-.86.897-1.702 1.352-2.559l16.532 4.273zM126.631 771.974c.922 1.465 1.736 2.891 2.676 4.228 3.404 4.848 2.752 6.426-3.091 7.337-6.1.951-10.422-3.572-10.177-11.189 3.501-.125 7.046-.251 10.592-.376zM121.425 795.747c-1.448 2.828-2.52 4.921-3.589 7.013-11.323-5.753-15.218-16.776-8.661-24.955-.563 9.03 2.988 15.027 12.25 17.942zM180.031 608.139l-3.499-1.08 1.187-7.757 4.379-11.764 2.836-6.277 1.151.089c-.41 7.374-.524 14.783-1.446 22.091-.221 1.748-3.132 3.155-4.805 4.72l.197-.022zM63.091 635.188c1.309-2.426 2.365-5.057 4.057-7.178.645-.808 2.751-.45 4.609-.673.628-2.513 1.608-6.439 2.59-10.365 3.014 10.007-.221 18.186-8.738 24.565l-2.544-6.408.026.059zM179.282 682.093c-1.264 3.574-2.488 6.823-3.558 10.124-1.359 4.199-4.295 2.749-6.86 1.855-2.596-.904-5.197-2.144-3.016-5.724l1.259-2.149c4.223-6.972 4.224-6.971 12.175-4.106zM129.696 425.204l-.168-.013c4.165 2.325.225 3.603-.925 4.068-4.206 1.698-5.93 4.743-6.083 9.012l-1.696.527-5.037.866c.186-3.198-.215-6.385.673-9.158 1.265-3.956 3.782-6.905 8.856-5.242 1.311.431 2.912-.016 4.38-.06zM120.824 438.798l1.696-.527c.483.108.996.145 1.444.335 6.931 2.943 7.313 4.547 2.263 9.967-1.345 1.442-2.905 2.683-4.368 4.016l-2.279-.133c-3.855-8.707-3.785-9.481 1.244-13.658zM122.624 795.229c3.766 1.792 9.317-1.979 11.035 4.139.442 1.576-.471 5.062-1.189 5.186-4.119.712-8.37.675-13.384.934 1.458-4.233 2.394-6.943 3.538-10.259zM127.535 725.842c-6.081 1.09-14.028-2.694-15.174-7.544 4.578-.926 9.157-1.851 14.475-2.925l.836 9.977c-.034.168-.079.332-.137.492zM113.605 724.551c4.535 2.636 9.202 5.079 13.5 8.057.952.659.598 3.205.95 5.602-5.149-1.23-10.067-1.329-13.521-3.629-2.095-1.394-1.923-6.19-2.771-9.459l1.842-.571zM141.001 789.574c1.631 2.639 5.253 6.494 4.521 7.689-2.207 3.612-6.104 6.191-9.516 9.332-.916-4.806-1.569-8.227-2.168-11.366l6.084-4.534 1.079-1.121zM163.785 581.941c.684 4.926 1.449 10.438 2.241 16.146-5.932 4.044-7.101 4.093-9.308-.125-.478-.911-.814-2.408-.393-3.188 2.443-4.509 5.132-8.884 7.46-12.833zM121.452 680.399c3.946.933 2.982 4.808 1.563 5.509-3.369 1.67-7.39 2.213-11.21 2.627-.77.084-2.781-2.661-2.526-3.675.446-1.77 2.209-3.207 3.42-4.784 2.918.108 5.836.216 8.753.323zM125.329 694.206c-3.339 6.032-8.242 7.062-13.559 2.682-.516-.424-.489-2.62-.196-2.741 4.201-1.735 8.474-3.312 12.797-4.715.332-.107 1.183 1.389 1.793 2.139l-.835 2.635zM128.267 537.229c4.346 7.073 8.281 13.48 12.321 20.058-12.516-2.677-13.528-4.279-12.321-20.058zM132.335 507.119l9.969 9.969c-4.123 2.372-12.97.24-15.291-3.661-1.515-2.55-.005-4.303 5.322-6.308zM127.573 827.703l7.74-1.244-1.053 22.791-.924.202c-1.881-7.101-3.762-14.202-5.763-21.749zM168.125 705.007c-.44 2.808-.409 5.842-1.581 8.302-.402.844-4.148.914-5.741.105-1.223-.621-1.828-3.132-2.033-4.883-.181-1.535.576-3.182.963-4.987l4.748.607 3.644.856zM142.677 430.277c-5.051 2.899-8.228 10.552-16.136 6.437 1.578-5.957 6.174-7.952 16.136-6.437zM138.772 823.451c-3.822.743-7.326 1.66-10.882 1.962-.95.081-2.758-1.627-2.887-2.673-.112-.902 1.417-2.553 2.547-2.955 2.781-.99 5.725-1.659 8.656-2.029 1.158-.146 3.108.538 3.518 1.403.443.933-.496 2.52-.952 4.292zM182.097 587.539l-4.379 11.764-3.537 7.026c-3.311-5.552-.368-13.764 6.861-20.882l1.055 2.092zM119.58 452.456l2.279.133c3.593 4.291 1.05 8.885 1.312 14.107-3.024-1.386-5.23-2.396-7.438-3.411l.009.022c1.278-3.619 2.558-7.235 3.838-10.851zM113.07 739.613l13.34 7.174c-3.844 1.99-6.882 3.562-10.818 5.598l-2.522-12.772zM122.479 658.504l-1.771 3.466c-3.663-1.034-7.181-1.884-10.562-3.107-.641-.231-.743-1.95-1.094-2.983 3.713-.217 7.438-.646 11.135-.483.813.035 1.534 2.178 2.297 3.35l-.005-.243zM63.064 635.129c-.094.486-.415 1.075-.248 1.442 2.902 6.396-.874 10.132-5.343 13.607-2.672-5.221-.352-11.378 5.619-14.956l-.028-.093zM141.784 497.657c-4.115 3.003-11.147 2.858-13.538-.046-.684-.831-.737-2.181-1.079-3.291 1.419-.433 2.829-.896 4.262-1.269.241-.063.579.27.88.402 2.975 1.324 5.951 2.642 9.475 4.204zM138.348 537.146c-9.977-1.31-13.123-6.339-8.277-13.022 2.702 4.251 5.184 8.157 8.277 13.022zM88.463 503.352c-.718-.362-2.052-.71-2.061-1.091-.115-4.589-.035-9.182-.007-13.774l1.492-.019c.903 4.496 1.859 8.984 2.6 13.507.054.325-1.461.907-2.246 1.37l.222.007zM168.125 705.007l-3.645-.855c-4.325-2.62-4.325-2.62-1.702-7.736l8.721 2.517c-1.175 2.114-2.275 4.094-3.374 6.074zM83.47 313.157c5.917 5.976.555 11.696.03 17.415-.904-5.7-4.537-11.31-.03-17.415zM97.234 482.219c3.992 3.036 4.976 6.966 3.451 11.638l-2.248 3.87c-1.431-4.661-2.727-8.886-4.167-13.58l2.358 1.281.606-3.209zM89.554 409.917c5.212-1.794 5.115 4.646 8.508 5.444-.438 1.814-.866 3.631-1.318 5.442-.77 3.079-1.554 6.153-2.713 9.167-.446-6.794 3.23-14.357-4.477-20.053zM75.546 292.061c7.53 3.173 9.145 6.064 7.063 12.247-4.883-2.471-5.826-6.945-7.063-12.247zM109.807 469.359c-3.477-7.404-.063-13.677 2.812-20.055l1.388.256c-1.4 6.6-2.799 13.199-4.2 19.799zM98.041 634.302c-2.392-2.981-5.736-5.717-2.772-10.199 2.537 1.876 4.938 3.652 8.081 5.979l-5.549 4.215.24.005zM66.844 403.8c3.658 6.502 2.201 9.878-5.479 12.517l5.479-12.517zM80.534 417.357c3.781 11.5 3.328 13.186-2.858 13.798.973-4.702 1.915-9.25 2.858-13.798zM84.397 620.868c-.181-2.253-.504-4.541-.486-6.827.01-1.082.67-2.159 1.035-3.239 1.223.5 2.856.663 3.593 1.562 2.444 2.984.747 6.232-4.142 8.504zM82.254 439.066c3.635 4.857 3.027 8.466-3.203 11.542 2.683-4.18-4.104-9.214 3.434-11.534l-.231-.008zM118.561 326.687l.91 20.175c-3.782-6.233-4.584-15.81-.91-20.175zM109.227 611.935c-6.16-5.252-6.448-7.531-1.637-12.821.133 4.471 4.937 7.814 1.637 12.821zM88.242 503.345c4.079 3.039 3.778 6.795 1.773 10.83l-1.427.457c-2.005-3.739-3.723-7.483-.12-11.28l-.226-.007zM136.117 632.477l1.357 12.731-2.165.216c.146-4.345-4.603-8.144-1.306-12.838l2.114-.109zM121.452 680.399c-2.917-.107-5.835-.215-8.753-.323-1.974-.767-3.563-1.621-.81-3.486 3.194.033 6.39.067 9.583.099l-.02 3.71zM200.073 669.271l-2.149-5.089c1.843.221 3.814.112 5.484.771 1.254.492 2.12 1.97 3.881 3.729-2.692.273-4.666.475-6.64.676-.189-.046-.381-.075-.576-.087zM118.104 785.82c4.536-.202 8.584-.383 12.637-.562.231 6.601-6.535 5.22-12.637.562zM88.588 514.632l1.427-.457c.614 1.446 1.822 2.934 1.718 4.325-.201 2.692-1.142 5.329-2.417 7.936-1.11-3.938-3.323-7.7-.728-11.804zM112.687 329.983l-3.426-17.277c4.547 3.583 6.141 12.74 3.426 17.277zM128.59 587.142c-.95 2.517-1.714 5.134-2.985 7.477-.303.557-2.305.19-3.526.248-.021-1.17-.52-2.693.033-3.442 1.386-1.881 3.249-3.413 4.921-5.085l1.557.802zM133.443 781.444c-1.368-3.661-2.427-6.488-3.694-9.876l4.821-1.556c-.532 4.156 2.821 7.811-1.127 11.432zM112.579 504.163l.461 19.371c-3.511-7.265-3.125-13.376-.461-19.371zM130.215 753.222l2.189-3.426c2.167 9.168 1.613 17.334-.054 17.914-.694-4.808-1.412-9.777-2.132-14.743l-.003.255zM121.271 375.738l-.313 1.443c-.886.972-1.771 1.944-2.655 2.917l-1.303-.753 1.663-12.638.685.086 1.923 8.945zM136.142 789.712c-3.736 5.074-8.884 5.927-13.932 2.798l13.932-2.798zM87.888 488.468l-1.492.019-1.536-7.471 3.131-.567-.103 8.019zM128.168 739.636c-2.705 3.583-6.897 2.853-11.411-2.355l11.411 2.355zM122.485 658.746l3.576-5.226c.102 4.474.255 7.488.073 10.48-.015.225-2.418.303-3.861.466l.207-5.954.005.234zM89.269 101.298c.569 3.7 1.033 6.711 1.548 10.051-6.609-3.143-6.912-4.835-1.548-10.051zM74.011 471.862l1.851 5.271-5.052 3.666-1.149-.43c1.044-2.926 2.089-5.85 3.134-8.774l1.216.267zM125.329 694.206l.835-2.636.809-1.875c3.251 5.464 2.81 8.421-2.377 10.539l.733-6.028zM96.981 620.91l9.962 4.228c-5.75 2.927-7.133 2.263-9.962-4.228zM152.848 605.886l.525 1.27c-3.466.546-6.931 1.092-10.397 1.639l-.427-2.011c2.074-.534 4.123-1.283 6.231-1.527 1.386-.161 2.856.408 4.292.65l-.224-.021zM200.073 669.271c.195.012.388.041.576.087 2.187.255 4.393.403 6.553.802 1.74.32 3.426.94 5.136 1.429l-.414 1.641-14.891-1.985 3.04-1.974zM97.8 634.296l1.717 1.832c-1.06.954-2.017 2.097-3.235 2.757-.397.216-1.868-.645-2.163-1.315-.746-1.695-1.104-3.562-1.764-5.875l5.682 2.604-.237-.003zM127.535 725.842c.059-.16.104-.324.137-.492.066-3.74.134-7.482.201-11.224l-.182.016c.945.665 2.635 1.255 2.711 2.008.393 3.843.367 7.726.488 11.597l-1.258.543-2.097-2.448zM82.485 439.074l-3.812-1.252c-1.422-3.582-.512-5.676 4.952-5.568-.496 2.438-.938 4.625-1.376 6.812l.236.008zM179.833 608.161l4.666-1.927.613 1.209c-3.336 1.393-6.672 2.786-10.016 4.181l.193-.017c-1.241-1.23-2.471-2.46-3.903-3.892 3.477.168 6.075.294 8.658.422l-.211.024zM127.873 714.126c-.298-3.278-.596-6.557-.893-9.834l2.327.046c-.005 3.3 3.251 6.809-1.607 9.803l.173-.015zM135.376 448.407c-5.847 3.877-5.847 3.877-8.245 2.337 2.201-2.593 3.925-6.253 8.245-2.337zM134.231 463.582c-1.929.598-3.857 1.195-5.785 1.794l-.402-4.141 5.951-.173.236 2.52zM143.25 767.461c.337 3.399.727 7.342 1.089 11.008-3.716-.512-4.701-6.357-1.089-11.008zM128.181 473.023c2.019-.104 4.037-.206 6.056-.308l.711 1.233c-1.442 1.207-2.749 2.749-4.408 3.427-.525.214-1.992-1.877-3.027-2.913l.668-1.439z"/><path d="M93.463 181.601l13.812 2.783-10.758 10.757c-3.634 3.634-7.268 7.268-11.703 11.704l8.451-.403 1.501-8.099c4.195 2.631 7.779 4.441 10.629 7.053.539.493-1.837 4.169-3.734 6.364 1.881-5.232 2.176-8.991-5.101-8.518l-.623 4.396-13.454 4.112c2.496 2.76 2.496 2.76 8.822 1.043l-18.18 18.179-.645-.49c3.526-4.027 7.053-8.055 11.554-13.194-3.176-.989-5.638-1.756-8.101-2.522l.409-.264-9.458-5.787c.139-2.584 5.778-4.849.95-7.55-.834-.466-3.499 2.343-5.766 3.959-1.765-1.686-.85-4.42 1.273-6.287 1.589-1.398 4.71-2.902 6.197-2.235 5.099 2.287 2.272 6.767 1.856 10.48 6.213 4.086 6.222 4.095 10.746-1.138 3.703-4.282 7.462-8.521 11.019-12.923 1.016-1.257 1.412-3.017 2.092-4.546l-1.504-1.009-18.78 15.328-1.282-1.147c1.375-2.264 2.897-4.453 4.089-6.81 2.289-4.522 6.561-8.03 6.012-14.103-.142-1.569 3.814-3.507 6.382-5.697.194 2.943.313 4.746.433 6.548-5.75 1.51-5.185 7.229-7.507 11.115 3.774-2.509 7.149-5.354 10.344-8.39.457-.431.039-1.783.025-2.709zM91.308 245.122c-3.634.274-6.792.513-10.575.799 5.024-4.553 9.566-8.321 13.641-12.542 1.532-1.587 2.128-4.183 2.735-6.43.082-.302-2.68-2.117-3.429-1.763-2.382 1.126-4.55 2.816-6.55 4.574-.692.609-.648 2.054-1.471 2.919-.803-4.076.25-7.564 3.942-9.807 3.857-2.343 8.037-3.647 12.153-.648 5.294 3.858 4.75 9.313-1.26 12.758-3.791 2.173-7.745 4.059-11.626 6.074l.378 1.344c2.749.495 5.498.989 9.083 1.633l-8.085 7.023.318 1.696c3.947-.269 7.894-.537 11.676-.794l-1.805 2.665 4.532 4.532c-5.665-1.43-10.677-2.389-13.201 4.602l9.368 1.831-.063 1.13-16.717 1.748 8.104-10.9-10.247.668-.933-1.049 10.032-12.063zM83.555 167.48l-2.706-9.953c-4.291 1.654-9.091-2.174-13.655.787 3.811-1.959 7.622-3.919 11.433-5.879l.46-.839-8.545.315-.2-.593 6.832-2.644c-4.047-2.333-7.294-4.206-10.541-6.077l.614-1.246c5.424 2.491 10.849 4.982 16.316 7.494l-2.387 1.56.013 1.495c2.728-.004 5.455-.008 8.184-.013-1.87 1.518-3.74 3.036-5.611 4.553l2.146.06-1.812 10.453-.541.527zM45.103 60.141l2.606-1.102-2.106-11.926.909-.591 14.903 14.903-10.407.854 2.11 16.756-1.559.31c-.745-3.215-1.268-6.504-2.299-9.624-.998-3.023-2.52-5.873-4.157-9.58zm10.597-1.397l-6.067-6.068.837 6.852 5.23-.784zM55.148 106.804l-8.34 3.987 1.625 7.096-6.466-5.196c1.291 4.407 2.89 7.577 2.967 10.784.074 3.081-1.428 6.199-2.237 9.301l-1.502-.072c-.154-2.625-1.299-5.758-.267-7.779 2.635-5.164.364-8.913-2.851-13.207l16.808-5.846.263.932z"/><path fill="#fff" d="M93.463 181.601c.014.926.432 2.278-.023 2.71-3.194 3.035-6.569 5.88-10.344 8.39 2.322-3.886 1.757-9.605 7.507-11.115l2.86.015z"/><path d="M83.555 167.48l.539-.527c2.221 3.079 1.093 4.704-2.36 4.531-4.626-.231-5.686 1.959-5.147 6.05.371 2.82.271 5.702.425 9.646l-3.923-9.056c.5-.334 1.478-.863 1.432-.976-2.246-5.533.989-6.705 5.464-7.321 1.273-.174 2.385-1.532 3.57-2.347zM36.916 81.063l.566-4.514 1.332-.885 6.113 7.253-.926.981c-2.22-.887-4.44-1.776-7.085-2.835zM36.156 69.407l3.974 3.974-.365 1.449c-1.636-.116-3.738.324-4.754-.528-.765-.643-.138-2.943-.13-4.505l1.275-.39zM106.858 521.371l-2.716-4.319-2.038 8.015 6.014 2.049-6.897 2.027.287 1.593 6.803.861c-2.428 1.894-8.023-1.145-6.743 5.286l5.39.715c-2.387 1.204-4.02 2.029-5.653 2.854l.626 1.271 7.096-1.427c-.293 5.683 1.041 11.382-3.504 15.97-8.214-5.876-8.206-32.937.119-41.217l1.868 6.062-.652.26zm-2.47 32.124c4.527-3.216 2.88-7.12 2.316-10.929-5.582 1.133-6.156 3.662-2.316 10.929zM108.79 384.792c-1.646 5.824-3.294 11.648-5.33 18.853-1.461-2.963-3.473-5.455-3.687-8.093-.123-1.526 2.756-3.207 4.088-4.966 1.403-1.852 2.573-3.88 3.846-5.831l1.083.037zM113.611 428.421l-4.198-4.198 3.846-.09c-1.519-3.024-3.019-6.012-5.096-10.15l4.792 4.792c.964-3.398.964-3.398-5.499-8.775l8.423 3.546c-.459 4.521-.984 9.696-1.51 14.87l-.758.005zM104.776 489.269l5.194 1.813 1.679-3.307 1.272.485-2.743 6.488-6.456-3.618 1.054-1.861z"/><path fill="#fff" d="M55.7 58.744l-5.23.784-.837-6.852 6.067 6.068zM104.388 553.495c-3.84-7.267-3.267-9.796 2.316-10.929.564 3.809 2.212 7.713-2.316 10.929z"/></g></svg>